SplineFontDB: 3.0
FontName: Muli-Italic
FullName: Muli Italic
FamilyName: Muli
Weight: Normal
Copyright: Digitized data Copyright (c) 2011-2014, vernon adams.
Version: 2
ItalicAngle: -7
UnderlinePosition: 0
UnderlineWidth: 0
Ascent: 1638
Descent: 410
sfntRevision: 0x00000000
UFOAscent: 1560
UFODescent: -556
LayerCount: 2
Layer: 0 0 "Back"  1
Layer: 1 0 "Fore"  0
FSType: 0
OS2Version: 0
OS2_WeightWidthSlopeOnly: 0
OS2_UseTypoMetrics: 1
CreationTime: 1391726701
ModificationTime: 1391734222
PfmFamily: 17
TTFWeight: 400
TTFWidth: 5
LineGap: 0
VLineGap: 0
OS2TypoAscent: 2364
OS2TypoAOffset: 0
OS2TypoDescent: -582
OS2TypoDOffset: 0
OS2TypoLinegap: 0
OS2WinAscent: 2364
OS2WinAOffset: 0
OS2WinDescent: 582
OS2WinDOffset: 0
HheadAscent: 2364
HheadAOffset: 0
HheadDescent: -582
HheadDOffset: 0
OS2Vendor: 'NeWT'
Lookup: 258 0 0 "kernHorizontalKerninginLatinloo"  {"kernHorizontalKerninginLatinloo subtable"  } ['kern' ('latn' <'dflt' > ) ]
MarkAttachClasses: 1
DEI: 91125
LangName: 1033 "" "" "" "" "" "Version 2.0" "" "Muli is a trademark of Vernon Adams and may be registered in certain jurisdictions." "newtypography" "Vernon Adams" "" "newtypography.co.uk" "newtypography.co.uk" "Copyright (c) 2014, vernon adams.+AAoACgAA-This Font Software is licensed under the SIL Open Font License, Version 1.1.+AAoA-This license is available with a FAQ at:+AAoA-http://scripts.sil.org/OFL+AAoA" "http://scripts.sil.org/OFL" "" "Muli" "Bold" 
PickledData: "(dp1
S'com.typemytype.robofont.foreground.layerStrokeColor'
p2
(F0.5
F0
F0.5
F0.69999999999999996
tp3
sS'com.schriftgestaltung.fontMasterID'
p4
S'CAA31E91-2985-420A-82BA-6B4D8404D924'
p5
sS'GSDimensionPlugin.Dimensions'
p6
(dp7
S'CAA31E91-2985-420A-82BA-6B4D8404D924'
p8
(dp9
ssS'com.superpolator.editor.generateInfo'
p10
S'Generated with LTR Superpolator version 120823_1018_beta_'
p11
sS'com.typemytype.robofont.b.layerStrokeColor'
p12
(F1
F0.75
F0
F0.69999999999999996
tp13
sS'com.schriftgestaltung.useNiceNames'
p14
I01

StartChar: A
Encoding: 65 65 0
Width: 1399
VWidth: 0
Flags: HW
PickledData: "(dp1
S'org.robofab.postScriptHintData'
p2
(dp3
sS'com.typemytype.robofont.layerData'
p4
(dp5
s."
AnchorPoint: "top" 788 1456 basechar 0
LayerCount: 2
Fore
SplineSet
-58 0 m 257
 685 1456 l 257
 889 1456 l 257
 1279 0 l 257
 1070 0 l 257
 968 389 l 257
 345 389 l 257
 150 0 l 257
 -58 0 l 257
416 545 m 257
 930 545 l 257
 874 783 818 1020 761 1256 c 257
 646 1019 531 782 416 545 c 257
EndSplineSet
EndChar

StartChar: AE
Encoding: 198 198 1
Width: 2062
VWidth: 0
Flags: HW
PickledData: "(dp1
S'org.robofab.postScriptHintData'
p2
(dp3
sS'com.typemytype.robofont.layerData'
p4
(dp5
S'b'
(dp6
S'name'
p7
S'AE'
p8
sS'lib'
p9
(dp10
sS'unicodes'
p11
(tsS'width'
p12
F2073.5500000000002
sS'contours'
p13
(tsS'components'
p14
(tsS'anchors'
p15
(tsss."
AnchorPoint: "top" 1439 1456 basechar 0
LayerCount: 2
Fore
SplineSet
-64 0 m 257
 958 1456 l 257
 1976 1456 l 257
 1956 1291 l 257
 1267 1291 l 257
 1249 829 l 257
 1867 829 l 257
 1848 671 l 257
 1247 671 l 257
 1230 163 l 257
 1843 163 l 257
 1823 0 l 257
 1029 0 l 257
 1043 401 l 257
 431 401 l 257
 154 0 l 257
 -64 0 l 257
524 548 m 257
 1047 548 l 257
 1083 1291 l 257
 1036 1291 l 257
 524 548 l 257
EndSplineSet
EndChar

StartChar: B
Encoding: 66 66 18
Width: 1356
VWidth: 0
Flags: HW
PickledData: "(dp1
S'org.robofab.postScriptHintData'
p2
(dp3
sS'com.typemytype.robofont.layerData'
p4
(dp5
S'b'
(dp6
S'name'
p7
S'B'
sS'lib'
p8
(dp9
sS'unicodes'
p10
(tsS'width'
p11
F1346.45
sS'contours'
p12
(tsS'components'
p13
(tsS'anchors'
p14
(tsss."
AnchorPoint: "top" 736 1456 basechar 0
LayerCount: 2
Fore
SplineSet
113 0 m 257
 291 1456 l 257
 676 1456 l 258
 939 1456 1218 1415 1218 1152 c 0
 1218 1136 1217 1119 1215 1101 c 256
 1195 944 1104 822 935 777 c 257
 1109 746 1204 634 1204 471 c 0
 1204 453 1202 434 1200 414 c 256
 1172 186 978 0 630 0 c 258
 113 0 l 257
619 163 m 258
 865 163 1002 265 1002 473 c 0
 1002 627 897 682 656 682 c 258
 388 682 l 257
 324 163 l 257
 619 163 l 258
660 840 m 258
 850 840 1013 905 1013 1114 c 0
 1013 1258 888 1295 683 1295 c 258
 463 1295 l 257
 407 840 l 257
 660 840 l 258
EndSplineSet
EndChar

StartChar: C
Encoding: 67 67 20
Width: 1399
VWidth: 0
Flags: HW
PickledData: "(dp1
S'org.robofab.postScriptHintData'
p2
(dp3
sS'com.typemytype.robofont.guides'
p4
(tsS'com.typemytype.robofont.layerData'
p5
(dp6
S'b'
(dp7
S'name'
p8
S'C'
sS'lib'
p9
(dp10
sS'unicodes'
p11
(tsS'width'
p12
F1394.1500000000001
sS'contours'
p13
((dp14
S'points'
p15
((dp16
S'segmentType'
p17
S'curve'
p18
sS'x'
F785
sS'smooth'
p19
I01
sS'y'
F-23
s(dp20
S'y'
F-23
sS'x'
F346
sg19
I00
s(dp21
S'y'
F309
sS'x'
F108
sg19
I00
s(dp22
g17
S'curve'
p23
sS'x'
F108
sg19
I01
sS'y'
F713
s(dp24
S'y'
F1125
sS'x'
F108
sg19
I00
s(dp25
S'y'
F1483
sS'x'
F371
sg19
I00
s(dp26
g17
S'curve'
p27
sS'x'
F814
sg19
I01
sS'y'
F1483
s(dp28
S'y'
F1483
sS'x'
F995
sg19
I00
s(dp29
S'y'
F1437
sS'x'
F1144
sg19
I00
s(dp30
g17
S'curve'
p31
sS'x'
F1265
sg19
I00
sS'y'
F1329
s(dp32
g17
S'line'
p33
sS'x'
F1200
sg19
I00
sS'y'
F1219
s(dp34
S'y'
F1295
sS'x'
F1099
sg19
I00
s(dp35
S'y'
F1334
sS'x'
F969
sg19
I00
s(dp36
g17
S'curve'
p37
sS'x'
F833
sg19
I01
sS'y'
F1334
s(dp38
S'y'
F1334
sS'x'
F464
sg19
I00
s(dp39
S'y'
F1022
sS'x'
F291
sg19
I00
s(dp40
g17
S'curve'
p41
sS'x'
F291
sg19
I01
sS'y'
F712
s(dp42
S'y'
F398
sS'x'
F291
sg19
I00
s(dp43
S'y'
F125
sS'x'
F453
sg19
I00
s(dp44
g17
S'curve'
p45
sS'x'
F811
sg19
I01
sS'y'
F125
s(dp46
S'y'
F125
sS'x'
F974
sg19
I00
s(dp47
S'y'
F172
sS'x'
F1134
sg19
I00
s(dp48
g17
S'curve'
p49
sS'x'
F1243
sg19
I00
sS'y'
F268
s(dp50
g17
S'line'
p51
sS'x'
F1301
sg19
I00
sS'y'
F127
s(dp52
S'y'
F28
sS'x'
F1178
sg19
I00
s(dp53
S'y'
F-23
sS'x'
F996
sg19
I00
stp54
stp55
sS'components'
p56
(tsS'anchors'
p57
(tsss."
AnchorPoint: "top" 904 1456 basechar 0
LayerCount: 2
Fore
SplineSet
904 1321 m 256
 561 1321 301 1017 301 619 c 0
 301 319 484 139 761 139 c 256
 900 139 1044 183 1190 283 c 257
 1236 131 l 257
 1077 25 904 -22 732 -22 c 256
 381 -22 98 193 98 599 c 0
 98 636 100 675 105 716 c 256
 162 1179 506 1482 909 1482 c 256
 1081 1482 1230 1440 1349 1332 c 257
 1257 1202 l 257
 1153 1287 1032 1321 904 1321 c 256
EndSplineSet
EndChar

StartChar: D
Encoding: 68 68 27
Width: 1539
VWidth: 0
Flags: HW
PickledData: "(dp1
S'org.robofab.postScriptHintData'
p2
(dp3
sS'com.typemytype.robofont.layerData'
p4
(dp5
S'b'
(dp6
S'name'
p7
S'D'
sS'lib'
p8
(dp9
sS'unicodes'
p10
(tsS'width'
p11
F1526.5999999999999
sS'contours'
p12
(tsS'components'
p13
(tsS'anchors'
p14
(tsss."
AnchorPoint: "top" 786 1456 basechar 0
LayerCount: 2
Fore
SplineSet
323 161 m 257
 566 161 l 258
 961 161 1182 372 1225 726 c 256
 1230 766 1233 804 1233 839 c 0
 1233 1150 1039 1295 647 1295 c 258
 462 1295 l 257
 323 161 l 257
113 0 m 257
 291 1456 l 257
 649 1456 l 258
 1148 1456 1435 1272 1435 856 c 0
 1435 815 1433 771 1427 726 c 256
 1371 264 1057 0 536 0 c 258
 113 0 l 257
EndSplineSet
EndChar

StartChar: DEL
Encoding: 127 127 28
Width: 1521
VWidth: 0
Flags: HW
PickledData: "(dp1
S'org.robofab.postScriptHintData'
p2
(dp3
s."
LayerCount: 2
Fore
SplineSet
286 124 m 257
 1087 124 l 257
 1235 1330 l 257
 434 1330 l 257
 286 124 l 257
99 0 m 257
 277 1456 l 257
 1422 1456 l 257
 1244 0 l 257
 99 0 l 257
EndSplineSet
EndChar

StartChar: Delta
Encoding: 916 916 32
Width: 1305
VWidth: 0
Flags: HW
PickledData: "(dp1
S'org.robofab.postScriptHintData'
p2
(dp3
s."
LayerCount: 2
Fore
SplineSet
-33 0 m 257
 -23 84 l 257
 673 1455 l 257
 827 1455 l 257
 1170 84 l 257
 1160 0 l 257
 -33 0 l 257
182 142 m 257
 975 142 l 257
 720 1237 l 257
 182 142 l 257
EndSplineSet
EndChar

StartChar: E
Encoding: 69 69 35
Width: 1204
VWidth: 0
Flags: HW
PickledData: "(dp1
S'org.robofab.postScriptHintData'
p2
(dp3
sS'com.typemytype.robofont.layerData'
p4
(dp5
s."
AnchorPoint: "top" 734 1456 basechar 0
LayerCount: 2
Fore
SplineSet
113 0 m 257
 291 1456 l 257
 1163 1456 l 257
 1143 1295 l 257
 462 1295 l 257
 406 837 l 257
 1049 837 l 257
 1030 675 l 257
 387 675 l 257
 324 161 l 257
 1034 161 l 257
 1014 0 l 257
 113 0 l 257
EndSplineSet
EndChar

StartChar: Eng
Encoding: 330 330 46
Width: 1570
VWidth: 0
Flags: HW
PickledData: "(dp1
S'org.robofab.postScriptHintData'
p2
(dp3
sS'com.typemytype.robofont.layerData'
p4
(dp5
s."
LayerCount: 2
Fore
SplineSet
1507 1456 m 257
 1335 56 l 258
 1296 -259 1145 -436 808 -436 c 256
 705 -436 585 -419 447 -386 c 257
 487 -235 l 257
 621 -271 734 -289 826 -289 c 256
 1004 -289 1115 -215 1139 -28 c 257
 1149 55 l 257
 551 1044 l 257
 469 1200 l 257
 322 0 l 257
 138 0 l 257
 316 1456 l 257
 523 1456 l 257
 1095 488 l 257
 1183 327 l 257
 1321 1456 l 257
 1507 1456 l 257
EndSplineSet
EndChar

StartChar: Euro
Encoding: 8364 8364 50
Width: 1480
VWidth: 0
Flags: HW
PickledData: "(dp1
S'org.robofab.postScriptHintData'
p2
(dp3
sS'com.typemytype.robofont.layerData'
p4
(dp5
S'b'
(dp6
S'name'
p7
S'Euro'
p8
sS'lib'
p9
(dp10
sS'unicodes'
p11
(tsS'width'
p12
I1190
sS'contours'
p13
(tsS'components'
p14
(tsS'anchors'
p15
(tsss."
LayerCount: 2
Fore
SplineSet
190 627 m 1
 192 702 203 774 219 838 c 1
 42 838 l 1
 61 948 l 1
 254 948 l 1
 379 1278 670 1482 1001 1482 c 0
 1173 1482 1322 1440 1441 1332 c 1
 1349 1202 l 1
 1245 1287 1124 1321 996 1321 c 0
 753 1321 559 1170 461 948 c 1
 975 948 l 1
 954 838 l 1
 422 838 l 1
 405 775 394 703 393 627 c 1
 900 627 l 1
 880 523 l 1
 399 523 l 1
 434 281 607 139 853 139 c 0
 992 139 1136 183 1282 283 c 1
 1328 131 l 1
 1169 25 996 -22 824 -22 c 0
 496 -22 226 166 193 523 c 1
 5 523 l 1
 23 627 l 1
 190 627 l 1
EndSplineSet
EndChar

StartChar: F
Encoding: 70 70 51
Width: 1117
VWidth: 0
Flags: HW
PickledData: "(dp1
S'org.robofab.postScriptHintData'
p2
(dp3
sS'com.typemytype.robofont.layerData'
p4
(dp5
s."
AnchorPoint: "top" 728 1456 basechar 0
LayerCount: 2
Fore
SplineSet
113 0 m 257
 291 1456 l 257
 1131 1456 l 257
 1111 1295 l 257
 462 1295 l 257
 406 837 l 257
 1010 837 l 257
 990 675 l 257
 386 675 l 257
 304 0 l 257
 113 0 l 257
EndSplineSet
EndChar

StartChar: G
Encoding: 71 71 53
Width: 1527
VWidth: 0
Flags: HW
PickledData: "(dp1
S'org.robofab.postScriptHintData'
p2
(dp3
sS'com.typemytype.robofont.layerData'
p4
(dp5
S'b'
(dp6
S'name'
p7
S'G'
sS'lib'
p8
(dp9
sS'unicodes'
p10
(tsS'width'
p11
F1528.2
sS'contours'
p12
((dp13
S'points'
p14
((dp15
S'segmentType'
p16
S'curve'
p17
sS'x'
F841
sS'smooth'
p18
I01
sS'y'
F-23
s(dp19
S'y'
F-23
sS'x'
F361
sg18
I00
s(dp20
S'y'
F267
sS'x'
F108
sg18
I00
s(dp21
g16
S'curve'
p22
sS'x'
F108
sg18
I01
sS'y'
F701
s(dp23
S'y'
F1129
sS'x'
F108
sg18
I00
s(dp24
S'y'
F1483
sS'x'
F382
sg18
I00
s(dp25
g16
S'curve'
p26
sS'x'
F852
sg18
I01
sS'y'
F1483
s(dp27
S'y'
F1483
sS'x'
F1059
sg18
I00
s(dp28
S'y'
F1415
sS'x'
F1233
sg18
I00
s(dp29
g16
S'curve'
p30
sS'x'
F1334
sg18
I00
sS'y'
F1308
s(dp31
g16
S'line'
p32
sS'x'
F1262
sg18
I00
sS'y'
F1196
s(dp33
S'y'
F1291
sS'x'
F1164
sg18
I00
s(dp34
S'y'
F1334
sS'x'
F1034
sg18
I00
s(dp35
g16
S'curve'
p36
sS'x'
F848
sg18
I01
sS'y'
F1334
s(dp37
S'y'
F1334
sS'x'
F477
sg18
I00
s(dp38
S'y'
F1033
sS'x'
F286
sg18
I00
s(dp39
g16
S'curve'
p40
sS'x'
F286
sg18
I01
sS'y'
F714
s(dp41
S'y'
F365
sS'x'
F286
sg18
I00
s(dp42
S'y'
F125
sS'x'
F472
sg18
I00
s(dp43
g16
S'curve'
p44
sS'x'
F855
sg18
I01
sS'y'
F125
s(dp45
S'y'
F125
sS'x'
F968
sg18
I00
s(dp46
S'y'
F143
sS'x'
F1088
sg18
I00
s(dp47
g16
S'curve'
p48
sS'x'
F1184
sg18
I00
sS'y'
F182
s(dp49
g16
S'line'
p50
sS'x'
F1184
sg18
I00
sS'y'
F608
s(dp51
g16
S'line'
p52
sS'x'
F811
sg18
I00
sS'y'
F608
s(dp53
g16
S'line'
p54
sS'x'
F811
sg18
I00
sS'y'
F757
s(dp55
g16
S'line'
p56
sS'x'
F1356
sg18
I00
sS'y'
F757
s(dp57
g16
S'line'
p58
sS'x'
F1356
sg18
I00
sS'y'
F81
s(dp59
S'y'
F6
sS'x'
F1195
sg18
I00
s(dp60
S'y'
F-23
sS'x'
F1012
sg18
I00
stp61
stp62
sS'components'
p63
(tsS'anchors'
p64
(tsss."
AnchorPoint: "top" 922 1456 basechar 0
LayerCount: 2
Fore
SplineSet
937 1321 m 256
 573 1321 297 1020 297 608 c 0
 297 326 453 139 779 139 c 256
 885 139 1008 156 1104 191 c 257
 1154 603 l 257
 787 603 l 257
 807 766 l 257
 1365 766 l 257
 1281 84 l 257
 1105 8 922 -22 752 -22 c 256
 322 -22 97 212 97 580 c 0
 97 620 100 661 105 704 c 256
 161 1156 506 1482 953 1482 c 256
 1146 1482 1296 1433 1415 1336 c 257
 1321 1203 l 257
 1214 1283 1090 1321 937 1321 c 256
EndSplineSet
EndChar

StartChar: H
Encoding: 72 72 60
Width: 1559
VWidth: 0
Flags: HW
PickledData: "(dp1
S'org.robofab.postScriptHintData'
p2
(dp3
sS'com.typemytype.robofont.layerData'
p4
(dp5
S'b'
(dp6
S'name'
p7
S'H'
sS'lib'
p8
(dp9
sS'unicodes'
p10
(tsS'width'
p11
F1576.45
sS'contours'
p12
(tsS'components'
p13
(tsS'anchors'
p14
(tsss."
AnchorPoint: "top" 869 1456 basechar 0
LayerCount: 2
Fore
SplineSet
113 0 m 257
 291 1456 l 257
 483 1456 l 257
 405 827 l 257
 1179 827 l 257
 1256 1456 l 257
 1446 1456 l 257
 1268 0 l 257
 1079 0 l 257
 1160 666 l 257
 387 666 l 257
 305 0 l 257
 113 0 l 257
EndSplineSet
EndChar

StartChar: Hbar
Encoding: 294 294 61
Width: 1566
VWidth: 0
Flags: HW
PickledData: "(dp1
S'org.robofab.postScriptHintData'
p2
(dp3
sS'com.typemytype.robofont.layerData'
p4
(dp5
S'b'
(dp6
S'name'
p7
S'Hbar'
p8
sS'lib'
p9
(dp10
sS'unicodes'
p11
(tsS'width'
p12
F1532.55
sS'contours'
p13
(tsS'components'
p14
(tsS'anchors'
p15
(tsss."
LayerCount: 2
Fore
SplineSet
151 1161 m 257
 164 1269 l 257
 1528 1269 l 257
 1515 1161 l 257
 151 1161 l 257
EndSplineSet
Refer: 60 72 N 1 0 0 1 0 0 2
EndChar

StartChar: I
Encoding: 73 73 63
Width: 602
VWidth: 0
Flags: HW
PickledData: "(dp1
S'org.robofab.postScriptHintData'
p2
(dp3
sS'com.typemytype.robofont.layerData'
p4
(dp5
s."
AnchorPoint: "top" 410 1456 basechar 0
LayerCount: 2
Fore
SplineSet
129 0 m 257
 307 1456 l 257
 498 1456 l 257
 320 0 l 257
 129 0 l 257
EndSplineSet
EndChar

StartChar: J
Encoding: 74 74 77
Width: 786
VWidth: 0
Flags: HW
PickledData: "(dp1
S'org.robofab.postScriptHintData'
p2
(dp3
sS'com.typemytype.robofont.layerData'
p4
(dp5
S'b'
(dp6
S'name'
p7
S'J'
sS'lib'
p8
(dp9
sS'unicodes'
p10
(tsS'width'
p11
F731.54999999999995
sS'contours'
p12
(tsS'components'
p13
(tsS'anchors'
p14
(tsss."
AnchorPoint: "top" 598 1456 basechar 0
LayerCount: 2
Fore
SplineSet
119 -326 m 256
 33 -326 -50 -305 -111 -284 c 257
 -66 -134 l 257
 -16 -149 48 -165 114 -165 c 256
 267 -165 318 -78 342 120 c 258
 506 1456 l 257
 698 1456 l 257
 533 121 l 258
 495 -193 354 -326 119 -326 c 256
EndSplineSet
EndChar

StartChar: K
Encoding: 75 75 79
Width: 1296
VWidth: 0
Flags: HW
PickledData: "(dp1
S'org.robofab.postScriptHintData'
p2
(dp3
sS'com.typemytype.robofont.layerData'
p4
(dp5
S'b'
(dp6
S'name'
p7
S'K'
sS'lib'
p8
(dp9
sS'unicodes'
p10
(tsS'width'
p11
F1289.95
sS'contours'
p12
(tsS'components'
p13
(tsS'anchors'
p14
(tsss."
AnchorPoint: "top" 760 1456 basechar 0
LayerCount: 2
Fore
SplineSet
113 0 m 257
 291 1456 l 257
 482 1456 l 257
 402 800 l 257
 1109 1456 l 257
 1346 1456 l 257
 587 755 l 257
 1216 0 l 257
 974 0 l 257
 389 692 l 257
 304 0 l 257
 113 0 l 257
EndSplineSet
EndChar

StartChar: L
Encoding: 76 76 82
Width: 1109
VWidth: 0
Flags: HW
PickledData: "(dp1
S'org.robofab.postScriptHintData'
p2
(dp3
sS'com.typemytype.robofont.layerData'
p4
(dp5
s."
AnchorPoint: "caron.alt" 350 1026 basechar 0
AnchorPoint: "top" 400 1456 basechar 0
LayerCount: 2
Fore
SplineSet
113 0 m 257
 291 1456 l 257
 482 1456 l 257
 323 161 l 257
 1000 161 l 257
 981 0 l 257
 113 0 l 257
EndSplineSet
EndChar

StartChar: Lslash
Encoding: 321 321 88
Width: 1131
VWidth: 0
Flags: HW
PickledData: "(dp1
S'org.robofab.postScriptHintData'
p2
(dp3
sS'com.typemytype.robofont.layerData'
p4
(dp5
s."
LayerCount: 2
Fore
SplineSet
20 472 m 257
 40 631 l 257
 727 1038 l 257
 708 879 l 257
 20 472 l 257
EndSplineSet
Refer: 82 76 N 1 0 0 1 0 0 2
EndChar

StartChar: M
Encoding: 77 77 89
Width: 1923
VWidth: 0
Flags: HW
PickledData: "(dp1
S'org.robofab.postScriptHintData'
p2
(dp3
sS'com.typemytype.robofont.layerData'
p4
(dp5
S'b'
(dp6
S'name'
p7
S'M'
sS'lib'
p8
(dp9
sS'unicodes'
p10
(tsS'width'
p11
F1905.0999999999999
sS'contours'
p12
(tsS'components'
p13
(tsS'anchors'
p14
(tsss."
AnchorPoint: "top" 1057 1456 basechar 0
LayerCount: 2
Fore
SplineSet
113 0 m 257
 291 1456 l 257
 523 1456 l 257
 649 1053 781 654 903 247 c 257
 1127 653 1357 1053 1583 1456 c 257
 1810 1456 l 257
 1632 0 l 257
 1450 0 l 257
 1591 1145 l 257
 1376 762 1158 382 941 0 c 257
 804 0 l 257
 491 973 l 257
 439 1153 l 257
 297 0 l 257
 113 0 l 257
EndSplineSet
EndChar

StartChar: N
Encoding: 78 78 91
Width: 1598
VWidth: 0
Flags: HW
PickledData: "(dp1
S'org.robofab.postScriptHintData'
p2
(dp3
sS'com.typemytype.robofont.layerData'
p4
(dp5
S'b'
(dp6
S'name'
p7
S'N'
sS'lib'
p8
(dp9
sS'unicodes'
p10
(tsS'width'
p11
F1578.1500000000001
sS'contours'
p12
(tsS'components'
p13
(tsS'anchors'
p14
(tsss."
AnchorPoint: "top" 898 1456 basechar 0
LayerCount: 2
Fore
SplineSet
113 0 m 257
 291 1456 l 257
 494 1456 l 257
 1071 432 l 257
 1157 262 l 257
 1304 1456 l 257
 1486 1456 l 257
 1308 0 l 257
 1104 0 l 257
 540 986 l 257
 438 1186 l 257
 292 0 l 257
 113 0 l 257
EndSplineSet
EndChar

StartChar: O
Encoding: 79 79 98
Width: 1626
VWidth: 0
Flags: HW
PickledData: "(dp1
S'org.robofab.postScriptHintData'
p2
(dp3
sS'com.typemytype.robofont.guides'
p4
((dp5
S'y'
I727
sS'x'
I231
sS'magnetic'
p6
I5
sS'angle'
p7
I0
sS'isGlobal'
p8
I00
s(dp9
S'y'
I1254
sS'x'
I804
sg6
I5
sg7
F90
sg8
I00
stp10
sS'com.typemytype.robofont.layerData'
p11
(dp12
S'b'
(dp13
S'name'
p14
S'O'
sS'lib'
p15
(dp16
sS'unicodes'
p17
(tsS'width'
p18
F1630.8
sS'contours'
p19
(tsS'components'
p20
(tsS'anchors'
p21
(tsss."
AnchorPoint: "top" 906 1456 basechar 0
LayerCount: 2
Fore
SplineSet
888 1321 m 257
 529 1321 303 1021 303 609 c 0
 303 320 450 139 741 139 c 256
 1074 139 1268 372 1312 729 c 256
 1317 770 1320 811 1320 849 c 0
 1320 1131 1179 1321 888 1321 c 257
724 -22 m 256
 325 -22 99 217 99 598 c 0
 99 640 101 684 107 729 c 256
 161 1175 463 1482 910 1482 c 256
 1299 1482 1527 1234 1527 857 c 0
 1527 816 1525 773 1519 729 c 256
 1464 273 1164 -22 724 -22 c 256
EndSplineSet
EndChar

StartChar: OE
Encoding: 338 338 99
Width: 2049
VWidth: 0
Flags: HW
PickledData: "(dp1
S'org.robofab.postScriptHintData'
p2
(dp3
sS'com.typemytype.robofont.layerData'
p4
(dp5
S'b'
(dp6
S'name'
p7
S'OE'
p8
sS'lib'
p9
(dp10
sS'unicodes'
p11
(tsS'width'
p12
F2049.1500000000001
sS'contours'
p13
(tsS'components'
p14
(tsS'anchors'
p15
(tsss."
LayerCount: 2
Fore
SplineSet
1052 94 m 257
 1002 46 870 -22 697 -22 c 0
 321 -22 98 207 98 592 c 0
 98 1121 445 1483 897 1483 c 0
 1070 1483 1172 1422 1210 1381 c 257
 1219 1456 l 257
 2030 1456 l 257
 2010 1291 l 257
 1391 1291 l 257
 1334 829 l 257
 1914 829 l 257
 1894 663 l 257
 1314 663 l 257
 1253 165 l 257
 1902 165 l 257
 1881 0 l 257
 1040 0 l 257
 1052 94 l 257
741 132 m 0
 918 132 1024 203 1071 254 c 257
 1189 1212 l 257
 1143 1266 1053 1320 903 1320 c 0
 543 1320 304 1025 304 611 c 0
 304 330 444 132 741 132 c 0
EndSplineSet
EndChar

StartChar: Omega
Encoding: 937 937 111
Width: 1603
VWidth: 0
Flags: HW
PickledData: "(dp1
S'org.robofab.postScriptHintData'
p2
(dp3
sS'com.typemytype.robofont.layerData'
p4
(dp5
s."
LayerCount: 2
Fore
SplineSet
868 1308 m 256
 555 1308 306 1059 306 689 c 0
 306 461 410 250 576 133 c 257
 559 0 l 257
 11 0 l 257
 8 144 l 257
 341 144 l 257
 201 267 108 470 108 696 c 0
 108 730 110 763 114 798 c 256
 164 1208 494 1470 892 1470 c 256
 1270 1470 1489 1226 1489 892 c 0
 1489 860 1487 827 1483 793 c 256
 1449 519 1267 278 1090 144 c 257
 1403 144 l 257
 1371 0 l 257
 839 0 l 257
 855 133 l 257
 1072 269 1250 514 1282 776 c 256
 1286 806 1288 836 1288 865 c 0
 1288 1112 1153 1308 868 1308 c 256
EndSplineSet
EndChar

StartChar: Oslash
Encoding: 216 216 113
Width: 1626
VWidth: 0
Flags: HW
PickledData: "(dp1
S'org.robofab.postScriptHintData'
p2
(dp3
sS'com.typemytype.robofont.layerData'
p4
(dp5
S'b'
(dp6
S'name'
p7
S'Oslash'
p8
sS'lib'
p9
(dp10
sS'unicodes'
p11
(tsS'width'
p12
F1663
sS'contours'
p13
(tsS'components'
p14
(tsS'anchors'
p15
(tsss."
LayerCount: 2
Fore
SplineSet
318 -131 m 1
 231 -83 l 1
 339 81 l 1
 183 186 99 365 99 598 c 0
 99 640 101 684 107 729 c 0
 161 1175 463 1482 910 1482 c 0
 1028 1482 1132 1459 1219 1416 c 1
 1321 1572 l 1
 1407 1525 l 1
 1302 1366 l 1
 1448 1258 1527 1080 1527 857 c 0
 1527 816 1525 773 1519 729 c 0
 1464 273 1164 -22 724 -22 c 0
 610 -22 510 -2 426 34 c 1
 318 -131 l 1
741 139 m 0
 1074 139 1268 372 1312 729 c 0
 1317 770 1320 811 1320 849 c 0
 1320 1000 1280 1124 1198 1207 c 1
 524 183 l 1
 584 154 657 139 741 139 c 0
888 1321 m 0
 529 1321 303 1021 303 609 c 0
 303 447 350 318 442 237 c 1
 1120 1267 l 1
 1058 1302 980 1321 888 1321 c 0
EndSplineSet
EndChar

StartChar: P
Encoding: 80 80 116
Width: 1260
VWidth: 0
Flags: HW
PickledData: "(dp1
S'org.robofab.postScriptHintData'
p2
(dp3
sS'com.typemytype.robofont.layerData'
p4
(dp5
S'b'
(dp6
S'name'
p7
S'P'
sS'lib'
p8
(dp9
sS'unicodes'
p10
(tsS'width'
p11
F1252.6500000000001
sS'contours'
p12
((dp13
S'points'
p14
((dp15
S'segmentType'
p16
S'line'
p17
sS'x'
F360
sS'smooth'
p18
I00
sS'y'
F828
s(dp19
g16
S'line'
p20
sS'x'
F580
sg18
I01
sS'y'
F828
s(dp21
S'y'
F828
sS'x'
F775
sg18
I00
s(dp22
S'y'
F881
sS'x'
F973
sg18
I00
s(dp23
g16
S'curve'
p24
sS'x'
F973
sg18
I01
sS'y'
F1077
s(dp25
S'y'
F1272
sS'x'
F973
sg18
I00
s(dp26
S'y'
F1308
sS'x'
F807
sg18
I00
s(dp27
g16
S'curve'
p28
sS'x'
F592
sg18
I01
sS'y'
F1308
s(dp29
g16
S'line'
p30
sS'x'
F360
sg18
I00
sS'y'
F1308
stp31
s(dp32
g14
((dp33
g16
S'line'
p34
sS'x'
F360
sg18
I00
sS'y'
F148
s(dp35
g16
S'line'
p36
sS'x'
F667
sg18
I01
sS'y'
F148
s(dp37
S'y'
F148
sS'x'
F906
sg18
I00
s(dp38
S'y'
F230
sS'x'
F1041
sg18
I00
s(dp39
g16
S'curve'
p40
sS'x'
F1041
sg18
I01
sS'y'
F406
s(dp41
S'y'
F617
sS'x'
F1041
sg18
I00
s(dp42
S'y'
F680
sS'x'
F889
sg18
I00
s(dp43
g16
S'curve'
p44
sS'x'
F610
sg18
I01
sS'y'
F680
s(dp45
g16
S'line'
p46
sS'x'
F360
sg18
I00
sS'y'
F680
stp47
s(dp48
g14
((dp49
g16
S'line'
p50
sS'x'
F188
sg18
I00
sS'y'
F0
s(dp51
g16
S'line'
p52
sS'x'
F188
sg18
I00
sS'y'
F1456
s(dp53
g16
S'line'
p54
sS'x'
F502
sg18
I01
sS'y'
F1456
s(dp55
S'y'
F1456
sS'x'
F765
sg18
I00
s(dp56
S'y'
F1443
sS'x'
F1154
sg18
I00
s(dp57
g16
S'curve'
p58
sS'x'
F1154
sg18
I01
sS'y'
F1105
s(dp59
S'y'
F944
sS'x'
F1154
sg18
I00
s(dp60
S'y'
F814
sS'x'
F1045
sg18
I00
s(dp61
g16
S'curve'
p62
sS'x'
F889
sg18
I00
sS'y'
F769
s(dp63
S'y'
F734
sS'x'
F1086
sg18
I00
s(dp64
S'y'
F605
sS'x'
F1223
sg18
I00
s(dp65
g16
S'curve'
p66
sS'x'
F1223
sg18
I01
sS'y'
F403
s(dp67
S'y'
F189
sS'x'
F1223
sg18
I00
s(dp68
S'y'
F0
sS'x'
F1059
sg18
I00
s(dp69
g16
S'curve'
p70
sS'x'
F739
sg18
I01
sS'y'
F0
stp71
stp72
sS'components'
p73
(tsS'anchors'
p74
(tsss."
AnchorPoint: "top" 736 1456 basechar 0
LayerCount: 2
Fore
SplineSet
1237 1132 m 0
 1237 777 1004 660 652 660 c 258
 384 660 l 257
 304 0 l 257
 113 0 l 257
 291 1456 l 257
 710 1456 l 258
 1025 1456 1237 1402 1237 1132 c 0
670 821 m 258
 904 821 1040 883 1040 1103 c 0
 1040 1261 922 1295 713 1295 c 0
 707 1295 701 1295 695 1295 c 258
 462 1295 l 257
 405 821 l 257
 670 821 l 258
EndSplineSet
EndChar

StartChar: Q
Encoding: 81 81 118
Width: 1626
VWidth: 0
Flags: HW
PickledData: "(dp1
S'org.robofab.postScriptHintData'
p2
(dp3
sS'com.typemytype.robofont.layerData'
p4
(dp5
S'b'
(dp6
S'name'
p7
S'Q'
sS'lib'
p8
(dp9
sS'unicodes'
p10
(tsS'width'
p11
F1628.2
sS'contours'
p12
(tsS'components'
p13
(tsS'anchors'
p14
(tsss."
LayerCount: 2
Fore
SplineSet
888 1321 m 0
 529 1321 303 1021 303 609 c 0
 303 320 450 139 741 139 c 0
 1074 139 1268 372 1312 729 c 0
 1317 770 1320 811 1320 849 c 0
 1320 1131 1179 1321 888 1321 c 0
724 -22 m 0
 325 -22 99 217 99 598 c 0
 99 640 101 684 107 729 c 0
 161 1175 463 1482 910 1482 c 0
 1299 1482 1527 1234 1527 857 c 0
 1527 816 1525 773 1519 729 c 0
 1477 383 1294 129 1015 27 c 1
 1090 -138 1242 -323 1242 -323 c 5
 1105 -428 l 1
 1105 -428 936 -226 843 -14 c 1
 805 -19 765 -22 724 -22 c 0
EndSplineSet
EndChar

StartChar: R
Encoding: 82 82 119
Width: 1362
VWidth: 0
Flags: HW
PickledData: "(dp1
S'org.robofab.postScriptHintData'
p2
(dp3
sS'com.typemytype.robofont.guides'
p4
(tsS'com.typemytype.robofont.layerData'
p5
(dp6
S'b'
(dp7
S'name'
p8
S'R'
sS'lib'
p9
(dp10
sS'unicodes'
p11
(tsS'width'
p12
F1341
sS'contours'
p13
((dp14
S'points'
p15
((dp16
S'segmentType'
p17
S'line'
p18
sS'x'
F360
sS'smooth'
p19
I00
sS'y'
F799
s(dp20
g17
S'line'
p21
sS'x'
F615
sg19
I01
sS'y'
F799
s(dp22
S'y'
F799
sS'x'
F795
sg19
I00
s(dp23
S'y'
F854
sS'x'
F932
sg19
I00
s(dp24
g17
S'curve'
p25
sS'x'
F932
sg19
I01
sS'y'
F1058
s(dp26
S'y'
F1259
sS'x'
F932
sg19
I00
s(dp27
S'y'
F1308
sS'x'
F833
sg19
I00
s(dp28
g17
S'curve'
p29
sS'x'
F626
sg19
I01
sS'y'
F1308
s(dp30
g17
S'line'
p31
sS'x'
F360
sg19
I00
sS'y'
F1308
stp32
s(dp33
g15
((dp34
g17
S'line'
p35
sS'x'
F188
sg19
I00
sS'y'
F0
s(dp36
g17
S'line'
p37
sS'x'
F188
sg19
I00
sS'y'
F1456
s(dp38
g17
S'line'
p39
sS'x'
F533
sg19
I01
sS'y'
F1456
s(dp40
S'y'
F1456
sS'x'
F771
sg19
I00
s(dp41
S'y'
F1452
sS'x'
F1114
sg19
I00
s(dp42
g17
S'curve'
p43
sS'x'
F1114
sg19
I01
sS'y'
F1074
s(dp44
S'y'
F890
sS'x'
F1114
sg19
I00
s(dp45
S'y'
F762
sS'x'
F1035
sg19
I00
s(dp46
g17
S'curve'
p47
sS'x'
F847
sg19
I00
sS'y'
F715
s(dp48
g17
S'line'
p49
sS'x'
F848
sg19
I00
sS'y'
F715
s(dp50
S'y'
F662
sS'x'
F1012
sg19
I00
s(dp51
S'y'
F510
sS'x'
F1039
sg19
I00
s(dp52
g17
S'curve'
p53
sS'x'
F1159
sg19
I01
sS'y'
F214
s(dp54
g17
S'line'
p55
sS'x'
F1246
sg19
I00
sS'y'
F0
s(dp56
g17
S'line'
p57
sS'x'
F1061
sg19
I00
sS'y'
F0
s(dp58
g17
S'line'
p59
sS'x'
F896
sg19
I01
sS'y'
F419
s(dp60
S'y'
F600
sS'x'
F825
sg19
I00
s(dp61
S'y'
F652
sS'x'
F797
sg19
I00
s(dp62
g17
S'curve'
p63
sS'x'
F619
sg19
I01
sS'y'
F652
s(dp64
g17
S'line'
p65
sS'x'
F360
sg19
I00
sS'y'
F652
s(dp66
g17
S'line'
p67
sS'x'
F360
sg19
I00
sS'y'
F0
stp68
stp69
sS'components'
p70
(tsS'anchors'
p71
(tsss."
AnchorPoint: "top" 741 1456 basechar 0
LayerCount: 2
Fore
SplineSet
1215 1141 m 0
 1215 918 1107 763 883 718 c 257
 998 680 1037 584 1075 440 c 258
 1193 0 l 257
 989 0 l 257
 882 428 l 258
 839 599 804 647 644 647 c 258
 383 647 l 257
 304 0 l 257
 113 0 l 257
 291 1456 l 257
 757 1456 l 258
 1016 1456 1215 1397 1215 1141 c 0
672 808 m 258
 869 808 1012 885 1012 1112 c 0
 1012 1253 926 1295 752 1295 c 0
 748 1295 745 1295 741 1295 c 258
 461 1295 l 257
 401 808 l 257
 672 808 l 258
EndSplineSet
EndChar

StartChar: S
Encoding: 83 83 125
Width: 1214
VWidth: 0
Flags: HW
PickledData: "(dp1
S'org.robofab.postScriptHintData'
p2
(dp3
sS'com.typemytype.robofont.layerData'
p4
(dp5
S'b'
(dp6
S'name'
p7
S'S'
sS'lib'
p8
(dp9
sS'unicodes'
p10
(tsS'width'
p11
F1211
sS'contours'
p12
((dp13
S'points'
p14
((dp15
S'segmentType'
p16
S'curve'
p17
sS'x'
F596
sS'smooth'
p18
I01
sS'y'
F-23
s(dp19
S'y'
F-23
sS'x'
F321
sg18
I00
s(dp20
S'y'
F120
sS'x'
F158
sg18
I00
s(dp21
g16
S'curve'
p22
sS'x'
F140
sg18
I00
sS'y'
F141
s(dp23
g16
S'line'
p24
sS'x'
F219
sg18
I00
sS'y'
F271
s(dp25
S'y'
F243
sS'x'
F256
sg18
I00
s(dp26
S'y'
F125
sS'x'
F393
sg18
I00
s(dp27
g16
S'curve'
p28
sS'x'
F595
sg18
I01
sS'y'
F125
s(dp29
S'y'
F125
sS'x'
F797
sg18
I00
s(dp30
S'y'
F204
sS'x'
F898
sg18
I00
s(dp31
g16
S'curve'
p32
sS'x'
F898
sg18
I01
sS'y'
F360
s(dp33
S'y'
F536
sS'x'
F898
sg18
I00
s(dp34
S'y'
F601
sS'x'
F709
sg18
I00
s(dp35
g16
S'curve'
p36
sS'x'
F521
sg18
I01
sS'y'
F681
s(dp37
S'y'
F761
sS'x'
F333
sg18
I00
s(dp38
S'y'
F857
sS'x'
F145
sg18
I00
s(dp39
g16
S'curve'
p40
sS'x'
F145
sg18
I01
sS'y'
F1095
s(dp41
S'y'
F1350
sS'x'
F145
sg18
I00
s(dp42
S'y'
F1483
sS'x'
F357
sg18
I00
s(dp43
g16
S'curve'
p44
sS'x'
F620
sg18
I01
sS'y'
F1483
s(dp45
S'y'
F1483
sS'x'
F891
sg18
I00
s(dp46
S'y'
F1362
sS'x'
F1009
sg18
I00
s(dp47
g16
S'curve'
p48
sS'x'
F1034
sg18
I00
sS'y'
F1335
s(dp49
g16
S'line'
p50
sS'x'
F951
sg18
I00
sS'y'
F1217
s(dp51
S'y'
F1242
sS'x'
F921
sg18
I00
s(dp52
S'y'
F1334
sS'x'
F819
sg18
I00
s(dp53
g16
S'curve'
p54
sS'x'
F640
sg18
I01
sS'y'
F1334
s(dp55
S'y'
F1334
sS'x'
F478
sg18
I00
s(dp56
S'y'
F1270
sS'x'
F328
sg18
I00
s(dp57
g16
S'curve'
p58
sS'x'
F328
sg18
I01
sS'y'
F1105
s(dp59
S'y'
F934
sS'x'
F328
sg18
I00
s(dp60
S'y'
F868
sS'x'
F515
sg18
I00
s(dp61
g16
S'curve'
p62
sS'x'
F703
sg18
I01
sS'y'
F785
s(dp63
S'y'
F702
sS'x'
F891
sg18
I00
s(dp64
S'y'
F602
sS'x'
F1078
sg18
I00
s(dp65
g16
S'curve'
p66
sS'x'
F1078
sg18
I01
sS'y'
F364
s(dp67
S'y'
F78
sS'x'
F1078
sg18
I00
s(dp68
S'y'
F-23
sS'x'
F868
sg18
I00
stp69
stp70
sS'components'
p71
(tsS'anchors'
p72
(tsss."
AnchorPoint: "top" 712 1456 basechar 0
LayerCount: 2
Fore
SplineSet
1064 463 m 0
 1064 131 815 -22 516 -22 c 256
 271 -22 108 86 57 142 c 257
 159 280 l 257
 215 229 356 139 528 139 c 256
 742 139 864 243 864 435 c 0
 864 537 809 591 614 655 c 256
 597 661 548 674 527 681 c 256
 299 750 176 838 176 1031 c 0
 176 1334 413 1482 709 1482 c 256
 978 1482 1084 1392 1140 1330 c 257
 1029 1201 l 257
 975 1259 866 1321 712 1321 c 256
 515 1321 379 1240 379 1051 c 0
 379 952 430 908 598 853 c 256
 615 848 661 834 681 829 c 256
 967 741 1064 643 1064 463 c 0
EndSplineSet
EndChar

StartChar: T
Encoding: 84 84 132
Width: 1145
VWidth: 0
Flags: HW
PickledData: "(dp1
S'org.robofab.postScriptHintData'
p2
(dp3
sS'com.typemytype.robofont.layerData'
p4
(dp5
s."
AnchorPoint: "top" 660 1456 basechar 0
LayerCount: 2
Fore
SplineSet
386 0 m 257
 544 1295 l 257
 79 1295 l 257
 99 1456 l 257
 1223 1456 l 257
 1204 1295 l 257
 735 1295 l 257
 577 0 l 257
 386 0 l 257
EndSplineSet
EndChar

StartChar: Thorn
Encoding: 222 222 137
Width: 1280
VWidth: 0
Flags: HW
PickledData: "(dp1
S'org.robofab.postScriptHintData'
p2
(dp3
sS'com.typemytype.robofont.layerData'
p4
(dp5
s."
LayerCount: 2
Fore
SplineSet
1216 855 m 0
 1216 490 937 347 596 347 c 258
 345 347 l 257
 302 0 l 257
 111 0 l 257
 289 1456 l 257
 480 1456 l 257
 450 1212 l 257
 657 1212 l 258
 971 1212 1216 1151 1216 855 c 0
621 508 m 258
 846 508 1009 601 1009 827 c 0
 1009 1006 872 1051 650 1051 c 258
 431 1051 l 257
 364 508 l 257
 621 508 l 258
EndSplineSet
EndChar

StartChar: U
Encoding: 85 85 138
Width: 1495
VWidth: 0
Flags: HW
PickledData: "(dp1
S'org.robofab.postScriptHintData'
p2
(dp3
sS'com.typemytype.robofont.layerData'
p4
(dp5
S'b'
(dp6
S'name'
p7
S'U'
sS'lib'
p8
(dp9
sS'unicodes'
p10
(tsS'width'
p11
F1496.9000000000001
sS'contours'
p12
(tsS'components'
p13
(tsS'anchors'
p14
(tsss."
AnchorPoint: "top" 838 1456 basechar 0
LayerCount: 2
Fore
SplineSet
653 -22 m 256
 275 -22 142 167 142 438 c 0
 142 477 145 518 150 560 c 258
 261 1456 l 257
 452 1456 l 257
 341 556 l 258
 337 522 335 490 335 461 c 0
 335 239 453 139 675 139 c 256
 919 139 1077 265 1112 552 c 258
 1223 1456 l 257
 1413 1456 l 257
 1303 562 l 258
 1260 218 1073 -22 653 -22 c 256
EndSplineSet
EndChar

StartChar: V
Encoding: 86 86 152
Width: 1348
VWidth: 0
Flags: HW
PickledData: "(dp1
S'org.robofab.postScriptHintData'
p2
(dp3
sS'com.typemytype.robofont.layerData'
p4
(dp5
S'b'
(dp6
S'name'
p7
S'V'
sS'lib'
p8
(dp9
sS'unicodes'
p10
(tsS'width'
p11
F1320.1500000000001
sS'contours'
p12
(tsS'components'
p13
(tsS'anchors'
p14
(tsss."
LayerCount: 2
Fore
SplineSet
487 0 m 257
 119 1456 l 257
 332 1456 l 257
 427 1047 520 635 618 228 c 257
 812 639 1010 1047 1206 1456 c 257
 1407 1456 l 257
 687 0 l 257
 487 0 l 257
EndSplineSet
EndChar

StartChar: W
Encoding: 87 87 153
Width: 2022
VWidth: 0
Flags: HW
PickledData: "(dp1
S'org.robofab.postScriptHintData'
p2
(dp3
sS'com.typemytype.robofont.layerData'
p4
(dp5
S'b'
(dp6
S'name'
p7
S'W'
sS'lib'
p8
(dp9
sS'unicodes'
p10
(tsS'width'
p11
F1988.8499999999999
sS'contours'
p12
(tsS'components'
p13
(tsS'anchors'
p14
(tsss."
AnchorPoint: "top" 1111 1456 basechar 0
LayerCount: 2
Fore
SplineSet
351 0 m 257
 131 1456 l 257
 336 1456 l 257
 470 452 l 257
 495 217 l 257
 661 636 840 1043 1012 1456 c 257
 1203 1456 l 257
 1384 445 l 257
 1421 220 l 257
 1566 638 1722 1044 1872 1456 c 257
 2069 1456 l 257
 1504 0 l 257
 1281 0 l 257
 1073 1199 l 257
 571 0 l 257
 351 0 l 257
EndSplineSet
EndChar

StartChar: X
Encoding: 88 88 158
Width: 1302
VWidth: 0
Flags: HW
PickledData: "(dp1
S'org.robofab.postScriptHintData'
p2
(dp3
sS'com.typemytype.robofont.layerData'
p4
(dp5
S'b'
(dp6
S'name'
p7
S'X'
sS'lib'
p8
(dp9
sS'unicodes'
p10
(tsS'width'
p11
F1257.7
sS'contours'
p12
(tsS'components'
p13
(tsS'anchors'
p14
(tsss."
LayerCount: 2
Fore
SplineSet
-54 0 m 257
 546 740 l 257
 146 1456 l 257
 377 1456 l 257
 682 896 l 257
 1126 1456 l 257
 1343 1456 l 257
 772 747 l 257
 1183 0 l 257
 956 0 l 257
 638 589 l 257
 167 0 l 257
 -54 0 l 257
EndSplineSet
EndChar

StartChar: Y
Encoding: 89 89 159
Width: 1239
VWidth: 0
Flags: HW
PickledData: "(dp1
S'org.robofab.postScriptHintData'
p2
(dp3
sS'com.typemytype.robofont.layerData'
p4
(dp5
S'b'
(dp6
S'name'
p7
S'Y'
sS'lib'
p8
(dp9
sS'unicodes'
p10
(tsS'width'
p11
F1225.45
sS'contours'
p12
(tsS'components'
p13
(tsS'anchors'
p14
(tsss."
AnchorPoint: "top" 729 1456 basechar 0
LayerCount: 2
Fore
SplineSet
433 0 m 257
 504 575 l 257
 110 1456 l 257
 322 1456 l 257
 624 743 l 257
 1102 1456 l 257
 1315 1456 l 257
 695 578 l 257
 625 0 l 257
 433 0 l 257
EndSplineSet
EndChar

StartChar: Z
Encoding: 90 90 166
Width: 1185
VWidth: 0
Flags: HW
PickledData: "(dp1
S'org.robofab.postScriptHintData'
p2
(dp3
sS'com.typemytype.robofont.layerData'
p4
(dp5
S'b'
(dp6
S'name'
p7
S'Z'
sS'lib'
p8
(dp9
sS'unicodes'
p10
(tsS'width'
p11
F1179.45
sS'contours'
p12
(tsS'components'
p13
(tsS'anchors'
p14
(tsss."
AnchorPoint: "top" 699 1456 basechar 0
LayerCount: 2
Fore
SplineSet
8 0 m 257
 21 103 l 257
 905 1295 l 257
 197 1295 l 257
 217 1456 l 257
 1180 1456 l 257
 1168 1357 l 257
 277 161 l 257
 1017 161 l 257
 998 0 l 257
 8 0 l 257
EndSplineSet
EndChar

StartChar: a
Encoding: 97 97 170
Width: 1273
VWidth: 0
Flags: HW
PickledData: "(dp1
S'org.robofab.postScriptHintData'
p2
(dp3
sS'com.typemytype.robofont.layerData'
p4
(dp5
S'b'
(dp6
S'name'
p7
S'a'
sS'lib'
p8
(dp9
sS'unicodes'
p10
(tsS'width'
p11
I1268
sS'contours'
p12
((dp13
S'points'
p14
((dp15
S'segmentType'
p16
S'curve'
p17
sS'x'
F595
sS'smooth'
p18
I01
sS'y'
F-22
s(dp19
S'y'
F-22
sS'x'
F262
sg18
I00
s(dp20
S'y'
F221
sS'x'
F100
sg18
I00
s(dp21
g16
S'curve'
p22
sS'x'
F100
sg18
I01
sS'y'
F518
s(dp23
S'y'
F824
sS'x'
F100
sg18
I00
s(dp24
S'y'
F1052
sS'x'
F287
sg18
I00
s(dp25
g16
S'curve'
p26
sS'x'
F603
sg18
I01
sS'y'
F1052
s(dp27
S'y'
F1052
sS'x'
F816
sg18
I00
s(dp28
S'y'
F903
sS'x'
F905
sg18
I00
s(dp29
g16
S'curve'
p30
sS'x'
F928
sg18
I00
sS'y'
F847
s(dp31
g16
S'line'
p32
sS'x'
F928
sg18
I00
sS'y'
F1026
s(dp33
g16
S'line'
p34
sS'x'
F1092
sg18
I00
sS'y'
F1026
s(dp35
g16
S'line'
p36
sS'x'
F1092
sg18
I00
sS'y'
F0
s(dp37
g16
S'line'
p38
sS'x'
F928
sg18
I00
sS'y'
F0
s(dp39
g16
S'line'
p40
sS'x'
F928
sg18
I00
sS'y'
F185
s(dp41
S'y'
F82
sS'x'
F881
sg18
I00
s(dp42
S'y'
F-22
sS'x'
F769
sg18
I00
stp43
s(dp44
g14
((dp45
g16
S'curve'
p46
sS'x'
F608
sg18
I01
sS'y'
F918
s(dp47
S'y'
F918
sS'x'
F359
sg18
I00
s(dp48
S'y'
F725
sS'x'
F270
sg18
I00
s(dp49
g16
S'curve'
p50
sS'x'
F270
sg18
I01
sS'y'
F516
s(dp51
S'y'
F308
sS'x'
F270
sg18
I00
s(dp52
S'y'
F112
sS'x'
F364
sg18
I00
s(dp53
g16
S'curve'
p54
sS'x'
F609
sg18
I01
sS'y'
F112
s(dp55
S'y'
F112
sS'x'
F813
sg18
I00
s(dp56
S'y'
F277
sS'x'
F934
sg18
I00
s(dp57
g16
S'curve'
p58
sS'x'
F934
sg18
I01
sS'y'
F526
s(dp59
S'y'
F734
sS'x'
F934
sg18
I00
s(dp60
S'y'
F918
sS'x'
F826
sg18
I00
stp61
stp62
sS'components'
p63
(tsS'anchors'
p64
(tsss."
AnchorPoint: "top" 656 1026 basechar 0
LayerCount: 2
Fore
SplineSet
523 -22 m 256
 239 -22 95 178 95 429 c 0
 95 456 97 485 100 513 c 256
 137 811 354 1052 655 1052 c 256
 805 1052 920 970 966 863 c 257
 986 1026 l 257
 1168 1026 l 257
 1042 0 l 257
 858 0 l 257
 880 175 l 257
 806 55 677 -22 523 -22 c 256
660 902 m 257
 418 902 282 702 282 442 c 0
 282 261 371 128 568 128 c 256
 778 128 902 288 930 521 c 256
 933 547 935 571 935 595 c 0
 935 774 845 902 660 902 c 257
EndSplineSet
EndChar

StartChar: acute
Encoding: 180 180 175
Width: 607
VWidth: 0
Flags: HW
PickledData: "(dp1
S'org.robofab.postScriptHintData'
p2
(dp3
s."
AnchorPoint: "top" 101 1026 mark 0
LayerCount: 2
Fore
SplineSet
51 1172 m 257
 330 1532 l 257
 568 1532 l 257
 205 1172 l 257
 51 1172 l 257
EndSplineSet
EndChar

StartChar: ae
Encoding: 230 230 179
Width: 1791
VWidth: 0
Flags: HW
PickledData: "(dp1
S'org.robofab.postScriptHintData'
p2
(dp3
sS'com.typemytype.robofont.layerData'
p4
(dp5
S'b'
(dp6
S'name'
p7
S'ae'
p8
sS'lib'
p9
(dp10
sS'unicodes'
p11
(tsS'width'
p12
F1790.05
sS'contours'
p13
(tsS'components'
p14
((dp15
S'transformation'
p16
(I1
I0
I0
I1
I642
I0
tp17
sS'baseGlyph'
p18
S'e'
stp19
sS'anchors'
p20
(tsss."
AnchorPoint: "top" 965 1026 basechar 0
LayerCount: 2
Fore
SplineSet
1219 -22 m 0
 1033 -22 896 74 845 226 c 257
 762 84 601 -24 402 -24 c 256
 193 -24 55 73 55 243 c 0
 55 256 56 271 58 285 c 256
 93 571 348 615 733 615 c 258
 802 615 l 257
 804 634 805 652 805 669 c 0
 805 809 729 904 579 904 c 257
 450 904 317 853 247 822 c 257
 208 952 l 257
 236 967 399 1053 623 1053 c 256
 761 1053 903 979 938 840 c 257
 1027 968 1165 1053 1324 1053 c 0
 1575 1053 1701 884 1701 630 c 0
 1701 586 1695 527 1688 486 c 257
 973 486 l 257
 970 459 l 258
 969 442 968 427 968 411 c 0
 968 241 1051 128 1245 128 c 0
 1429 128 1574 239 1574 239 c 257
 1612 105 l 257
 1612 105 1458 -22 1219 -22 c 0
434 126 m 256
 655 126 764 302 787 485 c 257
 635 485 l 258
 426 485 261 446 241 294 c 256
 240 286 240 278 240 271 c 0
 240 166 329 126 434 126 c 256
1543 612 m 257
 1544 620 1544 628 1544 637 c 0
 1544 791 1465 905 1310 905 c 256
 1138 905 1028 765 990 612 c 257
 1543 612 l 257
EndSplineSet
EndChar

StartChar: ampersand
Encoding: 38 38 185
Width: 1536
VWidth: 0
Flags: HW
PickledData: "(dp1
S'org.robofab.postScriptHintData'
p2
(dp3
sS'com.typemytype.robofont.layerData'
p4
(dp5
S'b'
(dp6
S'name'
p7
S'ampersand'
p8
sS'lib'
p9
(dp10
sS'unicodes'
p11
(tsS'width'
p12
F1539.95
sS'contours'
p13
(tsS'components'
p14
(tsS'anchors'
p15
(tsss."
LayerCount: 2
Fore
SplineSet
348 1135 m 0
 348 1362 529 1476 722 1476 c 256
 884 1476 1036 1396 1036 1223 c 0
 1036 1211 1036 1198 1034 1185 c 256
 1014 1029 867 902 713 815 c 257
 1024 423 l 257
 1120 554 1191 735 1212 903 c 257
 1378 875 l 257
 1347 671 1254 450 1127 293 c 257
 1177 234 1281 134 1416 100 c 257
 1281 -9 l 257
 1162 10 1055 118 1008 174 c 257
 886 61 733 -24 537 -24 c 256
 275 -24 87 114 87 352 c 0
 87 371 89 391 91 411 c 256
 119 632 290 744 473 846 c 257
 401 938 348 1024 348 1135 c 0
561 729 m 257
 417 653 279 566 279 377 c 0
 279 236 386 138 555 138 c 256
 710 138 815 201 915 293 c 257
 561 729 l 257
711 1326 m 263
 606 1326 526 1263 526 1140 c 0
 526 1060 559 987 619 920 c 257
 734 986 856 1073 856 1199 c 0
 856 1290 800 1326 711 1326 c 263
EndSplineSet
EndChar

StartChar: approxequal
Encoding: 8776 8776 187
Width: 1351
VWidth: 0
Flags: HW
PickledData: "(dp1
S'org.robofab.postScriptHintData'
p2
(dp3
sS'com.typemytype.robofont.layerData'
p4
(dp5
s."
LayerCount: 2
Fore
SplineSet
317 660 m 257
 183 691 l 257
 240 856 363 959 522 959 c 256
 609 959 679 926 763 872 c 256
 842 823 901 797 947 797 c 256
 1023 797 1080 856 1129 963 c 257
 1255 930 l 257
 1201 768 1091 663 925 663 c 256
 838 663 767 694 666 758 c 256
 607 796 554 825 502 825 c 256
 416 825 358 759 317 660 c 257
266 252 m 257
 135 288 l 257
 197 453 318 555 475 555 c 256
 567 555 649 512 722 469 c 257
 791 433 849 392 899 392 c 256
 976 392 1030 453 1081 558 c 257
 1208 525 l 257
 1151 365 1045 257 877 257 c 256
 796 257 720 291 621 354 c 257
 562 390 507 418 456 418 c 256
 368 418 307 353 266 252 c 257
EndSplineSet
EndChar

StartChar: asciicircum
Encoding: 94 94 190
Width: 1628
VWidth: 0
Flags: HW
PickledData: "(dp1
S'org.robofab.postScriptHintData'
p2
(dp3
sS'com.typemytype.robofont.layerData'
p4
(dp5
S'b'
(dp6
S'name'
p7
S'asciicircum'
p8
sS'lib'
p9
(dp10
sS'unicodes'
p11
(tsS'width'
p12
F1623.3499999999999
sS'contours'
p13
(tsS'components'
p14
(tsS'anchors'
p15
(tsss."
LayerCount: 2
Fore
SplineSet
217 563 m 257
 807 1456 l 257
 922 1456 l 257
 1303 563 l 257
 1124 563 l 257
 839 1256 l 257
 398 563 l 257
 217 563 l 257
EndSplineSet
EndChar

StartChar: asciitilde
Encoding: 126 126 191
Width: 1253
VWidth: 0
Flags: HW
PickledData: "(dp1
S'org.robofab.postScriptHintData'
p2
(dp3
sS'com.typemytype.robofont.layerData'
p4
(dp5
s."
LayerCount: 2
Fore
SplineSet
240 373 m 257
 113 437 l 257
 160 580 269 691 439 691 c 256
 518 691 609 652 690 617 c 257
 746 595 830 554 873 554 c 256
 953 554 1016 641 1049 732 c 257
 1191 687 l 257
 1133 522 1017 402 855 402 c 256
 793 402 714 436 637 472 c 257
 582 495 482 540 424 540 c 256
 328 540 274 467 240 373 c 257
EndSplineSet
EndChar

StartChar: asterisk
Encoding: 42 42 192
Width: 1112
VWidth: 0
Flags: HW
PickledData: "(dp1
S'org.robofab.postScriptHintData'
p2
(dp3
sS'com.typemytype.robofont.guides'
p4
((dp5
S'y'
I1149
sS'x'
I567
sS'magnetic'
p6
I5
sS'angle'
p7
I0
sS'isGlobal'
p8
I00
stp9
sS'com.typemytype.robofont.layerData'
p10
(dp11
S'b'
(dp12
S'name'
p13
S'asterisk'
p14
sS'lib'
p15
(dp16
sS'unicodes'
p17
(tsS'width'
p18
F1107.9000000000001
sS'contours'
p19
(tsS'components'
p20
(tsS'anchors'
p21
(tsss."
LayerCount: 2
Fore
SplineSet
672 711 m 257
 542 974 l 257
 352 716 l 257
 225 806 l 257
 449 1044 l 257
 189 1133 l 257
 261 1275 l 257
 500 1155 l 257
 507 1457 l 257
 677 1457 l 257
 624 1155 l 257
 874 1275 l 257
 925 1133 l 257
 651 1044 l 257
 823 798 l 257
 672 711 l 257
EndSplineSet
EndChar

StartChar: at
Encoding: 64 64 193
Width: 1768
VWidth: 0
Flags: HW
PickledData: "(dp1
S'org.robofab.postScriptHintData'
p2
(dp3
sS'com.typemytype.robofont.layerData'
p4
(dp5
S'b'
(dp6
S'name'
p7
S'at'
p8
sS'lib'
p9
(dp10
sS'unicodes'
p11
(tsS'width'
p12
F1771.2
sS'contours'
p13
(tsS'components'
p14
(tsS'anchors'
p15
(tsss."
LayerCount: 2
Fore
SplineSet
1229 359 m 256
 1367 359 1548 599 1548 880 c 0
 1548 1180 1319 1355 1018 1355 c 256
 644 1355 313 1109 260 676 c 256
 256 642 254 609 254 578 c 0
 254 220 518 34 854 34 c 256
 1035 34 1228 89 1370 194 c 257
 1430 112 l 257
 1284 -20 1054 -88 829 -88 c 256
 398 -88 98 160 98 569 c 0
 98 604 101 640 105 677 c 256
 166 1170 574 1478 1030 1478 c 256
 1414 1478 1677 1241 1677 889 c 0
 1677 552 1445 258 1226 258 c 256
 1116 258 1055 313 1055 413 c 0
 1055 428 1056 445 1059 462 c 257
 1003 353 884 266 743 266 c 256
 599 266 467 368 467 558 c 0
 467 578 469 599 472 622 c 256
 514 920 763 1142 980 1142 c 0
 1089 1142 1170 1093 1183 992 c 257
 1226 1114 l 257
 1381 1114 l 257
 1210 605 l 258
 1184 528 1172 485 1166 443 c 256
 1165 439 1165 434 1165 430 c 0
 1165 393 1184 359 1229 359 c 256
1115 858 m 0
 1115 951 1066 1010 979 1010 c 0
 808 1010 665 794 641 596 c 256
 640 584 639 573 639 562 c 0
 639 467 693 406 781 406 c 256
 937 406 1081 601 1112 816 c 256
 1114 831 1115 845 1115 858 c 0
EndSplineSet
EndChar

StartChar: b
Encoding: 98 98 195
Width: 1274
VWidth: 0
Flags: HW
PickledData: "(dp1
S'org.robofab.postScriptHintData'
p2
(dp3
sS'com.typemytype.robofont.layerData'
p4
(dp5
S'b'
(dp6
S'name'
p7
S'b'
sS'lib'
p8
(dp9
sS'unicodes'
p10
(tsS'width'
p11
F1270.0999999999999
sS'contours'
p12
(tsS'components'
p13
(tsS'anchors'
p14
(tsss."
AnchorPoint: "top" 743 1026 basechar 0
LayerCount: 2
Fore
SplineSet
1152 621 m 0
 1152 235 903 -22 611 -22 c 256
 440 -22 322 68 285 174 c 257
 262 0 l 257
 75 0 l 257
 90 100 109 224 115 270 c 258
 264 1486 l 257
 448 1486 l 257
 370 852 l 257
 425 947 558 1052 746 1052 c 256
 1000 1052 1152 884 1152 621 c 0
699 902 m 256
 476 902 318 709 318 442 c 0
 318 253 420 128 605 128 c 256
 804 128 926 288 955 524 c 256
 958 550 960 574 960 598 c 0
 960 779 870 902 699 902 c 256
EndSplineSet
EndChar

StartChar: backslash
Encoding: 92 92 196
Width: 834
VWidth: 0
Flags: HW
PickledData: "(dp1
S'org.robofab.postScriptHintData'
p2
(dp3
sS'com.typemytype.robofont.layerData'
p4
(dp5
s."
LayerCount: 2
Fore
SplineSet
524 13 m 257
 141 1456 l 257
 309 1456 l 257
 696 13 l 257
 524 13 l 257
EndSplineSet
EndChar

StartChar: bar
Encoding: 124 124 197
Width: 950
VWidth: 0
Flags: HW
PickledData: "(dp1
S'org.robofab.postScriptHintData'
p2
(dp3
sS'com.typemytype.robofont.layerData'
p4
(dp5
s."
LayerCount: 2
Fore
SplineSet
263 -482 m 257
 511 1535 l 257
 687 1535 l 257
 439 -482 l 257
 263 -482 l 257
EndSplineSet
EndChar

StartChar: braceleft
Encoding: 123 123 199
Width: 789
VWidth: 0
Flags: HW
PickledData: "(dp1
S'org.robofab.postScriptHintData'
p2
(dp3
sS'com.typemytype.robofont.layerData'
p4
(dp5
s."
LayerCount: 2
Fore
SplineSet
566 1130 m 258
 534 868 l 258
 518 737 431 658 329 624 c 257
 417 586 474 509 474 397 c 0
 474 383 473 369 471 354 c 258
 439 98 l 258
 437 82 436 67 436 54 c 0
 436 -50 494 -78 612 -78 c 257
 595 -221 l 257
 339 -219 247 -127 247 26 c 0
 247 44 249 63 251 83 c 258
 281 329 l 258
 284 351 285 371 285 390 c 0
 285 497 239 555 118 565 c 257
 134 691 l 257
 268 701 335 775 352 910 c 258
 382 1155 l 258
 404 1336 500 1475 804 1475 c 257
 787 1332 l 257
 631 1331 583 1262 566 1130 c 258
EndSplineSet
EndChar

StartChar: braceright
Encoding: 125 125 200
Width: 787
VWidth: 0
Flags: HW
PickledData: "(dp1
S'org.robofab.postScriptHintData'
p2
(dp3
sS'com.typemytype.robofont.layerData'
p4
(dp5
s."
LayerCount: 2
Fore
SplineSet
3 -221 m 257
 21 -77 l 257
 177 -77 226 -7 242 125 c 258
 274 387 l 258
 291 518 378 597 479 631 c 257
 391 669 334 746 334 858 c 0
 334 872 335 886 337 901 c 258
 369 1157 l 258
 371 1173 372 1188 372 1202 c 0
 372 1306 314 1333 196 1333 c 257
 213 1475 l 257
 469 1473 561 1382 561 1229 c 0
 561 1211 559 1192 557 1172 c 258
 527 926 l 258
 524 904 523 884 523 865 c 0
 523 758 569 700 690 690 c 257
 674 564 l 257
 540 554 473 480 455 345 c 257
 426 100 l 257
 403 -81 308 -221 3 -221 c 257
EndSplineSet
EndChar

StartChar: bracketleft
Encoding: 91 91 201
Width: 660
VWidth: 0
Flags: HW
PickledData: "(dp1
S'org.robofab.postScriptHintData'
p2
(dp3
sS'com.typemytype.robofont.layerData'
p4
(dp5
s."
LayerCount: 2
Fore
SplineSet
68 -227 m 257
 276 1470 l 257
 686 1470 l 257
 669 1331 l 257
 440 1331 l 257
 266 -88 l 257
 497 -88 l 257
 480 -227 l 257
 68 -227 l 257
EndSplineSet
EndChar

StartChar: bracketright
Encoding: 93 93 202
Width: 660
VWidth: 0
Flags: HW
PickledData: "(dp1
S'org.robofab.postScriptHintData'
p2
(dp3
sS'com.typemytype.robofont.layerData'
p4
(dp5
s."
LayerCount: 2
Fore
SplineSet
20 -227 m 257
 37 -88 l 257
 264 -88 l 257
 438 1331 l 257
 209 1331 l 257
 226 1470 l 257
 636 1470 l 257
 429 -227 l 257
 20 -227 l 257
EndSplineSet
EndChar

StartChar: breve
Encoding: 728 728 203
Width: 615
VWidth: 0
Flags: HW
PickledData: "(dp1
S'org.robofab.postScriptHintData'
p2
(dp3
sS'com.typemytype.robofont.layerData'
p4
(dp5
S'b'
(dp6
S'name'
p7
S'breve'
p8
sS'lib'
p9
(dp10
sS'unicodes'
p11
(tsS'width'
p12
F621.60000000000002
sS'contours'
p13
(tsS'components'
p14
(tsS'anchors'
p15
(tsss."
AnchorPoint: "top" 280 1026 mark 0
LayerCount: 2
Fore
SplineSet
294 1180 m 256
 132 1180 47 1251 47 1412 c 0
 47 1421 47 1430 48 1440 c 257
 180 1440 l 257
 180 1434 179 1428 179 1423 c 0
 179 1338 231 1312 310 1312 c 256
 393 1312 447 1345 471 1440 c 257
 600 1440 l 257
 565 1261 459 1180 294 1180 c 256
EndSplineSet
EndChar

StartChar: brokenbar
Encoding: 166 166 204
Width: 500
VWidth: 0
Flags: HW
PickledData: "(dp1
S'org.robofab.postScriptHintData'
p2
(dp3
sS'com.typemytype.robofont.layerData'
p4
(dp5
s."
LayerCount: 2
Fore
SplineSet
74 -482 m 257
 182 399 l 257
 343 399 l 257
 234 -482 l 257
 74 -482 l 257
212 648 m 257
 321 1535 l 257
 481 1535 l 257
 372 648 l 257
 212 648 l 257
EndSplineSet
EndChar

StartChar: bullet
Encoding: 8226 8226 205
Width: 989
VWidth: 0
Flags: HW
PickledData: "(dp1
S'org.robofab.postScriptHintData'
p2
(dp3
sS'com.typemytype.robofont.layerData'
p4
(dp5
S'b'
(dp6
S'name'
p7
S'bullet'
p8
sS'lib'
p9
(dp10
sS'unicodes'
p11
(tsS'width'
p12
F989.64999999999998
sS'contours'
p13
(tsS'components'
p14
(tsS'anchors'
p15
(tsss."
LayerCount: 2
Fore
SplineSet
832 729 m 0
 832 530 655 378 462 378 c 256
 285 378 173 502 173 654 c 0
 173 853 349 1010 540 1010 c 256
 714 1010 832 883 832 729 c 0
EndSplineSet
EndChar

StartChar: c
Encoding: 99 99 207
Width: 1064
VWidth: 0
Flags: HW
PickledData: "(dp1
S'org.robofab.postScriptHintData'
p2
(dp3
sS'com.typemytype.robofont.layerData'
p4
(dp5
S'b'
(dp6
S'name'
p7
S'c'
sS'lib'
p8
(dp9
sS'unicodes'
p10
(tsS'width'
p11
F1035.55
sS'contours'
p12
((dp13
S'points'
p14
((dp15
S'segmentType'
p16
S'curve'
p17
sS'x'
F605
sS'smooth'
p18
I01
sS'y'
F-22
s(dp19
S'y'
F-22
sS'x'
F302
sg18
I00
s(dp20
S'y'
F180
sS'x'
F98
sg18
I00
s(dp21
g16
S'curve'
p22
sS'x'
F98
sg18
I01
sS'y'
F503
s(dp23
S'y'
F840
sS'x'
F98
sg18
I00
s(dp24
S'y'
F1052
sS'x'
F301
sg18
I00
s(dp25
g16
S'curve'
p26
sS'x'
F624
sg18
I01
sS'y'
F1052
s(dp27
S'y'
F1052
sS'x'
F750
sg18
I00
s(dp28
S'y'
F1001
sS'x'
F871
sg18
I00
s(dp29
g16
S'curve'
p30
sS'x'
F938
sg18
I00
sS'y'
F922
s(dp31
g16
S'line'
p32
sS'x'
F890
sg18
I00
sS'y'
F805
s(dp33
S'y'
F874
sS'x'
F825
sg18
I00
s(dp34
S'y'
F918
sS'x'
F721
sg18
I00
s(dp35
g16
S'curve'
p36
sS'x'
F619
sg18
I01
sS'y'
F918
s(dp37
S'y'
F918
sS'x'
F406
sg18
I00
s(dp38
S'y'
F756
sS'x'
F268
sg18
I00
s(dp39
g16
S'curve'
p40
sS'x'
F268
sg18
I01
sS'y'
F505
s(dp41
S'y'
F260
sS'x'
F268
sg18
I00
s(dp42
S'y'
F112
sS'x'
F407
sg18
I00
s(dp43
g16
S'curve'
p44
sS'x'
F611
sg18
I01
sS'y'
F112
s(dp45
S'y'
F112
sS'x'
F716
sg18
I00
s(dp46
S'y'
F145
sS'x'
F827
sg18
I00
s(dp47
g16
S'curve'
p48
sS'x'
F901
sg18
I00
sS'y'
F202
s(dp49
g16
S'line'
p50
sS'x'
F953
sg18
I00
sS'y'
F87
s(dp51
S'y'
F19
sS'x'
F873
sg18
I00
s(dp52
S'y'
F-22
sS'x'
F747
sg18
I00
stp53
stp54
sS'components'
p55
(tsS'anchors'
p56
(tsss."
AnchorPoint: "top" 665 1026 basechar 0
LayerCount: 2
Fore
SplineSet
688 901 m 256
 472 901 286 735 286 441 c 0
 286 248 398 128 590 128 c 256
 713 128 815 177 882 224 c 257
 924 91 l 257
 821 18 700 -22 558 -22 c 256
 265 -22 95 163 95 426 c 0
 95 452 97 479 100 507 c 256
 139 830 376 1052 694 1052 c 256
 833 1052 948 1009 1017 930 c 257
 938 808 l 257
 882 862 796 901 688 901 c 256
EndSplineSet
EndChar

StartChar: caron
Encoding: 711 711 209
Width: 699
VWidth: 0
Flags: HW
PickledData: "(dp1
S'org.robofab.postScriptHintData'
p2
(dp3
s."
AnchorPoint: "top" 311 1026 mark 0
LayerCount: 2
Fore
SplineSet
246 1154 m 257
 43 1505 l 257
 206 1505 l 257
 340 1275 l 257
 532 1505 l 257
 700 1505 l 257
 410 1154 l 257
 246 1154 l 257
EndSplineSet
EndChar

StartChar: caron.alt
Encoding: 65537 -1 210
Width: 600
VWidth: 0
Flags: HW
PickledData: "(dp1
S'org.robofab.postScriptHintData'
p2
(dp3
s."
AnchorPoint: "caron.alt" 23 1026 mark 0
LayerCount: 2
Fore
SplineSet
296 994 m 257
 463 1468 l 257
 672 1468 l 257
 446 994 l 257
 296 994 l 257
EndSplineSet
EndChar

StartChar: cedilla
Encoding: 184 184 215
Width: 529
VWidth: 0
Flags: HW
PickledData: "(dp1
S'org.robofab.postScriptHintData'
p2
(dp3
sS'com.typemytype.robofont.layerData'
p4
(dp5
S'b'
(dp6
S'name'
p7
S'cedilla'
p8
sS'lib'
p9
(dp10
sS'unicodes'
p11
(tsS'width'
p12
I529
sS'contours'
p13
(tsS'components'
p14
(tsS'anchors'
p15
(tsss."
LayerCount: 2
Fore
SplineSet
472 -265 m 0
 472 -388 339 -447 197 -447 c 0
 196 -447 194 -447 193 -447 c 256
 128 -447 52 -430 21 -419 c 257
 45 -322 l 257
 69 -333 139 -349 196 -349 c 256
 197 -349 198 -349 199 -349 c 0
 268 -349 316 -318 316 -265 c 0
 316 -228 278 -187 167 -187 c 258
 145 -187 l 257
 201 9 l 257
 298 9 l 257
 262 -119 l 257
 391 -131 472 -183 472 -265 c 0
EndSplineSet
EndChar

StartChar: cent
Encoding: 162 162 216
Width: 1030
VWidth: 0
Flags: HW
PickledData: "(dp1
S'org.robofab.postScriptHintData'
p2
(dp3
sS'com.typemytype.robofont.layerData'
p4
(dp5
S'b'
(dp6
S'name'
p7
S'cent'
p8
sS'lib'
p9
(dp10
sS'unicodes'
p11
(tsS'width'
p12
F1033.2
sS'contours'
p13
(tsS'components'
p14
(tsS'anchors'
p15
(tsss."
LayerCount: 2
Fore
SplineSet
496 -213 m 257
 675 1252 l 257
 758 1252 l 257
 579 -213 l 257
 496 -213 l 257
EndSplineSet
Refer: 207 99 N 1 0 0 1 0 0 2
EndChar

StartChar: circumflex
Encoding: 710 710 217
Width: 699
VWidth: 0
Flags: HW
PickledData: "(dp1
S'org.robofab.postScriptHintData'
p2
(dp3
sS'com.typemytype.robofont.layerData'
p4
(dp5
S'b'
(dp6
S'name'
p7
S'circumflex'
p8
sS'lib'
p9
(dp10
sS'unicodes'
p11
(tsS'width'
p12
I699
sS'contours'
p13
(tsS'components'
p14
(tsS'anchors'
p15
(tsss."
AnchorPoint: "top" 309 1026 mark 0
LayerCount: 2
Fore
SplineSet
13 1154 m 257
 289 1501 l 257
 451 1501 l 257
 645 1154 l 257
 489 1154 l 257
 353 1372 l 257
 163 1154 l 257
 13 1154 l 257
EndSplineSet
EndChar

StartChar: colon
Encoding: 58 58 218
Width: 541
VWidth: 0
Flags: HW
PickledData: "(dp1
S'org.robofab.postScriptHintData'
p2
(dp3
sS'com.typemytype.robofont.layerData'
p4
(dp5
S'b'
(dp6
S'name'
p7
S'colon'
p8
sS'lib'
p9
(dp10
sS'unicodes'
p11
(tsS'width'
p12
F544.60000000000002
sS'contours'
p13
(tsS'components'
p14
(tsS'anchors'
p15
(tsss."
LayerCount: 2
Fore
SplineSet
109 1 m 257
 136 227 l 257
 354 227 l 257
 327 1 l 257
 109 1 l 257
210 832 m 257
 237 1058 l 257
 455 1058 l 257
 428 832 l 257
 210 832 l 257
EndSplineSet
EndChar

StartChar: comma
Encoding: 44 44 219
Width: 487
VWidth: 0
Flags: HW
PickledData: "(dp1
S'org.robofab.postScriptHintData'
p2
(dp3
sS'com.typemytype.robofont.layerData'
p4
(dp5
S'b'
(dp6
S'name'
p7
S'comma'
p8
sS'lib'
p9
(dp10
sS'unicodes'
p11
(tsS'width'
p12
F491.10000000000002
sS'contours'
p13
(tsS'components'
p14
(tsS'anchors'
p15
(tsss."
LayerCount: 2
Fore
SplineSet
42 -265 m 257
 210 222 l 257
 419 222 l 257
 192 -265 l 257
 42 -265 l 257
EndSplineSet
EndChar

StartChar: copyright
Encoding: 169 169 220
Width: 1728
VWidth: 0
Flags: HW
PickledData: "(dp1
S'org.robofab.postScriptHintData'
p2
(dp3
sS'com.typemytype.robofont.layerData'
p4
(dp5
S'b'
(dp6
S'name'
p7
S'copyright'
p8
sS'lib'
p9
(dp10
sS'unicodes'
p11
(tsS'width'
p12
I1733
sS'contours'
p13
(tsS'components'
p14
(tsS'anchors'
p15
(tsss."
LayerCount: 2
Fore
SplineSet
937 1047 m 256
 775 1047 606 921 606 663 c 0
 606 499 708 411 854 411 c 256
 941 411 1028 442 1095 490 c 257
 1131 381 l 257
 1042 319 941 286 831 286 c 256
 606 286 447 432 447 656 c 0
 447 676 448 697 451 718 c 256
 484 992 685 1173 944 1173 c 256
 1055 1173 1149 1137 1206 1072 c 257
 1140 970 l 257
 1094 1014 1021 1047 937 1047 c 256
784 75 m 256
 1137 75 1458 371 1502 725 c 256
 1505 752 1507 779 1507 806 c 0
 1507 1125 1271 1381 945 1381 c 256
 590 1381 268 1080 225 725 c 256
 222 698 220 671 220 644 c 0
 220 327 456 75 784 75 c 256
771 -25 m 256
 387 -25 102 263 102 635 c 0
 102 666 104 696 108 728 c 256
 159 1144 540 1483 956 1483 c 256
 1342 1483 1627 1193 1627 820 c 0
 1627 790 1625 759 1621 728 c 256
 1570 312 1188 -25 771 -25 c 256
EndSplineSet
EndChar

StartChar: currency
Encoding: 164 164 221
Width: 1218
VWidth: 0
Flags: HW
PickledData: "(dp1
S'org.robofab.postScriptHintData'
p2
(dp3
s."
LayerCount: 2
Fore
SplineSet
1004 1074 m 0
 1004 951 955 858 882 781 c 257
 1045 596 l 257
 988 545 l 257
 825 731 l 257
 750 675 658 641 562 641 c 256
 466 641 382 675 321 732 c 257
 111 545 l 257
 66 596 l 257
 276 783 l 257
 237 838 215 905 215 979 c 0
 215 1105 268 1202 344 1278 c 257
 173 1473 l 257
 230 1524 l 257
 403 1328 l 257
 475 1380 564 1411 656 1411 c 256
 748 1411 828 1380 889 1329 c 257
 1108 1524 l 257
 1153 1473 l 257
 936 1280 l 257
 979 1223 1004 1153 1004 1074 c 0
646 1333 m 256
 462 1333 303 1183 303 981 c 0
 303 828 410 712 569 712 c 256
 751 712 913 865 913 1066 c 0
 913 1219 806 1333 646 1333 c 256
EndSplineSet
EndChar

StartChar: d
Encoding: 100 100 222
Width: 1264
VWidth: 0
Flags: HW
PickledData: "(dp1
S'org.robofab.postScriptHintData'
p2
(dp3
sS'com.typemytype.robofont.layerData'
p4
(dp5
S'b'
(dp6
S'name'
p7
S'd'
sS'lib'
p8
(dp9
sS'unicodes'
p10
(tsS'width'
p11
F1265.05
sS'contours'
p12
(tsS'components'
p13
(tsS'anchors'
p14
(tsss."
AnchorPoint: "caron.alt" 935 1026 basechar 0
AnchorPoint: "top" 589 1026 basechar 0
LayerCount: 2
Fore
SplineSet
478 -22 m 256
 232 -22 68 146 68 419 c 0
 68 448 70 478 74 510 c 256
 112 824 317 1052 619 1052 c 256
 787 1052 895 962 926 872 c 257
 1001 1486 l 257
 1185 1486 l 257
 1035 266 l 257
 1029 204 1021 126 1010 0 c 257
 823 0 l 257
 841 174 l 257
 791 78 664 -22 478 -22 c 256
621 902 m 256
 405 902 259 705 259 437 c 0
 259 253 350 128 522 128 c 259
 728 128 858 287 887 522 c 256
 890 547 892 571 892 594 c 0
 892 775 798 902 621 902 c 256
EndSplineSet
EndChar

StartChar: dagger
Encoding: 8224 8224 223
Width: 1022
VWidth: 0
Flags: HW
PickledData: "(dp1
S'org.robofab.postScriptHintData'
p2
(dp3
sS'com.typemytype.robofont.layerData'
p4
(dp5
s."
LayerCount: 2
Fore
SplineSet
356 0 m 257
 466 903 l 257
 139 903 l 257
 155 1034 l 257
 483 1034 l 257
 534 1458 l 257
 692 1458 l 257
 640 1034 l 257
 976 1034 l 257
 960 903 l 257
 618 903 l 257
 508 0 l 257
 356 0 l 257
EndSplineSet
EndChar

StartChar: daggerdbl
Encoding: 8225 8225 224
Width: 1086
VWidth: 0
Flags: HW
PickledData: "(dp1
S'org.robofab.postScriptHintData'
p2
(dp3
sS'com.typemytype.robofont.layerData'
p4
(dp5
S'b'
(dp6
S'name'
p7
S'daggerdbl'
p8
sS'lib'
p9
(dp10
sS'unicodes'
p11
(tsS'width'
p12
F1092.6500000000001
sS'contours'
p13
(tsS'components'
p14
(tsS'anchors'
p15
(tsss."
LayerCount: 2
Fore
SplineSet
164 1034 m 257
 500 1034 l 257
 552 1459 l 257
 716 1459 l 257
 664 1034 l 257
 998 1034 l 257
 984 919 l 257
 649 919 l 257
 599 510 l 257
 927 510 l 257
 913 399 l 257
 585 399 l 257
 537 0 l 257
 373 0 l 257
 421 399 l 257
 82 399 l 257
 96 510 l 257
 435 510 l 257
 485 919 l 257
 150 919 l 257
 164 1034 l 257
EndSplineSet
EndChar

StartChar: degree
Encoding: 176 176 228
Width: 854
VWidth: 0
Flags: HW
PickledData: "(dp1
S'org.robofab.postScriptHintData'
p2
(dp3
sS'com.typemytype.robofont.layerData'
p4
(dp5
S'b'
(dp6
S'name'
p7
S'degree'
p8
sS'lib'
p9
(dp10
sS'unicodes'
p11
(tsS'width'
p12
F856.60000000000002
sS'contours'
p13
(tsS'components'
p14
(tsS'anchors'
p15
(tsss."
LayerCount: 2
Fore
SplineSet
449 1336 m 256
 334 1336 245 1244 245 1127 c 0
 245 1039 302 968 404 968 c 256
 523 968 609 1063 609 1180 c 0
 609 1268 550 1336 449 1336 c 256
733 1191 m 0
 733 1001 570 854 390 854 c 256
 232 854 121 968 121 1114 c 0
 121 1306 285 1450 463 1450 c 256
 623 1450 733 1338 733 1191 c 0
EndSplineSet
EndChar

StartChar: dieresis
Encoding: 168 168 229
Width: 743
VWidth: 0
Flags: HW
PickledData: "(dp1
S'org.robofab.postScriptHintData'
p2
(dp3
s."
AnchorPoint: "top" 340 1026 mark 0
LayerCount: 2
Fore
SplineSet
65 1182 m 257
 89 1371 l 257
 275 1371 l 257
 252 1182 l 257
 65 1182 l 257
468 1182 m 257
 492 1371 l 257
 678 1371 l 257
 654 1182 l 257
 468 1182 l 257
EndSplineSet
EndChar

StartChar: divide
Encoding: 247 247 230
Width: 1286
VWidth: 0
Flags: HW
PickledData: "(dp1
S'org.robofab.postScriptHintData'
p2
(dp3
sS'com.typemytype.robofont.layerData'
p4
(dp5
s."
LayerCount: 2
Fore
SplineSet
459 11 m 257
 486 237 l 257
 723 237 l 257
 696 11 l 257
 459 11 l 257
148 476 m 257
 167 632 l 257
 1132 632 l 257
 1113 476 l 257
 148 476 l 257
563 865 m 257
 590 1090 l 257
 827 1090 l 257
 800 865 l 257
 563 865 l 257
EndSplineSet
EndChar

StartChar: dollar
Encoding: 36 36 232
Width: 1197
VWidth: 0
Flags: HW
PickledData: "(dp1
S'org.robofab.postScriptHintData'
p2
(dp3
sS'com.typemytype.robofont.layerData'
p4
(dp5
S'b'
(dp6
S'name'
p7
S'dollar'
p8
sS'lib'
p9
(dp10
sS'unicodes'
p11
(tsS'width'
p12
F1200.0999999999999
sS'contours'
p13
(tsS'components'
p14
(tsS'anchors'
p15
(tsss."
LayerCount: 2
Fore
SplineSet
605 144 m 1
 771 167 864 267 864 435 c 0
 864 528 819 580 665 637 c 1
 605 144 l 1
665 1319 m 1
 492 1306 379 1225 379 1051 c 0
 379 952 437 901 607 850 c 1
 665 1319 l 1
1064 463 m 0
 1064 156 853 4 585 -19 c 1
 562 -203 l 1
 477 -203 l 1
 499 -22 l 1
 263 -17 107 87 57 142 c 1
 159 280 l 1
 214 230 351 142 519 139 c 1
 584 664 l 1
 564 670 540 677 527 681 c 0
 299 750 176 838 176 1031 c 0
 176 1326 400 1474 685 1482 c 1
 703 1628 l 1
 787 1628 l 1
 769 1480 l 1
 994 1468 1088 1387 1140 1330 c 1
 1029 1201 l 1
 979 1254 883 1311 749 1320 c 1
 689 827 l 1
 969 739 1064 641 1064 463 c 0
EndSplineSet
EndChar

StartChar: dotaccent
Encoding: 729 729 233
Width: 524
VWidth: 0
Flags: HW
PickledData: "(dp1
S'org.robofab.postScriptHintData'
p2
(dp3
sS'com.typemytype.robofont.layerData'
p4
(dp5
S'b'
(dp6
S'name'
p7
S'dotaccent'
p8
sS'lib'
p9
(dp10
sS'unicodes'
p11
(tsS'width'
p12
F524
sS'contours'
p13
(tsS'components'
p14
(tsS'anchors'
p15
(tsss."
AnchorPoint: "top" 225 1026 mark 0
LayerCount: 2
Fore
SplineSet
157 1256 m 257
 179 1438 l 257
 367 1438 l 257
 345 1256 l 257
 157 1256 l 257
EndSplineSet
EndChar

StartChar: dotlessi
Encoding: 305 305 234
Width: 533
VWidth: 0
Flags: HW
PickledData: "(dp1
S'org.robofab.postScriptHintData'
p2
(dp3
sS'com.typemytype.robofont.layerData'
p4
(dp5
s."
AnchorPoint: "top" 331 1026 basechar 0
LayerCount: 2
Fore
SplineSet
114 0 m 257
 239 1026 l 257
 424 1026 l 257
 299 0 l 257
 114 0 l 257
EndSplineSet
EndChar

StartChar: dotlessj
Encoding: 567 567 235
Width: 510
VWidth: 0
Flags: HW
PickledData: "(dp1
S'org.robofab.postScriptHintData'
p2
(dp3
s."
AnchorPoint: "top" 341 1026 basechar 0
LayerCount: 2
Fore
SplineSet
-85 -423 m 256
 -123 -423 -164 -420 -210 -411 c 257
 -192 -260 l 257
 -153 -269 -126 -272 -106 -272 c 256
 19 -272 94 -176 120 36 c 258
 241 1026 l 257
 425 1026 l 257
 312 104 l 258
 283 -127 207 -423 -85 -423 c 256
EndSplineSet
EndChar

StartChar: e
Encoding: 101 101 238
Width: 1166
VWidth: 0
Flags: HW
PickledData: "(dp1
S'org.robofab.postScriptHintData'
p2
(dp3
sS'com.typemytype.robofont.guides'
p4
(tsS'com.typemytype.robofont.layerData'
p5
(dp6
S'b'
(dp7
S'name'
p8
S'e'
sS'lib'
p9
(dp10
sS'unicodes'
p11
(tsS'width'
p12
F1169.75
sS'contours'
p13
(tsS'components'
p14
(tsS'anchors'
p15
(tsssS'com.fontlab.hintData'
p16
(dp17
S'vhints'
p18
((dp19
S'position'
p20
I106
sg12
I195
stp21
sS'hhints'
p22
((dp23
g20
I-22
sg12
I154
s(dp24
g20
I486
sg12
I131
s(dp25
g20
I901
sg12
I151
stp26
ss."
HStem: -22 154 486 131 901 151
VStem: 106 195
AnchorPoint: "top" 654 1026 basechar 0
LayerCount: 2
Fore
SplineSet
1063 633 m 0
 1063 579 1060 538 1047 487 c 257
 288 487 l 257
 286 468 285 449 285 431 c 0
 285 232 409 128 597 128 c 256
 717 128 832 166 936 242 c 257
 975 106 l 257
 857 22 717 -22 568 -22 c 256
 270 -22 95 153 95 424 c 0
 95 789 343 1052 672 1052 c 256
 935 1052 1063 881 1063 633 c 0
308 613 m 257
 897 613 l 257
 897 622 898 631 898 639 c 0
 898 813 810 906 659 906 c 256
 492 906 357 796 308 613 c 257
EndSplineSet
EndChar

StartChar: eight
Encoding: 56 56 247
Width: 1232
VWidth: 0
Flags: HW
PickledData: "(dp1
S'org.robofab.postScriptHintData'
p2
(dp3
sS'com.typemytype.robofont.layerData'
p4
(dp5
S'b'
(dp6
S'name'
p7
S'eight'
p8
sS'lib'
p9
(dp10
sS'unicodes'
p11
(tsS'width'
p12
F1235.45
sS'contours'
p13
(tsS'components'
p14
(tsS'anchors'
p15
(tsss."
LayerCount: 2
Fore
SplineSet
528 -22 m 256
 289 -22 94 103 94 328 c 0
 94 345 95 362 97 380 c 256
 118 560 248 697 441 763 c 257
 304 818 216 920 216 1063 c 0
 216 1078 217 1094 219 1110 c 256
 248 1344 460 1482 711 1482 c 256
 948 1482 1117 1363 1117 1157 c 0
 1117 1141 1116 1124 1114 1107 c 256
 1093 939 975 821 808 763 c 257
 966 704 1060 582 1060 426 c 0
 1060 410 1059 394 1057 377 c 256
 1025 120 781 -22 528 -22 c 256
615 682 m 257
 435 644 284 531 284 345 c 0
 284 206 389 131 545 131 c 256
 721 131 872 226 872 417 c 0
 872 551 766 649 615 682 c 257
694 1333 m 256
 544 1333 402 1249 402 1080 c 0
 402 960 487 875 633 843 c 257
 803 879 913 975 930 1115 c 256
 931 1125 932 1135 932 1144 c 0
 932 1267 824 1333 694 1333 c 256
EndSplineSet
EndChar

StartChar: ellipsis
Encoding: 8230 8230 249
Width: 1620
VWidth: 0
Flags: HW
PickledData: "(dp1
S'org.robofab.postScriptHintData'
p2
(dp3
s."
LayerCount: 2
Fore
SplineSet
134 -11 m 257
 162 214 l 257
 400 214 l 257
 372 -11 l 257
 134 -11 l 257
670 -11 m 257
 698 214 l 257
 935 214 l 257
 907 -11 l 257
 670 -11 l 257
1205 -11 m 257
 1233 214 l 257
 1470 214 l 257
 1442 -11 l 257
 1205 -11 l 257
EndSplineSet
EndChar

StartChar: emdash
Encoding: 8212 8212 251
Width: 2171
VWidth: 0
Flags: HW
PickledData: "(dp1
S'org.robofab.postScriptHintData'
p2
(dp3
s."
LayerCount: 2
Fore
SplineSet
7 480 m 257
 25 634 l 257
 2158 634 l 257
 2140 480 l 257
 7 480 l 257
EndSplineSet
EndChar

StartChar: endash
Encoding: 8211 8211 252
Width: 1103
VWidth: 0
Flags: HW
PickledData: "(dp1
S'org.robofab.postScriptHintData'
p2
(dp3
sS'com.typemytype.robofont.layerData'
p4
(dp5
s."
LayerCount: 2
Fore
SplineSet
-6 488 m 257
 12 634 l 257
 1106 634 l 257
 1088 488 l 257
 -6 488 l 257
EndSplineSet
EndChar

StartChar: eng
Encoding: 331 331 253
Width: 1235
VWidth: 0
Flags: HW
PickledData: "(dp1
S'org.robofab.postScriptHintData'
p2
(dp3
sS'com.typemytype.robofont.layerData'
p4
(dp5
s."
LayerCount: 2
Fore
SplineSet
521 -408 m 256
 424 -408 312 -393 181 -361 c 257
 217 -223 l 257
 340 -254 439 -269 519 -269 c 256
 752 -269 838 -145 868 100 c 258
 923 549 l 258
 929 599 933 645 933 685 c 0
 933 822 889 900 738 900 c 256
 565 900 415 749 401 643 c 258
 321 0 l 257
 136 0 l 257
 228 742 l 257
 246 896 253 1026 253 1026 c 257
 444 1026 l 257
 428 882 l 257
 517 995 653 1051 792 1051 c 256
 1028 1051 1119 923 1119 698 c 0
 1119 655 1115 609 1109 559 c 258
 1057 130 l 258
 1016 -210 871 -408 521 -408 c 256
EndSplineSet
EndChar

StartChar: equal
Encoding: 61 61 255
Width: 1290
VWidth: 0
Flags: HW
PickledData: "(dp1
S'org.robofab.postScriptHintData'
p2
(dp3
sS'com.typemytype.robofont.layerData'
p4
(dp5
S'b'
(dp6
S'name'
p7
S'equal'
p8
sS'lib'
p9
(dp10
sS'unicodes'
p11
(tsS'width'
p12
I1229
sS'contours'
p13
(tsS'components'
p14
(tsS'anchors'
p15
(tsss."
LayerCount: 2
Fore
SplineSet
138 292 m 257
 157 445 l 257
 1105 445 l 257
 1086 292 l 257
 138 292 l 257
185 683 m 257
 205 837 l 257
 1152 837 l 257
 1133 683 l 257
 185 683 l 257
EndSplineSet
EndChar

StartChar: estimated
Encoding: 8494 8494 256
Width: 1206
VWidth: 0
Flags: HW
PickledData: "(dp1
S'org.robofab.postScriptHintData'
p2
(dp3
s."
LayerCount: 2
Fore
SplineSet
1076 802 m 0
 1076 755 1075 697 1059 655 c 257
 316 655 l 257
 311 615 308 578 308 543 c 0
 308 289 420 176 617 176 c 259
 719 176 850 218 985 299 c 257
 1006 247 l 257
 859 158 702 114 560 114 c 256
 300 114 99 264 99 562 c 0
 99 591 101 620 105 652 c 256
 154 1050 429 1199 678 1199 c 256
 890 1199 1076 1098 1076 802 c 0
323 713 m 257
 893 713 l 257
 898 755 901 792 901 827 c 0
 901 1062 790 1141 668 1141 c 256
 532 1141 365 1036 323 713 c 257
EndSplineSet
EndChar

StartChar: eth
Encoding: 240 240 257
Width: 1223
VWidth: 0
Flags: HW
PickledData: "(dp1
S'org.robofab.postScriptHintData'
p2
(dp3
sS'com.typemytype.robofont.layerData'
p4
(dp5
S'b'
(dp6
S'name'
p7
S'eth'
p8
sS'lib'
p9
(dp10
sS'unicodes'
p11
(tsS'width'
p12
F1222.55
sS'contours'
p13
(tsS'components'
p14
(tsS'anchors'
p15
(tsss."
LayerCount: 2
Fore
SplineSet
500 -22 m 256
 224 -22 65 153 65 387 c 0
 65 409 66 431 69 454 c 256
 102 721 326 905 608 905 c 256
 775 905 886 813 922 726 c 257
 923 733 923 742 923 751 c 0
 923 859 872 1078 736 1211 c 257
 498 1069 l 257
 445 1171 l 257
 645 1290 l 257
 561 1351 462 1399 350 1427 c 257
 436 1552 l 257
 561 1523 686 1464 793 1377 c 257
 1026 1516 l 257
 1079 1414 l 257
 880 1296 l 257
 1010 1160 1095 977 1095 747 c 0
 1095 707 1092 666 1087 623 c 256
 1036 208 823 -22 500 -22 c 256
594 752 m 256
 408 752 257 621 257 402 c 0
 257 237 367 138 523 138 c 256
 710 138 842 274 867 475 c 256
 868 487 869 498 869 509 c 0
 869 657 743 752 594 752 c 256
EndSplineSet
EndChar

StartChar: exclam
Encoding: 33 33 259
Width: 582
VWidth: 0
Flags: HW
PickledData: "(dp1
S'org.robofab.postScriptHintData'
p2
(dp3
sS'com.typemytype.robofont.layerData'
p4
(dp5
S'b'
(dp6
S'name'
p7
S'exclam'
p8
sS'lib'
p9
(dp10
sS'unicodes'
p11
(tsS'width'
p12
F590
sS'contours'
p13
(tsS'components'
p14
(tsS'anchors'
p15
(tsss."
LayerCount: 2
Fore
SplineSet
122 0 m 257
 148 220 l 257
 334 220 l 257
 308 0 l 257
 122 0 l 257
205 377 m 257
 283 1456 l 257
 501 1456 l 257
 313 377 l 257
 205 377 l 257
EndSplineSet
EndChar

StartChar: exclamdown
Encoding: 161 161 260
Width: 572
VWidth: 0
Flags: HW
PickledData: "(dp1
S'org.robofab.postScriptHintData'
p2
(dp3
sS'com.typemytype.robofont.layerData'
p4
(dp5
S'b'
(dp6
S'name'
p7
S'exclamdown'
p8
sS'lib'
p9
(dp10
sS'unicodes'
p11
(tsS'width'
p12
F614.5
sS'contours'
p13
(tsS'components'
p14
(tsS'anchors'
p15
(tsss."
LayerCount: 2
Fore
SplineSet
287 1140 m 257
 473 1140 l 257
 444 920 l 257
 258 920 l 257
 287 1140 l 257
276 763 m 257
 384 763 l 257
 302 -316 l 257
 84 -316 l 257
 276 763 l 257
EndSplineSet
EndChar

StartChar: f
Encoding: 102 102 261
Width: 727
VWidth: 0
Flags: HW
PickledData: "(dp1
S'org.robofab.postScriptHintData'
p2
(dp3
sS'com.typemytype.robofont.layerData'
p4
(dp5
S'b'
(dp6
S'name'
p7
S'f'
sS'lib'
p8
(dp9
sS'unicodes'
p10
(tsS'width'
p11
F733.10000000000002
sS'contours'
p12
(tsS'components'
p13
(tsS'anchors'
p14
(tsss."
AnchorPoint: "top" 446 1456 basechar 0
LayerCount: 2
Fore
SplineSet
160 0 m 257
 271 903 l 257
 88 903 l 257
 104 1026 l 257
 286 1026 l 257
 297 1110 l 257
 329 1371 386 1485 736 1485 c 258
 783 1485 l 257
 761 1342 l 257
 525 1342 505 1300 483 1125 c 258
 471 1026 l 257
 715 1026 l 257
 700 903 l 257
 456 903 l 257
 345 0 l 257
 160 0 l 257
EndSplineSet
EndChar

StartChar: f_f
Encoding: 64256 64256 262
Width: 1349
VWidth: 0
Flags: HW
PickledData: "(dp1
S'org.robofab.postScriptHintData'
p2
(dp3
sS'com.typemytype.robofont.layerData'
p4
(dp5
s."
LayerCount: 2
Fore
SplineSet
1084 913 m 257
 971 0 l 257
 800 0 l 257
 913 913 l 257
 442 913 l 257
 329 0 l 257
 158 0 l 257
 271 913 l 257
 90 913 l 257
 103 1026 l 257
 284 1026 l 257
 295 1115 l 258
 326 1370 386 1485 726 1485 c 258
 773 1485 l 257
 755 1351 l 257
 513 1351 489 1301 468 1136 c 257
 455 1026 l 257
 926 1026 l 257
 937 1115 l 258
 968 1370 1028 1485 1368 1485 c 258
 1415 1485 l 257
 1397 1351 l 257
 1155 1351 1131 1301 1110 1136 c 257
 1097 1026 l 257
 1345 1026 l 257
 1331 913 l 257
 1084 913 l 257
EndSplineSet
EndChar

StartChar: f_f_i
Encoding: 64259 64259 263
Width: 1830
VWidth: 0
Flags: HW
PickledData: "(dp1
S'org.robofab.postScriptHintData'
p2
(dp3
sS'com.typemytype.robofont.layerData'
p4
(dp5
s."
LayerCount: 2
Fore
SplineSet
1565 0 m 257
 1396 0 l 257
 1508 913 l 257
 1066 913 l 257
 954 0 l 257
 783 0 l 257
 895 913 l 257
 442 913 l 257
 329 0 l 257
 158 0 l 257
 271 913 l 257
 90 913 l 257
 103 1026 l 257
 284 1026 l 257
 295 1114 l 258
 326 1369 386 1485 726 1485 c 258
 773 1485 l 257
 755 1350 l 257
 513 1350 489 1300 468 1135 c 257
 455 1026 l 257
 909 1026 l 257
 920 1114 l 258
 951 1369 1009 1485 1350 1485 c 258
 1396 1485 l 257
 1378 1350 l 257
 1136 1350 1113 1300 1093 1135 c 258
 1080 1026 l 257
 1691 1026 l 257
 1565 0 l 257
1724 1295 m 257
 1555 1295 l 257
 1575 1456 l 257
 1744 1456 l 257
 1724 1295 l 257
EndSplineSet
EndChar

StartChar: f_f_l
Encoding: 64260 64260 264
Width: 1896
VWidth: 0
Flags: HW
PickledData: "(dp1
S'org.robofab.postScriptHintData'
p2
(dp3
sS'com.typemytype.robofont.layerData'
p4
(dp5
s."
AnchorPoint: "top" 445 1456 basechar 0
LayerCount: 2
Fore
SplineSet
160 0 m 257
 272 913 l 257
 90 913 l 257
 103 1026 l 257
 286 1026 l 257
 296 1107 l 258
 328 1368 386 1485 736 1485 c 258
 784 1485 l 257
 763 1342 l 257
 527 1342 504 1296 483 1125 c 257
 470 1026 l 257
 715 1026 l 257
 701 913 l 257
 457 913 l 257
 344 0 l 257
 160 0 l 257
EndSplineSet
Refer: 269 64258 N 1 0 0 1 562 0 2
EndChar

StartChar: fi
Encoding: 64257 64257 266
Width: 1224
VWidth: 0
Flags: HW
PickledData: "(dp1
S'org.robofab.postScriptHintData'
p2
(dp3
sS'com.typemytype.robofont.layerData'
p4
(dp5
S'b'
(dp6
S'name'
p7
S'fi'
p8
sS'lib'
p9
(dp10
sS'unicodes'
p11
(tsS'width'
p12
F1237.6500000000001
sS'contours'
p13
((dp14
S'points'
p15
((dp16
S'segmentType'
p17
S'line'
p18
sS'x'
F249
sS'smooth'
p19
I00
sS'y'
F0
s(dp20
g17
S'line'
p21
sS'x'
F249
sg19
I00
sS'y'
F919
s(dp22
g17
S'line'
p23
sS'x'
F68
sg19
I00
sS'y'
F919
s(dp24
g17
S'line'
p25
sS'x'
F68
sg19
I00
sS'y'
F1026
s(dp26
g17
S'line'
p27
sS'x'
F249
sg19
I00
sS'y'
F1026
s(dp28
g17
S'line'
p29
sS'x'
F249
sg19
I01
sS'y'
F1127
s(dp30
S'y'
F1378
sS'x'
F249
sg19
I00
s(dp31
S'y'
F1492
sS'x'
F295
sg19
I00
s(dp32
g17
S'curve'
p33
sS'x'
F630
sg19
I01
sS'y'
F1492
s(dp34
g17
S'line'
p35
sS'x'
F676
sg19
I00
sS'y'
F1492
s(dp36
g17
S'line'
p37
sS'x'
F676
sg19
I00
sS'y'
F1364
s(dp38
S'y'
F1364
sS'x'
F431
sg19
I00
s(dp39
S'y'
F1311
sS'x'
F413
sg19
I00
s(dp40
g17
S'curve'
p41
sS'x'
F413
sg19
I01
sS'y'
F1150
s(dp42
g17
S'line'
p43
sS'x'
F413
sg19
I00
sS'y'
F1026
s(dp44
g17
S'line'
p45
sS'x'
F662
sg19
I00
sS'y'
F1026
s(dp46
g17
S'line'
p47
sS'x'
F662
sg19
I00
sS'y'
F919
s(dp48
g17
S'line'
p49
sS'x'
F413
sg19
I00
sS'y'
F919
s(dp50
g17
S'line'
p51
sS'x'
F413
sg19
I00
sS'y'
F0
stp52
s(dp53
g15
((dp54
g17
S'line'
p55
sS'x'
F869
sg19
I00
sS'y'
F0
s(dp56
g17
S'line'
p57
sS'x'
F869
sg19
I00
sS'y'
F1026
s(dp58
g17
S'line'
p59
sS'x'
F1033
sg19
I00
sS'y'
F1026
s(dp60
g17
S'line'
p61
sS'x'
F1033
sg19
I00
sS'y'
F0
stp62
s(dp63
g15
((dp64
g17
S'line'
p65
sS'x'
F869
sg19
I00
sS'y'
F1307
s(dp66
g17
S'line'
p67
sS'x'
F869
sg19
I00
sS'y'
F1462
s(dp68
g17
S'line'
p69
sS'x'
F1033
sg19
I00
sS'y'
F1462
s(dp70
g17
S'line'
p71
sS'x'
F1033
sg19
I00
sS'y'
F1307
stp72
stp73
sS'components'
p74
(tsS'anchors'
p75
(tsss."
LayerCount: 2
Fore
SplineSet
159 0 m 257
 271 912 l 257
 90 912 l 257
 103 1026 l 257
 285 1026 l 257
 295 1114 l 257
 327 1369 386 1485 728 1485 c 258
 775 1485 l 257
 757 1349 l 257
 516 1349 492 1300 471 1134 c 257
 458 1026 l 257
 949 1026 l 257
 935 912 l 257
 445 912 l 257
 332 0 l 257
 159 0 l 257
EndSplineSet
Refer: 295 105 N 1 0 0 1 704 0 2
EndChar

StartChar: five
Encoding: 53 53 267
Width: 1231
VWidth: 0
Flags: HW
PickledData: "(dp1
S'org.robofab.postScriptHintData'
p2
(dp3
sS'com.typemytype.robofont.layerData'
p4
(dp5
s."
LayerCount: 2
Fore
SplineSet
531 139 m 256
 727 139 883 287 883 521 c 0
 883 664 804 773 652 773 c 256
 562 773 462 738 411 673 c 257
 234 690 l 257
 332 1456 l 257
 1113 1456 l 257
 1093 1293 l 257
 486 1293 l 257
 415 839 l 257
 484 908 593 940 695 940 c 256
 933 940 1081 773 1081 537 c 0
 1081 514 1080 490 1077 465 c 256
 1039 161 797 -23 512 -23 c 256
 354 -23 199 29 91 147 c 257
 201 289 l 257
 290 183 413 139 531 139 c 256
EndSplineSet
EndChar

StartChar: fl
Encoding: 64258 64258 269
Width: 1265
VWidth: 0
Flags: HW
PickledData: "(dp1
S'org.robofab.postScriptHintData'
p2
(dp3
sS'com.typemytype.robofont.layerData'
p4
(dp5
S'b'
(dp6
S'name'
p7
S'fl'
p8
sS'lib'
p9
(dp10
sS'unicodes'
p11
(tsS'width'
p12
F1252.7
sS'contours'
p13
(tsS'components'
p14
((dp15
S'transformation'
p16
(I1
I0
I0
I1
I20
I0
tp17
sS'baseGlyph'
p18
S'f'
s(dp19
g16
(I1
I0
I0
I1
I714
I0
tp20
sg18
S'l'
stp21
sS'anchors'
p22
(tsss."
LayerCount: 2
Fore
SplineSet
178 0 m 257
 290 913 l 257
 91 913 l 257
 105 1026 l 257
 304 1026 l 257
 314 1105 l 258
 346 1364 446 1466 825 1466 c 258
 1183 1466 l 257
 1003 0 l 257
 830 0 l 257
 993 1331 l 257
 814 1331 l 258
 558 1331 508 1285 490 1132 c 258
 477 1026 l 257
 724 1026 l 257
 710 913 l 257
 463 913 l 257
 351 0 l 257
 178 0 l 257
EndSplineSet
EndChar

StartChar: florin
Encoding: 402 402 270
Width: 1070
VWidth: 0
Flags: HW
PickledData: "(dp1
S'org.robofab.postScriptHintData'
p2
(dp3
sS'com.typemytype.robofont.layerData'
p4
(dp5
S'b'
(dp6
S'name'
p7
S'florin'
p8
sS'lib'
p9
(dp10
sS'unicodes'
p11
(tsS'width'
p12
F1073.0999999999999
sS'contours'
p13
(tsS'components'
p14
(tsS'anchors'
p15
(tsss."
LayerCount: 2
Fore
SplineSet
93 -299 m 256
 71 -299 31 -294 -10 -282 c 257
 19 -157 l 257
 37 -162 65 -167 88 -167 c 256
 175 -167 247 -114 291 34 c 258
 528 815 l 257
 375 815 l 257
 412 935 l 257
 563 935 l 257
 622 1126 l 257
 672 1294 757 1469 999 1469 c 256
 1088 1469 1155 1435 1155 1435 c 257
 1123 1313 l 257
 1089 1324 1048 1333 1009 1333 c 256
 904 1333 847 1278 808 1157 c 258
 736 935 l 257
 950 935 l 257
 912 815 l 257
 700 815 l 257
 480 86 l 257
 406 -163 329 -299 93 -299 c 256
EndSplineSet
EndChar

StartChar: four
Encoding: 52 52 272
Width: 1231
VWidth: 0
Flags: HW
PickledData: "(dp1
S'org.robofab.postScriptHintData'
p2
(dp3
sS'com.typemytype.robofont.layerData'
p4
(dp5
S'b'
(dp6
S'name'
p7
S'four'
p8
sS'lib'
p9
(dp10
sS'unicodes'
p11
(tsS'width'
p12
F1234.0999999999999
sS'contours'
p13
(tsS'components'
p14
(tsS'anchors'
p15
(tsss."
LayerCount: 2
Fore
SplineSet
663 0 m 257
 710 385 l 257
 63 385 l 257
 79 513 l 257
 791 1456 l 257
 1025 1456 l 257
 912 527 l 257
 1129 527 l 257
 1112 385 l 257
 894 385 l 257
 846 0 l 257
 663 0 l 257
281 527 m 257
 727 527 l 257
 818 1272 l 257
 643 1019 461 775 281 527 c 257
EndSplineSet
EndChar

StartChar: foursuperior
Encoding: 8308 8308 273
Width: 1167
VWidth: 0
Flags: HW
PickledData: "(dp1
S'org.robofab.postScriptHintData'
p2
(dp3
sS'com.typemytype.robofont.layerData'
p4
(dp5
s."
LayerCount: 2
Fore
SplineSet
621 658 m 257
 644 846 l 257
 264 846 l 257
 275 938 l 257
 707 1456 l 257
 845 1456 l 257
 783 952 l 257
 890 952 l 257
 876 846 l 257
 769 846 l 257
 746 658 l 257
 621 658 l 257
416 952 m 257
 655 952 l 257
 697 1291 l 257
 416 952 l 257
EndSplineSet
EndChar

StartChar: fraction
Encoding: 8260 8260 274
Width: 1073
VWidth: 0
Flags: HW
PickledData: "(dp1
S'org.robofab.postScriptHintData'
p2
(dp3
sS'com.typemytype.robofont.layerData'
p4
(dp5
S'b'
(dp6
S'name'
p7
S'fraction'
p8
sS'lib'
p9
(dp10
sS'unicodes'
p11
(tsS'width'
p12
F1077.8
sS'contours'
p13
(tsS'components'
p14
(tsS'anchors'
p15
(tsss."
LayerCount: 2
Fore
SplineSet
-65 0 m 257
 1013 1456 l 257
 1186 1456 l 257
 110 0 l 257
 -65 0 l 257
EndSplineSet
EndChar

StartChar: g
Encoding: 103 103 275
Width: 1267
VWidth: 0
Flags: HW
PickledData: "(dp1
S'org.robofab.postScriptHintData'
p2
(dp3
sS'com.typemytype.robofont.layerData'
p4
(dp5
S'b'
(dp6
S'name'
p7
S'g'
sS'lib'
p8
(dp9
sS'unicodes'
p10
(tsS'width'
p11
I1254
sS'contours'
p12
((dp13
S'points'
p14
((dp15
S'segmentType'
p16
S'curve'
p17
sS'x'
F580
sS'smooth'
p18
I01
sS'y'
F134
s(dp19
S'y'
F134
sS'x'
F799
sg18
I00
s(dp20
S'y'
F295
sS'x'
F920
sg18
I00
s(dp21
g16
S'curve'
p22
sS'x'
F920
sg18
I01
sS'y'
F550
s(dp23
S'y'
F775
sS'x'
F920
sg18
I00
s(dp24
S'y'
F918
sS'x'
F796
sg18
I00
s(dp25
g16
S'curve'
p26
sS'x'
F600
sg18
I01
sS'y'
F918
s(dp27
S'y'
F918
sS'x'
F399
sg18
I00
s(dp28
S'y'
F762
sS'x'
F268
sg18
I00
s(dp29
g16
S'curve'
p30
sS'x'
F268
sg18
I01
sS'y'
F515
s(dp31
S'y'
F282
sS'x'
F268
sg18
I00
s(dp32
S'y'
F134
sS'x'
F389
sg18
I00
stp33
s(dp34
g14
((dp35
g16
S'curve'
p36
sS'x'
F534
sg18
I01
sS'y'
F-420
s(dp37
S'y'
F-420
sS'x'
F408
sg18
I00
s(dp38
S'y'
F-381
sS'x'
F289
sg18
I00
s(dp39
g16
S'curve'
p40
sS'x'
F189
sg18
I00
sS'y'
F-331
s(dp41
g16
S'line'
p42
sS'x'
F216
sg18
I00
sS'y'
F-187
s(dp43
S'y'
F-238
sS'x'
F300
sg18
I00
s(dp44
S'y'
F-282
sS'x'
F416
sg18
I00
s(dp45
g16
S'curve'
p46
sS'x'
F528
sg18
I01
sS'y'
F-282
s(dp47
S'y'
F-282
sS'x'
F790
sg18
I00
s(dp48
S'y'
F-183
sS'x'
F920
sg18
I00
s(dp49
g16
S'curve'
p50
sS'x'
F920
sg18
I01
sS'y'
F49
s(dp51
g16
S'line'
p52
sS'x'
F920
sg18
I00
sS'y'
F273
s(dp53
g16
S'line'
p54
sS'x'
F948
sg18
I00
sS'y'
F253
s(dp55
S'y'
F139
sS'x'
F905
sg18
I00
s(dp56
S'y'
F0
sS'x'
F802
sg18
I00
s(dp57
g16
S'curve'
p58
sS'x'
F579
sg18
I01
sS'y'
F0
s(dp59
S'y'
F0
sS'x'
F298
sg18
I00
s(dp60
S'y'
F201
sS'x'
F98
sg18
I00
s(dp61
g16
S'curve'
p62
sS'x'
F98
sg18
I01
sS'y'
F511
s(dp63
S'y'
F843
sS'x'
F98
sg18
I00
s(dp64
S'y'
F1052
sS'x'
F284
sg18
I00
s(dp65
g16
S'curve'
p66
sS'x'
F579
sg18
I01
sS'y'
F1052
s(dp67
S'y'
F1052
sS'x'
F820
sg18
I00
s(dp68
S'y'
F900
sS'x'
F903
sg18
I00
s(dp69
g16
S'curve'
p70
sS'x'
F958
sg18
I00
sS'y'
F798
s(dp71
g16
S'line'
p72
sS'x'
F919
sg18
I00
sS'y'
F787
s(dp73
g16
S'line'
p74
sS'x'
F926
sg18
I00
sS'y'
F1026
s(dp75
g16
S'line'
p76
sS'x'
F1090
sg18
I00
sS'y'
F1026
s(dp77
S'y'
F1026
sS'x'
F1090
sg18
I00
s(dp78
S'y'
F857
sS'x'
F1084
sg18
I00
s(dp79
g16
S'curve'
p80
sS'x'
F1084
sg18
I01
sS'y'
F773
s(dp81
g16
S'line'
p82
sS'x'
F1084
sg18
I01
sS'y'
F143
s(dp83
S'y'
F-255
sS'x'
F1084
sg18
I00
s(dp84
S'y'
F-420
sS'x'
F903
sg18
I00
stp85
stp86
sS'components'
p87
(tsS'anchors'
p88
(tsss."
AnchorPoint: "top" 639 1026 basechar 0
LayerCount: 2
Fore
SplineSet
481 -418 m 256
 346 -418 227 -391 112 -331 c 257
 160 -172 l 257
 272 -240 376 -269 492 -269 c 256
 704 -269 850 -158 879 85 c 258
 892 192 l 257
 830 100 715 14 546 14 c 256
 291 14 120 171 120 435 c 0
 120 461 122 488 125 516 c 256
 164 827 362 1052 673 1052 c 256
 839 1052 934 968 977 874 c 257
 999 1026 l 257
 1189 1026 l 257
 1189 1026 1156 860 1143 750 c 258
 1068 140 l 258
 1029 -179 847 -418 481 -418 c 256
679 902 m 256
 461 902 311 709 311 444 c 0
 311 262 403 158 575 158 c 256
 807 158 944 346 944 605 c 0
 944 786 851 902 679 902 c 256
EndSplineSet
EndChar

StartChar: germandbls
Encoding: 223 223 282
Width: 1251
VWidth: 0
Flags: HW
PickledData: "(dp1
S'org.robofab.postScriptHintData'
p2
(dp3
sS'com.typemytype.robofont.layerData'
p4
(dp5
S'b'
(dp6
S'name'
p7
S'germandbls'
p8
sS'lib'
p9
(dp10
sS'unicodes'
p11
(tsS'width'
p12
F1250.95145088
sS'contours'
p13
(tsS'components'
p14
(tsS'anchors'
p15
(tsss."
LayerCount: 2
Fore
SplineSet
1132 399 m 0
 1132 137 928 -24 706 -24 c 256
 543 -24 409 29 391 37 c 257
 438 182 l 257
 456 175 575 124 686 124 c 0
 826 124 934 209 934 372 c 0
 934 538 801 644 557 751 c 257
 575 891 l 257
 783 960 862 1047 877 1174 c 256
 878 1182 878 1189 878 1197 c 0
 878 1294 802 1355 678 1355 c 256
 511 1355 409 1227 384 1028 c 258
 258 0 l 257
 77 0 l 257
 202 1026 l 258
 240 1337 424 1503 696 1503 c 256
 930 1503 1071 1391 1071 1220 c 0
 1071 1207 1071 1194 1069 1181 c 256
 1050 1024 957 924 783 854 c 257
 768 846 729 832 713 827 c 257
 728 823 764 811 779 805 c 256
 962 736 1132 615 1132 399 c 0
EndSplineSet
EndChar

StartChar: grave
Encoding: 96 96 283
Width: 597
VWidth: 0
Flags: HW
PickledData: "(dp1
S'org.robofab.postScriptHintData'
p2
(dp3
sS'com.typemytype.robofont.layerData'
p4
(dp5
s."
AnchorPoint: "top" 423 1026 mark 0
LayerCount: 2
Fore
SplineSet
361 1173 m 257
 68 1533 l 257
 308 1533 l 257
 514 1173 l 257
 361 1173 l 257
EndSplineSet
EndChar

StartChar: greater
Encoding: 62 62 284
Width: 1256
VWidth: 0
Flags: HW
PickledData: "(dp1
S'org.robofab.postScriptHintData'
p2
(dp3
sS'com.typemytype.robofont.layerData'
p4
(dp5
S'b'
(dp6
S'name'
p7
S'greater'
p8
sS'lib'
p9
(dp10
sS'unicodes'
p11
(tsS'width'
p12
F1268.05
sS'contours'
p13
(tsS'components'
p14
(tsS'anchors'
p15
(tsss."
LayerCount: 2
Fore
SplineSet
153 68 m 257
 174 242 l 257
 913 560 l 257
 261 903 l 257
 281 1075 l 257
 1156 602 l 257
 1144 504 l 257
 153 68 l 257
EndSplineSet
EndChar

StartChar: greaterequal
Encoding: 8805 8805 285
Width: 1350
VWidth: 0
Flags: HW
PickledData: "(dp1
S'org.robofab.postScriptHintData'
p2
(dp3
sS'com.typemytype.robofont.layerData'
p4
(dp5
S'b'
(dp6
S'name'
p7
S'greaterequal'
p8
sS'lib'
p9
(dp10
sS'unicodes'
p11
(tsS'width'
p12
F1350.3499999999999
sS'contours'
p13
(tsS'components'
p14
(tsS'anchors'
p15
(tsss."
LayerCount: 2
Fore
SplineSet
150 214 m 257
 171 387 l 257
 916 708 l 257
 257 1049 l 257
 277 1220 l 257
 1153 753 l 257
 1141 657 l 257
 150 214 l 257
114 0 m 257
 129 130 l 257
 1104 130 l 257
 1088 0 l 257
 114 0 l 257
EndSplineSet
EndChar

StartChar: guillemotleft
Encoding: 171 171 286
Width: 1118
VWidth: 0
Flags: HW
PickledData: "(dp1
S'org.robofab.postScriptHintData'
p2
(dp3
sS'com.typemytype.robofont.layerData'
p4
(dp5
S'b'
(dp6
S'name'
p7
S'guillemotright'
p8
sS'lib'
p9
(dp10
sS'unicodes'
p11
(tsS'width'
p12
F1122.45
sS'contours'
p13
(tsS'components'
p14
(tsS'anchors'
p15
(tsss."
LayerCount: 2
Fore
SplineSet
357 170 m 257
 132 543 l 257
 454 918 l 257
 616 918 l 257
 323 543 l 257
 517 170 l 257
 357 170 l 257
786 170 m 257
 561 543 l 257
 884 918 l 257
 1046 918 l 257
 752 543 l 257
 947 170 l 257
 786 170 l 257
EndSplineSet
EndChar

StartChar: guillemotright
Encoding: 187 187 287
Width: 1118
VWidth: 0
Flags: HW
PickledData: "(dp1
S'org.robofab.postScriptHintData'
p2
(dp3
sS'com.typemytype.robofont.layerData'
p4
(dp5
S'b'
(dp6
S'name'
p7
S'guillemotright'
p8
sS'lib'
p9
(dp10
sS'unicodes'
p11
(tsS'width'
p12
F1122.45
sS'contours'
p13
(tsS'components'
p14
(tsS'anchors'
p15
(tsss."
LayerCount: 2
Fore
SplineSet
89 168 m 257
 382 543 l 257
 188 916 l 257
 349 916 l 257
 574 543 l 257
 252 168 l 257
 89 168 l 257
519 168 m 257
 812 543 l 257
 619 916 l 257
 778 916 l 257
 1003 543 l 257
 681 168 l 257
 519 168 l 257
EndSplineSet
EndChar

StartChar: guilsinglleft
Encoding: 8249 8249 288
Width: 685
VWidth: 0
Flags: HW
PickledData: "(dp1
S'org.robofab.postScriptHintData'
p2
(dp3
sS'com.typemytype.robofont.layerData'
p4
(dp5
S'b'
(dp6
S'name'
p7
S'guilsinglleft'
p8
sS'lib'
p9
(dp10
sS'unicodes'
p11
(tsS'width'
p12
F688.39999999999998
sS'contours'
p13
(tsS'components'
p14
(tsS'anchors'
p15
(tsss."
LayerCount: 2
Fore
SplineSet
363 168 m 257
 138 541 l 257
 460 916 l 257
 623 916 l 257
 329 541 l 257
 524 168 l 257
 363 168 l 257
EndSplineSet
EndChar

StartChar: guilsinglright
Encoding: 8250 8250 289
Width: 685
VWidth: 0
Flags: HW
PickledData: "(dp1
S'org.robofab.postScriptHintData'
p2
(dp3
sS'com.typemytype.robofont.layerData'
p4
(dp5
S'b'
(dp6
S'name'
p7
S'guilsinglleft'
p8
sS'lib'
p9
(dp10
sS'unicodes'
p11
(tsS'width'
p12
F688.39999999999998
sS'contours'
p13
(tsS'components'
p14
(tsS'anchors'
p15
(tsss."
LayerCount: 2
Fore
SplineSet
87 167 m 257
 380 543 l 257
 186 915 l 257
 346 915 l 257
 571 542 l 257
 250 167 l 257
 87 167 l 257
EndSplineSet
EndChar

StartChar: h
Encoding: 104 104 290
Width: 1237
VWidth: 0
Flags: HW
PickledData: "(dp1
S'org.robofab.postScriptHintData'
p2
(dp3
sS'com.typemytype.robofont.layerData'
p4
(dp5
S'b'
(dp6
S'name'
p7
S'h'
sS'lib'
p8
(dp9
sS'unicodes'
p10
(tsS'width'
p11
F1237.95
sS'contours'
p12
((dp13
S'points'
p14
((dp15
S'segmentType'
p16
S'line'
p17
sS'x'
F178
sS'smooth'
p18
I00
sS'y'
F0
s(dp19
g16
S'line'
p20
sS'x'
F178
sg18
I01
sS'y'
F779
s(dp21
S'y'
F902
sS'x'
F178
sg18
I00
s(dp22
S'y'
F1026
sS'x'
F172
sg18
I00
s(dp23
g16
S'curve'
p24
sS'x'
F172
sg18
I00
sS'y'
F1026
s(dp25
g16
S'line'
p26
sS'x'
F339
sg18
I00
sS'y'
F1026
s(dp27
g16
S'line'
p28
sS'x'
F343
sg18
I00
sS'y'
F864
s(dp29
S'y'
F976
sS'x'
F423
sg18
I00
s(dp30
S'y'
F1051
sS'x'
F548
sg18
I00
s(dp31
g16
S'curve'
p32
sS'x'
F700
sg18
I01
sS'y'
F1051
s(dp33
S'y'
F1051
sS'x'
F999
sg18
I00
s(dp34
S'y'
F844
sS'x'
F1082
sg18
I00
s(dp35
g16
S'curve'
p36
sS'x'
F1082
sg18
I01
sS'y'
F550
s(dp37
g16
S'line'
p38
sS'x'
F1082
sg18
I00
sS'y'
F0
s(dp39
g16
S'line'
p40
sS'x'
F917
sg18
I00
sS'y'
F0
s(dp41
g16
S'line'
p42
sS'x'
F917
sg18
I01
sS'y'
F531
s(dp43
S'y'
F764
sS'x'
F917
sg18
I00
s(dp44
S'y'
F917
sS'x'
F886
sg18
I00
s(dp45
g16
S'curve'
p46
sS'x'
F670
sg18
I01
sS'y'
F917
s(dp47
S'y'
F917
sS'x'
F471
sg18
I00
s(dp48
S'y'
F742
sS'x'
F344
sg18
I00
s(dp49
g16
S'curve'
p50
sS'x'
F343
sg18
I00
sS'y'
F652
s(dp51
g16
S'line'
p52
sS'x'
F343
sg18
I00
sS'y'
F0
stp53
stp54
sS'components'
p55
(tsS'anchors'
p56
(tsss."
AnchorPoint: "top" 733 1026 basechar 0
LayerCount: 2
Fore
SplineSet
74 0 m 257
 257 1486 l 257
 441 1486 l 257
 365 865 l 257
 440 977 592 1052 737 1052 c 256
 968 1052 1068 901 1068 702 c 0
 1068 675 1067 647 1063 619 c 258
 987 0 l 257
 803 0 l 257
 878 614 l 258
 882 645 884 673 884 698 c 0
 884 839 824 902 693 902 c 256
 526 902 354 769 336 622 c 258
 259 0 l 257
 74 0 l 257
EndSplineSet
EndChar

StartChar: hungarumlaut
Encoding: 733 733 293
Width: 969
VWidth: 0
Flags: HW
PickledData: "(dp1
S'org.robofab.postScriptHintData'
p2
(dp3
s."
AnchorPoint: "top" 242 1026 mark 0
LayerCount: 2
Fore
SplineSet
60 1160 m 257
 318 1532 l 257
 516 1532 l 257
 193 1160 l 257
 60 1160 l 257
385 1160 m 257
 670 1532 l 257
 879 1532 l 257
 521 1160 l 257
 385 1160 l 257
EndSplineSet
EndChar

StartChar: hyphen
Encoding: 45 45 294
Width: 679
VWidth: 0
Flags: HW
PickledData: "(dp1
S'org.robofab.postScriptHintData'
p2
(dp3
sS'com.typemytype.robofont.layerData'
p4
(dp5
S'b'
(dp6
S'name'
p7
S'hyphen'
p8
sS'lib'
p9
(dp10
sS'unicodes'
p11
(tsS'width'
p12
F683.5
sS'contours'
p13
(tsS'components'
p14
(tsS'anchors'
p15
(tsss."
LayerCount: 2
Fore
SplineSet
53 487 m 257
 70 629 l 257
 626 629 l 257
 608 487 l 257
 53 487 l 257
EndSplineSet
EndChar

StartChar: i
Encoding: 105 105 295
Width: 596
VWidth: 0
Flags: HW
PickledData: "(dp1
S'org.robofab.postScriptHintData'
p2
(dp3
sS'com.typemytype.robofont.layerData'
p4
(dp5
S'b'
(dp6
S'name'
p7
S'i'
sS'lib'
p8
(dp9
sS'unicodes'
p10
(tsS'width'
p11
F521.10000000000002
sS'contours'
p12
(tsS'components'
p13
(tsS'anchors'
p14
(tsss."
LayerCount: 2
Fore
SplineSet
159 0 m 257
 285 1026 l 257
 468 1026 l 257
 342 0 l 257
 159 0 l 257
318 1285 m 257
 338 1456 l 257
 520 1456 l 257
 499 1285 l 257
 318 1285 l 257
EndSplineSet
EndChar

StartChar: increment
Encoding: 8710 8710 307
Width: 1309
VWidth: 0
Flags: HW
PickledData: "(dp1
S'org.robofab.postScriptHintData'
p2
(dp3
sS'com.typemytype.robofont.layerData'
p4
(dp5
S'b'
(dp6
S'name'
p7
S'uni2206'
p8
sS'lib'
p9
(dp10
sS'unicodes'
p11
(tsS'width'
p12
F1312.25
sS'contours'
p13
(tsS'components'
p14
(tsS'anchors'
p15
(tsss."
LayerCount: 2
Fore
SplineSet
-33 0 m 257
 -23 84 l 257
 673 1455 l 257
 827 1455 l 257
 1170 84 l 257
 1160 0 l 257
 -33 0 l 257
182 142 m 257
 975 142 l 257
 720 1237 l 257
 182 142 l 257
EndSplineSet
EndChar

StartChar: infinity
Encoding: 8734 8734 308
Width: 1728
VWidth: 0
Flags: HW
PickledData: "(dp1
S'org.robofab.postScriptHintData'
p2
(dp3
s."
LayerCount: 2
Fore
SplineSet
1631 649 m 0
 1631 401 1427 235 1221 235 c 256
 1072 235 962 317 851 488 c 257
 717 338 578 235 417 235 c 256
 219 235 96 381 96 563 c 0
 96 787 295 952 501 952 c 256
 665 952 780 853 878 699 c 257
 1008 849 1142 952 1311 952 c 256
 1512 952 1631 828 1631 649 c 0
486 826 m 256
 339 826 234 710 234 567 c 0
 234 460 308 363 439 363 c 256
 568 363 687 466 794 591 c 257
 719 724 625 826 486 826 c 256
1239 363 m 256
 1387 363 1467 476 1485 621 c 256
 1486 630 1487 638 1487 646 c 0
 1487 746 1411 826 1291 826 c 256
 1161 826 1032 714 936 595 c 257
 1036 443 1117 363 1239 363 c 256
EndSplineSet
EndChar

StartChar: integral
Encoding: 8747 8747 309
Width: 749
VWidth: 0
Flags: HW
PickledData: "(dp1
S'org.robofab.postScriptHintData'
p2
(dp3
sS'com.typemytype.robofont.layerData'
p4
(dp5
S'b'
(dp6
S'name'
p7
S'integral'
p8
sS'lib'
p9
(dp10
sS'unicodes'
p11
(tsS'width'
p12
F754
sS'contours'
p13
(tsS'components'
p14
(tsS'anchors'
p15
(tsss."
LayerCount: 2
Fore
SplineSet
66 -305 m 256
 -24 -305 -76 -283 -76 -283 c 257
 -58 -139 l 257
 -58 -139 19 -154 73 -154 c 256
 197 -154 228 -83 244 50 c 258
 384 1189 l 258
 411 1406 488 1567 715 1567 c 256
 803 1567 852 1545 852 1545 c 257
 834 1399 l 257
 834 1399 783 1416 726 1416 c 256
 602 1416 573 1345 556 1212 c 258
 417 73 l 258
 390 -145 294 -305 66 -305 c 256
EndSplineSet
EndChar

StartChar: j
Encoding: 106 106 312
Width: 510
VWidth: 0
Flags: HW
PickledData: "(dp1
S'org.robofab.postScriptHintData'
p2
(dp3
sS'com.typemytype.robofont.layerData'
p4
(dp5
S'b'
(dp6
S'name'
p7
S'j'
sS'lib'
p8
(dp9
sS'unicodes'
p10
(tsS'width'
p11
F536.89999999999998
sS'contours'
p12
((dp13
S'points'
p14
((dp15
S'segmentType'
p16
S'curve'
p17
sS'x'
F65
sS'smooth'
p18
I01
sS'y'
F-410
s(dp19
S'y'
F-410
sS'x'
F-24
sg18
I00
s(dp20
S'y'
F-390
sS'x'
F-117
sg18
I00
s(dp21
g16
S'curve'
p22
sS'x'
F-117
sg18
I00
sS'y'
F-390
s(dp23
g16
S'line'
p24
sS'x'
F-102
sg18
I00
sS'y'
F-267
s(dp25
S'y'
F-267
sS'x'
F-102
sg18
I00
s(dp26
S'y'
F-280
sS'x'
F-44
sg18
I00
s(dp27
g16
S'curve'
p28
sS'x'
F19
sg18
I01
sS'y'
F-280
s(dp29
S'y'
F-280
sS'x'
F153
sg18
I00
s(dp30
S'y'
F-208
sS'x'
F177
sg18
I00
s(dp31
g16
S'curve'
p32
sS'x'
F177
sg18
I01
sS'y'
F-2
s(dp33
g16
S'line'
p34
sS'x'
F177
sg18
I00
sS'y'
F1026
s(dp35
g16
S'line'
p36
sS'x'
F341
sg18
I00
sS'y'
F1026
s(dp37
g16
S'line'
p38
sS'x'
F341
sg18
I01
sS'y'
F-6
s(dp39
S'y'
F-274
sS'x'
F341
sg18
I00
s(dp40
S'y'
F-410
sS'x'
F246
sg18
I00
stp41
s(dp42
g14
((dp43
g16
S'line'
p44
sS'x'
F177
sg18
I00
sS'y'
F1307
s(dp45
g16
S'line'
p46
sS'x'
F177
sg18
I00
sS'y'
F1462
s(dp47
g16
S'line'
p48
sS'x'
F341
sg18
I00
sS'y'
F1462
s(dp49
g16
S'line'
p50
sS'x'
F341
sg18
I00
sS'y'
F1307
stp51
stp52
sS'components'
p53
(tsS'anchors'
p54
(tsss."
LayerCount: 2
Fore
SplineSet
271 1277 m 261
 293 1456 l 261
 475 1456 l 261
 453 1277 l 261
 271 1277 l 261
EndSplineSet
Refer: 235 567 N 1 0 0 1 0 0 2
EndChar

StartChar: k
Encoding: 107 107 315
Width: 1111
VWidth: 0
Flags: HW
PickledData: "(dp1
S'org.robofab.postScriptHintData'
p2
(dp3
sS'com.typemytype.robofont.layerData'
p4
(dp5
S'b'
(dp6
S'name'
p7
S'k'
sS'lib'
p8
(dp9
sS'unicodes'
p10
(tsS'width'
p11
F1078.6500000000001
sS'contours'
p12
(tsS'components'
p13
(tsS'anchors'
p14
(tsss."
AnchorPoint: "top" 731 1026 basechar 0
LayerCount: 2
Fore
SplineSet
82 0 m 257
 265 1486 l 257
 449 1486 l 257
 339 587 l 257
 837 1026 l 257
 1090 1026 l 257
 510 537 l 257
 1000 0 l 257
 755 0 l 257
 326 485 l 257
 267 0 l 257
 82 0 l 257
EndSplineSet
EndChar

StartChar: kgreenlandic
Encoding: 312 312 318
Width: 1082
VWidth: 0
Flags: HW
PickledData: "(dp1
S'org.robofab.postScriptHintData'
p2
(dp3
sS'com.typemytype.robofont.layerData'
p4
(dp5
s."
LayerCount: 2
Fore
SplineSet
107 0 m 257
 233 1026 l 257
 418 1026 l 257
 362 571 l 257
 857 1026 l 257
 1101 1026 l 257
 518 517 l 257
 1012 0 l 257
 775 0 l 257
 348 455 l 257
 292 0 l 257
 107 0 l 257
EndSplineSet
EndChar

StartChar: l
Encoding: 108 108 319
Width: 526
VWidth: 0
Flags: HW
PickledData: "(dp1
S'org.robofab.postScriptHintData'
p2
(dp3
sS'com.typemytype.robofont.layerData'
p4
(dp5
S'b'
(dp6
S'name'
p7
S'l'
sS'lib'
p8
(dp9
sS'unicodes'
p10
(tsS'width'
p11
F521.79999999999995
sS'contours'
p12
(tsS'components'
p13
(tsS'anchors'
p14
(tsss."
AnchorPoint: "caron.alt" 287 1026 basechar 0
AnchorPoint: "top" 356 1456 basechar 0
LayerCount: 2
Fore
SplineSet
86 0 m 257
 268 1486 l 257
 453 1486 l 257
 270 0 l 257
 86 0 l 257
EndSplineSet
EndChar

StartChar: less
Encoding: 60 60 324
Width: 1255
VWidth: 0
Flags: HW
PickledData: "(dp1
S'org.robofab.postScriptHintData'
p2
(dp3
sS'com.typemytype.robofont.layerData'
p4
(dp5
S'b'
(dp6
S'name'
p7
S'less'
p8
sS'lib'
p9
(dp10
sS'unicodes'
p11
(tsS'width'
p12
F1267.3499999999999
sS'contours'
p13
(tsS'components'
p14
(tsS'anchors'
p15
(tsss."
LayerCount: 2
Fore
SplineSet
976 67 m 257
 100 534 l 257
 113 630 l 257
 1104 1072 l 257
 1083 900 l 257
 339 579 l 257
 997 238 l 257
 976 67 l 257
EndSplineSet
EndChar

StartChar: lessequal
Encoding: 8804 8804 325
Width: 1350
VWidth: 0
Flags: HW
PickledData: "(dp1
S'org.robofab.postScriptHintData'
p2
(dp3
sS'com.typemytype.robofont.layerData'
p4
(dp5
S'b'
(dp6
S'name'
p7
S'lessequal'
p8
sS'lib'
p9
(dp10
sS'unicodes'
p11
(tsS'width'
p12
F1350.3499999999999
sS'contours'
p13
(tsS'components'
p14
(tsS'anchors'
p15
(tsss."
LayerCount: 2
Fore
SplineSet
1073 215 m 257
 198 680 l 257
 210 776 l 257
 1202 1220 l 257
 1181 1047 l 257
 436 726 l 257
 1094 384 l 257
 1073 215 l 257
94 0 m 257
 109 130 l 257
 1084 130 l 257
 1068 0 l 257
 94 0 l 257
EndSplineSet
EndChar

StartChar: logicalnot
Encoding: 172 172 327
Width: 1464
VWidth: 0
Flags: HW
PickledData: "(dp1
S'org.robofab.postScriptHintData'
p2
(dp3
sS'com.typemytype.robofont.layerData'
p4
(dp5
S'b'
(dp6
S'name'
p7
S'logicalnot'
p8
sS'lib'
p9
(dp10
sS'unicodes'
p11
(tsS'width'
p12
F1463.2
sS'contours'
p13
(tsS'components'
p14
(tsS'anchors'
p15
(tsss."
LayerCount: 2
Fore
SplineSet
1044 234 m 257
 1094 646 l 257
 212 646 l 257
 231 802 l 257
 1284 802 l 257
 1214 234 l 257
 1044 234 l 257
EndSplineSet
EndChar

StartChar: lozenge
Encoding: 9674 9674 329
Width: 1248
VWidth: 0
Flags: HW
PickledData: "(dp1
S'org.robofab.postScriptHintData'
p2
(dp3
sS'com.typemytype.robofont.layerData'
p4
(dp5
s."
LayerCount: 2
Fore
SplineSet
457 -42 m 257
 102 710 l 257
 650 1463 l 257
 770 1463 l 257
 1128 711 l 257
 576 -42 l 257
 457 -42 l 257
538 132 m 257
 954 710 l 257
 689 1282 l 257
 274 710 l 257
 538 132 l 257
EndSplineSet
EndChar

StartChar: lslash
Encoding: 322 322 330
Width: 503
VWidth: 0
Flags: HW
PickledData: "(dp1
S'org.robofab.postScriptHintData'
p2
(dp3
s."
LayerCount: 2
Fore
SplineSet
64 0 m 257
 150 698 l 257
 -16 598 l 257
 3 756 l 257
 170 856 l 257
 247 1483 l 257
 432 1483 l 257
 369 977 l 257
 537 1077 l 257
 517 919 l 257
 351 817 l 257
 250 0 l 257
 64 0 l 257
EndSplineSet
EndChar

StartChar: m
Encoding: 109 109 331
Width: 1881
VWidth: 0
Flags: HW
PickledData: "(dp1
S'org.robofab.postScriptHintData'
p2
(dp3
sS'com.typemytype.robofont.guides'
p4
(tsS'com.typemytype.robofont.layerData'
p5
(dp6
S'b'
(dp7
S'name'
p8
S'm'
sS'lib'
p9
(dp10
sS'unicodes'
p11
(tsS'width'
p12
F1873.95
sS'contours'
p13
(tsS'components'
p14
(tsS'anchors'
p15
(tsss."
AnchorPoint: "top" 1058 1026 basechar 0
LayerCount: 2
Fore
SplineSet
112 0 m 257
 205 758 l 258
 219 871 223 967 227 1026 c 257
 418 1026 l 257
 399 860 l 257
 471 982 613 1052 752 1052 c 256
 897 1052 1003 973 1037 830 c 257
 1128 967 1269 1052 1431 1052 c 256
 1639 1052 1741 929 1741 721 c 0
 1741 692 1739 661 1735 628 c 258
 1657 0 l 257
 1473 0 l 257
 1548 613 l 258
 1552 642 1554 669 1554 695 c 0
 1554 822 1507 902 1396 902 c 256
 1232 902 1082 767 1052 592 c 257
 979 0 l 257
 795 0 l 257
 873 629 l 258
 876 652 877 674 877 695 c 0
 877 814 831 902 706 902 c 256
 540 902 403 775 375 625 c 257
 297 0 l 257
 112 0 l 257
EndSplineSet
EndChar

StartChar: macron
Encoding: 175 175 332
Width: 720
VWidth: 0
Flags: HW
PickledData: "(dp1
S'org.robofab.postScriptHintData'
p2
(dp3
sS'com.typemytype.robofont.layerData'
p4
(dp5
S'b'
(dp6
S'name'
p7
S'macron'
p8
sS'lib'
p9
(dp10
sS'unicodes'
p11
(tsS'width'
p12
F723
sS'contours'
p13
(tsS'components'
p14
(tsS'anchors'
p15
(tsss."
AnchorPoint: "top" 307 1026 mark 0
LayerCount: 2
Fore
SplineSet
61 1242 m 257
 75 1366 l 257
 660 1366 l 257
 645 1242 l 257
 61 1242 l 257
EndSplineSet
EndChar

StartChar: minus
Encoding: 8722 8722 335
Width: 1287
VWidth: 0
Flags: HW
PickledData: "(dp1
S'org.robofab.postScriptHintData'
p2
(dp3
s."
LayerCount: 2
Fore
SplineSet
165 443 m 257
 183 595 l 257
 1122 595 l 257
 1104 443 l 257
 165 443 l 257
EndSplineSet
EndChar

StartChar: mu
Encoding: 956 956 336
Width: 1235
VWidth: 0
Flags: HW
PickledData: "(dp1
S'org.robofab.postScriptHintData'
p2
(dp3
s."
LayerCount: 2
Fore
SplineSet
263 -276 m 257
 80 -276 l 257
 239 1026 l 257
 423 1026 l 257
 345 392 l 258
 343 372 342 353 342 336 c 0
 342 195 416 127 555 127 c 256
 741 127 857 246 876 403 c 258
 953 1026 l 257
 1137 1026 l 257
 1042 254 l 258
 1032 175 1022 39 1020 0 c 257
 833 0 l 257
 848 165 l 257
 789 76 677 -23 506 -23 c 256
 420 -23 352 -5 301 30 c 257
 263 -276 l 257
EndSplineSet
EndChar

StartChar: multiply
Encoding: 215 215 337
Width: 1231
VWidth: 0
Flags: HW
PickledData: "(dp1
S'org.robofab.postScriptHintData'
p2
(dp3
sS'com.typemytype.robofont.layerData'
p4
(dp5
s."
LayerCount: 2
Fore
SplineSet
285 145 m 257
 182 262 l 257
 507 553 l 257
 253 842 l 257
 385 960 l 257
 639 670 l 257
 965 960 l 257
 1068 842 l 257
 742 553 l 257
 997 263 l 257
 864 145 l 257
 611 433 l 257
 285 145 l 257
EndSplineSet
EndChar

StartChar: n
Encoding: 110 110 338
Width: 1244
VWidth: 0
Flags: HW
PickledData: "(dp1
S'org.robofab.postScriptHintData'
p2
(dp3
sS'com.typemytype.robofont.layerData'
p4
(dp5
S'b'
(dp6
S'name'
p7
S'n'
sS'lib'
p8
(dp9
sS'unicodes'
p10
(tsS'width'
p11
F1240.05
sS'contours'
p12
(tsS'components'
p13
(tsS'anchors'
p14
(tsss."
AnchorPoint: "top" 746 1026 basechar 0
LayerCount: 2
Fore
SplineSet
112 0 m 257
 203 742 l 257
 223 896 227 1026 227 1026 c 257
 417 1026 l 257
 400 865 l 257
 486 986 636 1052 773 1052 c 256
 997 1052 1101 935 1101 700 c 0
 1101 662 1098 622 1093 578 c 258
 1021 0 l 257
 837 0 l 257
 908 577 l 258
 913 616 915 653 915 685 c 0
 915 827 864 902 722 902 c 256
 566 902 404 778 376 643 c 257
 297 0 l 257
 112 0 l 257
EndSplineSet
EndChar

StartChar: nine
Encoding: 57 57 343
Width: 1232
VWidth: 0
Flags: HW
PickledData: "(dp1
S'org.robofab.postScriptHintData'
p2
(dp3
sS'com.typemytype.robofont.layerData'
p4
(dp5
S'b'
(dp6
S'name'
p7
S'nine'
p8
sS'lib'
p9
(dp10
sS'unicodes'
p11
(tsS'width'
p12
F1235.4000000000001
sS'contours'
p13
((dp14
S'points'
p15
((dp16
S'segmentType'
p17
S'curve'
p18
sS'x'
F314
sS'smooth'
p19
I01
sS'y'
F1010
s(dp20
S'y'
F827
sS'x'
F314
sg19
I00
s(dp21
S'y'
F687
sS'x'
F393
sg19
I00
s(dp22
g17
S'curve'
p23
sS'x'
F604
sg19
I01
sS'y'
F687
s(dp24
S'y'
F687
sS'x'
F784
sg19
I00
s(dp25
S'y'
F803
sS'x'
F908
sg19
I00
s(dp26
g17
S'curve'
p27
sS'x'
F908
sg19
I01
sS'y'
F991
s(dp28
S'y'
F1166
sS'x'
F908
sg19
I00
s(dp29
S'y'
F1334
sS'x'
F815
sg19
I00
s(dp30
g17
S'curve'
p31
sS'x'
F605
sg19
I01
sS'y'
F1334
s(dp32
S'y'
F1334
sS'x'
F419
sg19
I00
s(dp33
S'y'
F1196
sS'x'
F314
sg19
I00
stp34
s(dp35
g15
((dp36
g17
S'curve'
p37
sS'x'
F555
sg19
I01
sS'y'
F-24
s(dp38
S'y'
F-24
sS'x'
F434
sg19
I00
s(dp39
S'y'
F13
sS'x'
F304
sg19
I00
s(dp40
g17
S'curve'
p41
sS'x'
F175
sg19
I00
sS'y'
F79
s(dp42
g17
S'line'
p43
sS'x'
F232
sg19
I00
sS'y'
F211
s(dp44
S'y'
F152
sS'x'
F346
sg19
I00
s(dp45
S'y'
F124
sS'x'
F450
sg19
I00
s(dp46
g17
S'curve'
p47
sS'x'
F542
sg19
I01
sS'y'
F124
s(dp48
S'y'
F124
sS'x'
F773
sg19
I00
s(dp49
S'y'
F308
sS'x'
F920
sg19
I00
s(dp50
g17
S'curve'
p51
sS'x'
F920
sg19
I01
sS'y'
F657
s(dp52
g17
S'line'
p53
sS'x'
F920
sg19
I00
sS'y'
F722
s(dp54
S'y'
F600
sS'x'
F856
sg19
I00
s(dp55
S'y'
F544
sS'x'
F742
sg19
I00
s(dp56
g17
S'curve'
p57
sS'x'
F577
sg19
I01
sS'y'
F544
s(dp58
S'y'
F544
sS'x'
F298
sg19
I00
s(dp59
S'y'
F735
sS'x'
F138
sg19
I00
s(dp60
g17
S'curve'
p61
sS'x'
F138
sg19
I01
sS'y'
F1004
s(dp62
S'y'
F1275
sS'x'
F138
sg19
I00
s(dp63
S'y'
F1483
sS'x'
F311
sg19
I00
s(dp64
g17
S'curve'
p65
sS'x'
F613
sg19
I01
sS'y'
F1483
s(dp66
S'y'
F1483
sS'x'
F939
sg19
I00
s(dp67
S'y'
F1231
sS'x'
F1095
sg19
I00
s(dp68
g17
S'curve'
p69
sS'x'
F1095
sg19
I01
sS'y'
F774
s(dp70
S'y'
F203
sS'x'
F1095
sg19
I00
s(dp71
S'y'
F-24
sS'x'
F855
sg19
I00
stp72
stp73
sS'components'
p74
(tsS'anchors'
p75
(tsss."
LayerCount: 2
Fore
SplineSet
467 -22 m 256
 349 -22 237 9 126 71 c 257
 210 223 l 257
 292 169 380 139 474 139 c 256
 708 139 861 346 899 651 c 256
 900 656 906 698 906 701 c 257
 833 595 705 534 554 534 c 256
 307 534 159 689 159 925 c 0
 159 949 161 974 164 1000 c 256
 198 1273 404 1482 700 1482 c 256
 980 1482 1117 1296 1117 960 c 0
 1117 902 1113 839 1105 772 c 256
 1044 270 805 -22 467 -22 c 256
682 1321 m 256
 484 1321 355 1159 355 940 c 0
 355 797 424 692 593 692 c 256
 792 692 935 833 935 1042 c 0
 935 1191 859 1321 682 1321 c 256
EndSplineSet
EndChar

StartChar: notequal
Encoding: 8800 8800 345
Width: 1360
VWidth: 0
Flags: HW
PickledData: "(dp1
S'org.robofab.postScriptHintData'
p2
(dp3
sS'com.typemytype.robofont.layerData'
p4
(dp5
S'b'
(dp6
S'name'
p7
S'notequal'
p8
sS'lib'
p9
(dp10
sS'unicodes'
p11
(tsS'width'
p12
F1362.5
sS'contours'
p13
(tsS'components'
p14
(tsS'anchors'
p15
(tsss."
LayerCount: 2
Fore
SplineSet
415 43 m 257
 278 64 l 257
 433 319 l 257
 139 319 l 257
 156 456 l 257
 520 456 l 257
 686 714 l 257
 188 714 l 257
 205 852 l 257
 768 852 l 257
 935 1123 l 257
 1076 1102 l 257
 922 852 l 257
 1238 852 l 257
 1221 714 l 257
 839 714 l 257
 671 456 l 257
 1189 456 l 257
 1172 319 l 257
 586 319 l 257
 415 43 l 257
EndSplineSet
EndChar

StartChar: numbersign
Encoding: 35 35 347
Width: 1300
VWidth: 0
Flags: HW
PickledData: "(dp1
S'org.robofab.postScriptHintData'
p2
(dp3
sS'com.typemytype.robofont.layerData'
p4
(dp5
s."
LayerCount: 2
Fore
SplineSet
156 42 m 257
 295 483 l 257
 47 483 l 257
 72 608 l 257
 335 608 l 257
 423 890 l 257
 161 890 l 257
 187 1015 l 257
 462 1015 l 257
 593 1431 l 257
 743 1431 l 257
 612 1015 l 257
 865 1015 l 257
 995 1431 l 257
 1143 1431 l 257
 1011 1015 l 257
 1248 1015 l 257
 1223 890 l 257
 973 890 l 257
 884 608 l 257
 1137 608 l 257
 1110 483 l 257
 845 483 l 257
 705 42 l 257
 558 42 l 257
 696 483 l 257
 443 483 l 257
 303 42 l 257
 156 42 l 257
482 608 m 257
 736 608 l 257
 825 890 l 257
 573 890 l 257
 482 608 l 257
EndSplineSet
EndChar

StartChar: o
Encoding: 111 111 348
Width: 1258
VWidth: 0
Flags: HW
PickledData: "(dp1
S'org.robofab.postScriptHintData'
p2
(dp3
sS'com.typemytype.robofont.layerData'
p4
(dp5
S'b'
(dp6
S'name'
p7
S'o'
sS'lib'
p8
(dp9
sS'unicodes'
p10
(tsS'width'
p11
F1259.2
sS'contours'
p12
(tsS'components'
p13
(tsS'anchors'
p14
(tsss."
AnchorPoint: "top" 696 1026 basechar 0
LayerCount: 2
Fore
SplineSet
677 902 m 256
 439 902 288 709 288 439 c 0
 288 254 384 128 584 128 c 257
 826 128 969 322 969 588 c 0
 969 776 873 902 677 902 c 256
565 -22 m 256
 259 -22 95 161 95 425 c 0
 95 453 97 482 101 512 c 256
 139 828 361 1052 699 1052 c 256
 1004 1052 1163 870 1163 603 c 0
 1163 574 1161 543 1157 512 c 256
 1119 203 901 -22 565 -22 c 256
EndSplineSet
EndChar

StartChar: oe
Encoding: 339 339 355
Width: 1978
VWidth: 0
Flags: HW
PickledData: "(dp1
S'org.robofab.postScriptHintData'
p2
(dp3
sS'com.typemytype.robofont.layerData'
p4
(dp5
S'b'
(dp6
S'name'
p7
S'oe'
p8
sS'lib'
p9
(dp10
sS'unicodes'
p11
(tsS'width'
p12
F1979.8
sS'contours'
p13
(tsS'components'
p14
((dp15
S'transformation'
p16
(I1
I0
I0
I1
I-6
I0
tp17
sS'baseGlyph'
p18
S'o'
s(dp19
g16
(I1
I0
I0
I1
I811
I0
tp20
sg18
S'e'
stp21
sS'anchors'
p22
(tsss."
LayerCount: 2
Fore
SplineSet
554 -22 m 256
 253 -22 89 163 89 425 c 0
 89 452 90 480 94 509 c 256
 131 817 349 1052 687 1052 c 256
 881 1052 1003 961 1061 823 c 257
 1148 967 1287 1054 1478 1054 c 256
 1734 1054 1871 884 1871 624 c 0
 1871 592 1869 559 1865 524 c 258
 1858 471 l 257
 1107 471 l 257
 1108 469 1105 443 1105 440 c 256
 1105 432 1104 423 1104 415 c 0
 1104 242 1215 128 1407 128 c 257
 1588 128 1721 221 1742 235 c 257
 1782 101 l 257
 1759 85 1611 -22 1370 -22 c 256
 1195 -22 1035 67 983 208 c 257
 901 66 731 -22 554 -22 c 256
576 128 m 257
 805 128 935 340 935 595 c 0
 935 776 852 902 667 902 c 257
 455 902 316 733 287 506 c 256
 284 483 283 461 283 439 c 0
 283 260 375 128 576 128 c 257
1127 615 m 257
 1704 615 l 257
 1704 621 1707 636 1707 641 c 0
 1707 792 1615 902 1460 902 c 256
 1293 902 1160 771 1127 615 c 257
EndSplineSet
EndChar

StartChar: ogonek
Encoding: 731 731 356
Width: 508
VWidth: 0
Flags: HW
PickledData: "(dp1
S'org.robofab.postScriptHintData'
p2
(dp3
s."
LayerCount: 2
Fore
SplineSet
396 10 m 257
 294 -52 204 -155 204 -234 c 0
 204 -279 238 -307 308 -307 c 256
 352 -307 406 -294 445 -284 c 257
 431 -396 l 257
 372 -414 309 -424 253 -424 c 256
 135 -424 40 -373 40 -271 c 0
 40 -264 40 -257 41 -250 c 256
 56 -135 187 -37 291 15 c 257
 396 10 l 257
EndSplineSet
EndChar

StartChar: one
Encoding: 49 49 361
Width: 1231
VWidth: 0
Flags: HW
PickledData: "(dp1
S'org.robofab.postScriptHintData'
p2
(dp3
sS'com.typemytype.robofont.layerData'
p4
(dp5
S'b'
(dp6
S'name'
p7
S'one'
p8
sS'lib'
p9
(dp10
sS'unicodes'
p11
(tsS'width'
p12
F1234.0999999999999
sS'contours'
p13
(tsS'components'
p14
(tsS'anchors'
p15
(tsss."
LayerCount: 2
Fore
SplineSet
193 0 m 257
 211 150 l 257
 492 150 l 257
 628 1250 l 257
 538 1204 424 1161 315 1122 c 257
 336 1295 l 257
 444 1331 599 1403 694 1456 c 257
 844 1456 l 257
 684 150 l 257
 948 150 l 257
 930 0 l 257
 193 0 l 257
EndSplineSet
EndChar

StartChar: onehalf
Encoding: 189 189 362
Width: 2126
VWidth: 0
Flags: HW
PickledData: "(dp1
S'org.robofab.postScriptHintData'
p2
(dp3
sS'com.typemytype.robofont.layerData'
p4
(dp5
s."
LayerCount: 2
Fore
SplineSet
1194 0 m 257
 1209 126 l 257
 1513 377 l 258
 1639 482 1680 526 1680 610 c 0
 1680 671 1644 714 1562 714 c 256
 1485 714 1400 671 1342 597 c 257
 1280 692 l 257
 1351 786 1466 840 1586 840 c 256
 1732 840 1831 765 1831 632 c 0
 1831 623 1831 614 1830 605 c 256
 1818 462 1732 389 1584 272 c 257
 1400 124 l 257
 1767 124 l 257
 1752 0 l 257
 1194 0 l 257
372 0 m 257
 1452 1456 l 257
 1610 1456 l 257
 534 0 l 257
 372 0 l 257
198 631 m 257
 212 744 l 257
 378 744 l 257
 449 1317 l 257
 261 1253 l 257
 276 1371 l 257
 300 1378 473 1446 490 1456 c 257
 607 1456 l 257
 520 742 l 257
 671 742 l 257
 656 631 l 257
 198 631 l 257
EndSplineSet
EndChar

StartChar: onequarter
Encoding: 188 188 363
Width: 1970
VWidth: 0
Flags: HW
PickledData: "(dp1
S'org.robofab.postScriptHintData'
p2
(dp3
sS'com.typemytype.robofont.layerData'
p4
(dp5
s."
LayerCount: 2
Fore
SplineSet
199 631 m 257
 214 744 l 257
 380 744 l 257
 450 1317 l 257
 262 1253 l 257
 277 1371 l 257
 302 1378 474 1446 491 1456 c 257
 609 1456 l 257
 522 742 l 257
 672 742 l 257
 658 631 l 257
 199 631 l 257
1435 0 m 257
 1457 190 l 257
 1080 190 l 257
 1092 285 l 257
 1523 800 l 257
 1669 800 l 257
 1608 300 l 257
 1719 300 l 257
 1705 190 l 257
 1593 190 l 257
 1570 0 l 257
 1435 0 l 257
403 0 m 257
 1483 1456 l 257
 1642 1456 l 257
 565 0 l 257
 403 0 l 257
1225 300 m 257
 1469 300 l 257
 1511 643 l 257
 1225 300 l 257
EndSplineSet
EndChar

StartChar: onesuperior
Encoding: 185 185 364
Width: 1055
VWidth: 0
Flags: HW
PickledData: "(dp1
S'org.robofab.postScriptHintData'
p2
(dp3
sS'com.typemytype.robofont.layerData'
p4
(dp5
s."
LayerCount: 2
Fore
SplineSet
277 618 m 257
 291 736 l 257
 441 736 l 257
 509 1291 l 257
 486 1279 361 1235 333 1225 c 257
 349 1352 l 257
 387 1364 522 1418 548 1433 c 257
 658 1441 l 257
 571 733 l 257
 712 733 l 257
 698 618 l 257
 277 618 l 257
EndSplineSet
EndChar

StartChar: ordfeminine
Encoding: 170 170 366
Width: 791
VWidth: 0
Flags: HW
PickledData: "(dp1
S'org.robofab.postScriptHintData'
p2
(dp3
sS'com.typemytype.robofont.layerData'
p4
(dp5
S'b'
(dp6
S'name'
p7
S'ordfeminine'
p8
sS'lib'
p9
(dp10
sS'unicodes'
p11
(tsS'width'
p12
F797.10000000000002
sS'contours'
p13
(tsS'components'
p14
(tsS'anchors'
p15
(tsss."
LayerCount: 2
Fore
SplineSet
70 941 m 0
 70 1094 184 1178 379 1178 c 258
 553 1178 l 257
 558 1214 l 258
 560 1228 561 1242 561 1254 c 0
 561 1335 522 1367 435 1367 c 256
 316 1367 194 1313 194 1313 c 257
 164 1414 l 257
 164 1414 292 1481 458 1481 c 256
 597 1481 709 1424 709 1270 c 0
 709 1236 670 948 667 917 c 256
 663 877 662 849 658 783 c 257
 517 783 l 257
 521 878 l 257
 480 814 395 760 289 760 c 256
 161 760 70 828 70 941 c 0
317 867 m 256
 435 867 525 949 540 1067 c 257
 542 1089 l 257
 322 1089 225 1089 210 974 c 256
 209 969 209 963 209 958 c 0
 209 898 252 867 317 867 c 256
EndSplineSet
EndChar

StartChar: ordmasculine
Encoding: 186 186 367
Width: 885
VWidth: 0
Flags: HW
PickledData: "(dp1
S'org.robofab.postScriptHintData'
p2
(dp3
sS'com.typemytype.robofont.layerData'
p4
(dp5
S'b'
(dp6
S'name'
p7
S'ordmasculine'
p8
sS'lib'
p9
(dp10
sS'unicodes'
p11
(tsS'width'
p12
F887.85000000000002
sS'contours'
p13
(tsS'components'
p14
(tsS'anchors'
p15
(tsss."
LayerCount: 2
Fore
SplineSet
473 1336 m 256
 332 1336 231 1229 231 1064 c 0
 231 947 297 879 419 879 c 257
 559 879 660 985 660 1147 c 0
 660 1265 591 1336 473 1336 c 256
403 752 m 256
 183 752 74 881 74 1055 c 0
 74 1073 76 1092 78 1111 c 256
 103 1310 255 1466 489 1466 c 256
 704 1466 813 1336 813 1161 c 0
 813 1144 812 1125 810 1107 c 256
 786 912 637 752 403 752 c 256
EndSplineSet
EndChar

StartChar: oslash
Encoding: 248 248 368
Width: 1254
VWidth: 0
Flags: HW
PickledData: "(dp1
S'org.robofab.postScriptHintData'
p2
(dp3
sS'com.typemytype.robofont.layerData'
p4
(dp5
S'b'
(dp6
S'name'
p7
S'oslash'
p8
sS'lib'
p9
(dp10
sS'unicodes'
p11
(tsS'width'
p12
F1255
sS'contours'
p13
(tsS'components'
p14
(tsS'anchors'
p15
(tsss."
LayerCount: 2
Fore
SplineSet
677 902 m 0
 439 902 288 709 288 439 c 0
 288 331 321 244 387 189 c 1
 788 886 l 1
 755 897 719 902 677 902 c 0
584 128 m 0
 826 128 969 322 969 588 c 0
 969 699 935 787 868 842 c 1
 467 146 l 1
 501 134 540 128 584 128 c 0
260 -214 m 1
 177 -176 l 1
 301 39 l 1
 166 114 95 252 95 425 c 0
 95 453 97 482 101 512 c 0
 139 828 361 1052 699 1052 c 0
 763 1052 820 1044 871 1029 c 1
 985 1227 l 1
 1068 1189 l 1
 956 994 l 1
 1093 920 1163 781 1163 603 c 0
 1163 574 1161 543 1157 512 c 0
 1119 203 901 -22 565 -22 c 0
 498 -22 438 -13 385 3 c 1
 260 -214 l 1
EndSplineSet
EndChar

StartChar: p
Encoding: 112 112 371
Width: 1263
VWidth: 0
Flags: HW
PickledData: "(dp1
S'org.robofab.postScriptHintData'
p2
(dp3
sS'com.typemytype.robofont.layerData'
p4
(dp5
S'b'
(dp6
S'name'
p7
S'p'
sS'lib'
p8
(dp9
sS'unicodes'
p10
(tsS'width'
p11
F1260.25
sS'contours'
p12
(tsS'components'
p13
(tsS'anchors'
p14
(tsss."
AnchorPoint: "top" 764 1026 basechar 0
LayerCount: 2
Fore
SplineSet
1194 612 m 0
 1194 251 963 -23 659 -23 c 256
 489 -23 366 72 343 166 c 257
 269 -428 l 257
 87 -428 l 257
 228 728 l 258
 239 814 248 942 254 1026 c 257
 447 1026 l 257
 425 842 l 257
 476 951 628 1051 795 1051 c 256
 1048 1051 1194 871 1194 612 c 0
742 901 m 256
 525 901 373 700 373 430 c 0
 373 249 466 127 646 127 c 256
 865 127 1000 330 1000 597 c 0
 1000 779 914 901 742 901 c 256
EndSplineSet
EndChar

StartChar: paragraph
Encoding: 182 182 372
Width: 1210
VWidth: 0
Flags: HW
PickledData: "(dp1
S'org.robofab.postScriptHintData'
p2
(dp3
sS'com.typemytype.robofont.layerData'
p4
(dp5
S'b'
(dp6
S'name'
p7
S'paragraph'
p8
sS'lib'
p9
(dp10
sS'unicodes'
p11
(tsS'width'
p12
F1211.95
sS'contours'
p13
(tsS'components'
p14
(tsS'anchors'
p15
(tsss."
LayerCount: 2
Fore
SplineSet
383 -179 m 257
 504 813 l 257
 330 818 188 914 188 1090 c 0
 188 1104 189 1118 191 1133 c 256
 221 1387 421 1456 699 1456 c 258
 1149 1456 l 257
 1132 1315 l 257
 1028 1315 l 257
 845 -179 l 257
 710 -179 l 257
 893 1315 l 257
 702 1315 l 257
 519 -179 l 257
 383 -179 l 257
EndSplineSet
EndChar

StartChar: parenleft
Encoding: 40 40 373
Width: 635
VWidth: 0
Flags: HW
PickledData: "(dp1
S'org.robofab.postScriptHintData'
p2
(dp3
sS'com.typemytype.robofont.layerData'
p4
(dp5
S'b'
(dp6
S'name'
p7
S'parenleft'
p8
sS'lib'
p9
(dp10
sS'unicodes'
p11
(tsS'width'
p12
F639.35000000000002
sS'contours'
p13
(tsS'components'
p14
(tsS'anchors'
p15
(tsss."
LayerCount: 2
Fore
SplineSet
308 -173 m 257
 202 27 128 266 128 515 c 0
 128 564 131 613 137 663 c 256
 175 978 312 1252 512 1516 c 257
 690 1516 l 257
 489 1249 358 960 321 665 c 256
 315 617 312 569 312 520 c 0
 312 285 377 35 483 -173 c 257
 308 -173 l 257
EndSplineSet
EndChar

StartChar: parenright
Encoding: 41 41 374
Width: 635
VWidth: 0
Flags: HW
PickledData: "(dp1
S'org.robofab.postScriptHintData'
p2
(dp3
sS'com.typemytype.robofont.layerData'
p4
(dp5
S'b'
(dp6
S'name'
p7
S'parenright'
p8
sS'lib'
p9
(dp10
sS'unicodes'
p11
(tsS'width'
p12
F639.35000000000002
sS'contours'
p13
(tsS'components'
p14
(tsS'anchors'
p15
(tsss."
LayerCount: 2
Fore
SplineSet
-55 -193 m 257
 147 74 278 363 315 659 c 256
 321 706 323 754 323 802 c 0
 323 1037 259 1286 153 1496 c 257
 328 1496 l 257
 434 1297 508 1057 508 807 c 0
 508 758 505 709 499 660 c 256
 460 345 324 70 124 -193 c 257
 -55 -193 l 257
EndSplineSet
EndChar

StartChar: partialdiff
Encoding: 8706 8706 375
Width: 1164
VWidth: 0
Flags: HW
PickledData: "(dp1
S'org.robofab.postScriptHintData'
p2
(dp3
sS'com.typemytype.robofont.layerData'
p4
(dp5
S'b'
(dp6
S'name'
p7
S'partialdiff'
p8
sS'lib'
p9
(dp10
sS'unicodes'
p11
(tsS'width'
p12
F1163.95
sS'contours'
p13
(tsS'components'
p14
(tsS'anchors'
p15
(tsss."
LayerCount: 2
Fore
SplineSet
889 834 m 257
 895 891 906 961 906 1021 c 0
 906 1242 807 1373 636 1373 c 256
 528 1373 419 1332 345 1287 c 257
 350 1429 l 257
 439 1485 558 1524 675 1524 c 256
 937 1524 1094 1366 1094 1021 c 0
 1094 967 1090 908 1082 845 c 256
 1029 415 784 -24 394 -24 c 256
 149 -24 29 132 29 344 c 0
 29 369 31 395 34 422 c 256
 73 748 332 1002 613 1002 c 256
 778 1002 864 904 889 834 c 257
413 128 m 256
 626 128 772 336 849 652 c 257
 824 757 741 853 614 853 c 256
 423 853 251 652 222 418 c 256
 220 398 218 379 218 361 c 0
 218 219 290 128 413 128 c 256
EndSplineSet
EndChar

StartChar: percent
Encoding: 37 37 377
Width: 1869
VWidth: 0
Flags: HW
PickledData: "(dp1
S'org.robofab.postScriptHintData'
p2
(dp3
sS'com.typemytype.robofont.layerData'
p4
(dp5
S'b'
(dp6
S'name'
p7
S'percent'
p8
sS'lib'
p9
(dp10
sS'unicodes'
p11
(tsS'width'
p12
F1769.3
sS'contours'
p13
(tsS'components'
p14
(tsS'anchors'
p15
(tsss."
LayerCount: 2
Fore
SplineSet
534 1353 m 256
 382 1353 307 1205 307 1009 c 0
 307 884 356 814 467 814 c 256
 596 814 664 914 684 1083 c 256
 687 1111 689 1137 689 1161 c 0
 689 1282 643 1353 534 1353 c 256
849 1158 m 0
 849 878 689 692 451 692 c 256
 252 692 147 811 147 1006 c 0
 147 1284 307 1475 548 1475 c 256
 745 1475 849 1353 849 1158 c 0
351 0 m 257
 1374 1456 l 257
 1530 1456 l 257
 505 0 l 257
 351 0 l 257
1406 643 m 256
 1252 643 1180 492 1180 296 c 0
 1180 172 1229 104 1339 104 c 0
 1468 104 1537 204 1557 372 c 256
 1560 400 1562 426 1562 450 c 0
 1562 572 1516 643 1406 643 c 256
1721 444 m 0
 1721 174 1560 -19 1323 -19 c 256
 1125 -19 1021 110 1021 301 c 0
 1021 569 1181 765 1421 765 c 256
 1619 765 1721 634 1721 444 c 0
EndSplineSet
EndChar

StartChar: period
Encoding: 46 46 378
Width: 543
VWidth: 0
Flags: HW
PickledData: "(dp1
S'org.robofab.postScriptHintData'
p2
(dp3
sS'com.typemytype.robofont.layerData'
p4
(dp5
s."
LayerCount: 2
Fore
SplineSet
137 0 m 257
 165 225 l 257
 400 225 l 257
 372 0 l 257
 137 0 l 257
EndSplineSet
EndChar

StartChar: periodcentered
Encoding: 183 183 379
Width: 509
VWidth: 0
Flags: HW
PickledData: "(dp1
S'org.robofab.postScriptHintData'
p2
(dp3
sS'com.typemytype.robofont.layerData'
p4
(dp5
S'b'
(dp6
S'name'
p7
S'middot'
p8
sS'lib'
p9
(dp10
sS'unicodes'
p11
(tsS'width'
p12
I509
sS'contours'
p13
(tsS'components'
p14
(tsS'anchors'
p15
(tsss."
LayerCount: 2
Fore
SplineSet
269 517 m 257
 294 717 l 257
 493 717 l 257
 469 517 l 257
 269 517 l 257
EndSplineSet
EndChar

StartChar: perthousand
Encoding: 8240 8240 380
Width: 2701
VWidth: 0
Flags: HW
PickledData: "(dp1
S'org.robofab.postScriptHintData'
p2
(dp3
sS'com.typemytype.robofont.layerData'
p4
(dp5
S'b'
(dp6
S'name'
p7
S'perthousand'
p8
sS'lib'
p9
(dp10
sS'unicodes'
p11
(tsS'width'
p12
F2581.1999999999998
sS'contours'
p13
(tsS'components'
p14
(tsS'anchors'
p15
(tsss."
LayerCount: 2
Fore
SplineSet
2238 643 m 256
 2085 643 2012 492 2012 296 c 0
 2012 172 2061 104 2171 104 c 0
 2300 104 2369 204 2389 372 c 256
 2392 400 2394 426 2394 450 c 0
 2394 572 2348 643 2238 643 c 256
2554 444 m 0
 2554 174 2393 -19 2156 -19 c 256
 1958 -19 1853 110 1853 301 c 0
 1853 569 2014 765 2253 765 c 256
 2451 765 2554 634 2554 444 c 0
EndSplineSet
Refer: 377 37 N 1 0 0 1 0 0 2
EndChar

StartChar: pi
Encoding: 960 960 381
Width: 1288
VWidth: 0
Flags: HW
PickledData: "(dp1
S'org.robofab.postScriptHintData'
p2
(dp3
sS'com.typemytype.robofont.layerData'
p4
(dp5
S'b'
(dp6
S'name'
p7
S'pi'
p8
sS'lib'
p9
(dp10
sS'unicodes'
p11
(tsS'width'
p12
F1288
sS'contours'
p13
(tsS'components'
p14
(tsS'anchors'
p15
(tsss."
LayerCount: 2
Fore
SplineSet
118 0 m 257
 263 182 330 543 387 885 c 257
 280 883 194 862 129 824 c 257
 129 963 l 257
 192 1004 287 1026 426 1026 c 258
 1262 1026 l 257
 1245 885 l 257
 1048 885 l 257
 974 284 l 258
 972 266 970 249 970 231 c 0
 970 179 986 134 1059 134 c 256
 1078 134 1103 138 1137 145 c 257
 1121 0 l 257
 1076 -8 1028 -13 992 -13 c 256
 867 -13 794 43 794 194 c 0
 794 216 796 240 799 267 c 258
 875 885 l 257
 558 885 l 257
 542 790 436 160 308 0 c 257
 118 0 l 257
EndSplineSet
EndChar

StartChar: plus
Encoding: 43 43 382
Width: 1202
VWidth: 0
Flags: HW
PickledData: "(dp1
S'org.robofab.postScriptHintData'
p2
(dp3
sS'com.typemytype.robofont.layerData'
p4
(dp5
S'b'
(dp6
S'name'
p7
S'plus'
p8
sS'lib'
p9
(dp10
sS'unicodes'
p11
(tsS'width'
p12
F1206.9000000000001
sS'contours'
p13
(tsS'components'
p14
(tsS'anchors'
p15
(tsss."
LayerCount: 2
Fore
SplineSet
455 103 m 257
 506 518 l 257
 122 518 l 257
 141 674 l 257
 525 674 l 257
 575 1075 l 257
 745 1075 l 257
 696 674 l 257
 1082 674 l 257
 1063 518 l 257
 678 518 l 257
 627 103 l 257
 455 103 l 257
EndSplineSet
EndChar

StartChar: plusminus
Encoding: 177 177 383
Width: 1232
VWidth: 0
Flags: HW
PickledData: "(dp1
S'org.robofab.postScriptHintData'
p2
(dp3
sS'com.typemytype.robofont.layerData'
p4
(dp5
S'b'
(dp6
S'name'
p7
S'plusminus'
p8
sS'lib'
p9
(dp10
sS'unicodes'
p11
(tsS'width'
p12
F1234.75
sS'contours'
p13
(tsS'components'
p14
(tsS'anchors'
p15
(tsss."
LayerCount: 2
Fore
SplineSet
497 255 m 257
 538 594 l 257
 200 594 l 257
 219 749 l 257
 555 749 l 257
 596 1089 l 257
 767 1089 l 257
 725 749 l 257
 1060 749 l 257
 1041 594 l 257
 712 594 l 257
 670 255 l 257
 497 255 l 257
117 0 m 257
 133 132 l 257
 1006 132 l 257
 991 0 l 257
 117 0 l 257
EndSplineSet
EndChar

StartChar: product
Encoding: 8719 8719 384
Width: 1559
VWidth: 0
Flags: HW
PickledData: "(dp1
S'org.robofab.postScriptHintData'
p2
(dp3
sS'com.typemytype.robofont.guides'
p4
(tsS'com.typemytype.robofont.layerData'
p5
(dp6
S'b'
(dp7
S'name'
p8
S'product'
p9
sS'lib'
p10
(dp11
sS'unicodes'
p12
(tsS'width'
p13
F1568
sS'contours'
p14
(tsS'components'
p15
(tsS'anchors'
p16
(tsss."
LayerCount: 2
Fore
SplineSet
180 -89 m 257
 351 1300 l 257
 186 1300 l 257
 206 1456 l 257
 1522 1456 l 257
 1502 1300 l 257
 1354 1300 l 257
 1184 -89 l 257
 989 -89 l 257
 1159 1300 l 257
 542 1300 l 257
 372 -89 l 257
 180 -89 l 257
EndSplineSet
EndChar

StartChar: q
Encoding: 113 113 385
Width: 1259
VWidth: 0
Flags: HW
PickledData: "(dp1
S'org.robofab.postScriptHintData'
p2
(dp3
sS'com.typemytype.robofont.layerData'
p4
(dp5
S'b'
(dp6
S'name'
p7
S'q'
sS'lib'
p8
(dp9
sS'unicodes'
p10
(tsS'width'
p11
F1254.3
sS'contours'
p12
(tsS'components'
p13
(tsS'anchors'
p14
(tsss."
LayerCount: 2
Fore
SplineSet
808 -419 m 257
 878 150 l 257
 814 68 694 -22 532 -22 c 256
 272 -22 118 156 118 420 c 0
 118 450 120 480 124 512 c 256
 163 832 375 1052 672 1052 c 256
 810 1052 917 986 968 884 c 257
 987 1026 l 257
 1177 1026 l 257
 1172 999 1144 818 1141 792 c 258
 992 -419 l 257
 808 -419 l 257
674 901 m 259
 461 901 314 704 314 431 c 0
 314 248 403 129 573 129 c 256
 772 129 899 288 928 531 c 256
 931 557 933 581 933 605 c 0
 933 783 844 901 674 901 c 259
EndSplineSet
EndChar

StartChar: question
Encoding: 63 63 386
Width: 1058
VWidth: 0
Flags: HW
PickledData: "(dp1
S'org.robofab.postScriptHintData'
p2
(dp3
sS'com.typemytype.robofont.layerData'
p4
(dp5
S'b'
(dp6
S'name'
p7
S'question'
p8
sS'lib'
p9
(dp10
sS'unicodes'
p11
(tsS'width'
p12
F1055.9000000000001
sS'contours'
p13
(tsS'components'
p14
(tsS'anchors'
p15
(tsss."
LayerCount: 2
Fore
SplineSet
317 379 m 257
 334 521 l 257
 365 770 757 894 785 1123 c 256
 786 1133 787 1143 787 1152 c 0
 787 1272 687 1319 558 1319 c 257
 437 1319 311 1271 260 1245 c 257
 280 1411 l 257
 360 1448 488 1479 599 1479 c 256
 822 1479 980 1381 980 1180 c 0
 980 831 510 734 478 478 c 258
 466 379 l 257
 317 379 l 257
251 -4 m 257
 279 217 l 257
 466 217 l 257
 438 -4 l 257
 251 -4 l 257
EndSplineSet
EndChar

StartChar: quotedbl
Encoding: 34 34 388
Width: 792
VWidth: 0
Flags: HW
PickledData: "(dp1
S'org.robofab.postScriptHintData'
p2
(dp3
sS'com.typemytype.robofont.layerData'
p4
(dp5
S'b'
(dp6
S'name'
p7
S'quotedbl'
p8
sS'lib'
p9
(dp10
sS'unicodes'
p11
(tsS'width'
p12
F785.64999999999998
sS'contours'
p13
(tsS'components'
p14
(tsS'anchors'
p15
(tsss."
LayerCount: 2
Fore
SplineSet
217 955 m 257
 235 1456 l 257
 424 1456 l 257
 330 955 l 257
 217 955 l 257
543 955 m 261
 561 1456 l 261
 750 1456 l 261
 656 955 l 261
 543 955 l 261
EndSplineSet
EndChar

StartChar: quotedblbase
Encoding: 8222 8222 389
Width: 1024
VWidth: 0
Flags: HW
PickledData: "(dp1
S'org.robofab.postScriptHintData'
p2
(dp3
s."
LayerCount: 2
Fore
SplineSet
201 -258 m 257
 339 216 l 257
 542 216 l 257
 355 -258 l 257
 201 -258 l 257
444 -258 m 257
 582 216 l 257
 785 216 l 257
 596 -258 l 257
 444 -258 l 257
EndSplineSet
EndChar

StartChar: quotedblleft
Encoding: 8220 8220 390
Width: 1024
VWidth: 0
Flags: HW
PickledData: "(dp1
S'org.robofab.postScriptHintData'
p2
(dp3
sS'com.typemytype.robofont.layerData'
p4
(dp5
S'b'
(dp6
S'name'
p7
S'quotedblleft'
p8
sS'lib'
p9
(dp10
sS'unicodes'
p11
(tsS'width'
p12
F1024
sS'contours'
p13
(tsS'components'
p14
(tsS'anchors'
p15
(tsss."
LayerCount: 2
Fore
SplineSet
130 882 m 257
 356 1456 l 257
 506 1456 l 257
 341 882 l 257
 130 882 l 257
523 882 m 257
 743 1456 l 257
 893 1456 l 257
 729 882 l 257
 523 882 l 257
EndSplineSet
EndChar

StartChar: quotedblright
Encoding: 8221 8221 391
Width: 1024
VWidth: 0
Flags: HW
PickledData: "(dp1
S'org.robofab.postScriptHintData'
p2
(dp3
sS'com.typemytype.robofont.layerData'
p4
(dp5
S'b'
(dp6
S'name'
p7
S'quotedblright'
p8
sS'lib'
p9
(dp10
sS'unicodes'
p11
(tsS'width'
p12
F1024
sS'contours'
p13
(tsS'components'
p14
(tsS'anchors'
p15
(tsss."
LayerCount: 2
Fore
SplineSet
161 882 m 257
 323 1456 l 257
 529 1456 l 257
 311 882 l 257
 161 882 l 257
525 882 m 257
 689 1456 l 257
 894 1456 l 257
 677 882 l 257
 525 882 l 257
EndSplineSet
EndChar

StartChar: quoteleft
Encoding: 8216 8216 392
Width: 514
VWidth: 0
Flags: HW
PickledData: "(dp1
S'org.robofab.postScriptHintData'
p2
(dp3
sS'com.typemytype.robofont.layerData'
p4
(dp5
S'b'
(dp6
S'name'
p7
S'quoteleft'
p8
sS'lib'
p9
(dp10
sS'unicodes'
p11
(tsS'width'
p12
F518.5
sS'contours'
p13
(tsS'components'
p14
(tsS'anchors'
p15
(tsss."
LayerCount: 2
Fore
SplineSet
234 882 m 257
 140 1346 l 257
 368 1456 l 257
 361 992 l 257
 234 882 l 257
EndSplineSet
EndChar

StartChar: quoteright
Encoding: 8217 8217 393
Width: 530
VWidth: 0
Flags: HW
PickledData: "(dp1
S'org.robofab.postScriptHintData'
p2
(dp3
sS'com.typemytype.robofont.layerData'
p4
(dp5
S'b'
(dp6
S'name'
p7
S'quoteright'
p8
sS'lib'
p9
(dp10
g4
(dp11
S'b'
(dp12
g7
S'quoteleft'
p13
sg9
(dp14
sS'unicodes'
p15
(tsS'width'
p16
I494
sS'contours'
p17
(tsS'components'
p18
(tsS'anchors'
p19
(tssssg15
(tsg16
F537.25
sg17
((dp20
S'points'
p21
((dp22
S'segmentType'
p23
S'line'
p24
sS'x'
F416
sS'smooth'
p25
I00
sS'y'
F888
s(dp26
g23
S'line'
p27
sS'x'
F300
sg25
I00
sS'y'
F888
s(dp28
g23
S'line'
p29
sS'x'
F150
sg25
I00
sS'y'
F1456
s(dp30
g23
S'line'
p31
sS'x'
F360
sg25
I00
sS'y'
F1456
stp32
stp33
sg18
(tsg19
(tsss."
LayerCount: 2
Fore
SplineSet
87 882 m 257
 227 1456 l 257
 446 1456 l 257
 222 882 l 257
 87 882 l 257
EndSplineSet
EndChar

StartChar: quotesinglbase
Encoding: 8218 8218 394
Width: 587
VWidth: 0
Flags: HW
PickledData: "(dp1
S'org.robofab.postScriptHintData'
p2
(dp3
sS'com.typemytype.robofont.layerData'
p4
(dp5
S'b'
(dp6
S'name'
p7
S'quotesinglbase'
p8
sS'lib'
p9
(dp10
sS'unicodes'
p11
(tsS'width'
p12
F595.70000000000005
sS'contours'
p13
(tsS'components'
p14
(tsS'anchors'
p15
(tsss."
LayerCount: 2
Fore
SplineSet
121 -327 m 257
 271 216 l 257
 469 216 l 257
 273 -327 l 257
 121 -327 l 257
EndSplineSet
EndChar

StartChar: quotesingle
Encoding: 39 39 395
Width: 509
VWidth: 0
Flags: HW
PickledData: "(dp1
S'org.robofab.postScriptHintData'
p2
(dp3
sS'com.typemytype.robofont.layerData'
p4
(dp5
S'b'
(dp6
S'name'
p7
S'quotesingle'
p8
sS'lib'
p9
(dp10
sS'unicodes'
p11
(tsS'width'
p12
F507.85000000000002
sS'contours'
p13
(tsS'components'
p14
(tsS'anchors'
p15
(tsss."
LayerCount: 2
Fore
SplineSet
167 936 m 257
 194 1456 l 257
 391 1456 l 257
 299 936 l 257
 167 936 l 257
EndSplineSet
EndChar

StartChar: r
Encoding: 114 114 396
Width: 803
VWidth: 0
Flags: HW
PickledData: "(dp1
S'org.robofab.postScriptHintData'
p2
(dp3
sS'com.typemytype.robofont.layerData'
p4
(dp5
S'b'
(dp6
S'name'
p7
S'r'
sS'lib'
p8
(dp9
sS'unicodes'
p10
(tsS'width'
p11
F818.89999999999998
sS'contours'
p12
(tsS'components'
p13
(tsS'anchors'
p14
(tsss."
AnchorPoint: "top" 579 1026 basechar 0
LayerCount: 2
Fore
SplineSet
115 0 m 257
 210 774 l 258
 219 851 228 1026 228 1026 c 257
 422 1026 l 257
 405 866 l 257
 480 987 585 1050 702 1050 c 256
 735 1050 770 1047 804 1038 c 257
 783 875 l 257
 751 884 712 891 672 891 c 256
 520 891 397 784 370 571 c 258
 300 0 l 257
 115 0 l 257
EndSplineSet
EndChar

StartChar: radical
Encoding: 8730 8730 398
Width: 1314
VWidth: 0
Flags: HW
PickledData: "(dp1
S'org.robofab.postScriptHintData'
p2
(dp3
sS'com.typemytype.robofont.layerData'
p4
(dp5
s."
LayerCount: 2
Fore
SplineSet
564 -150 m 257
 341 676 l 258
 340 676 168 648 168 648 c 257
 158 777 l 257
 478 830 l 257
 659 98 l 257
 1238 1585 l 257
 1393 1585 l 257
 717 -150 l 257
 564 -150 l 257
EndSplineSet
EndChar

StartChar: registered
Encoding: 174 174 402
Width: 1728
VWidth: 0
Flags: HW
PickledData: "(dp1
S'org.robofab.postScriptHintData'
p2
(dp3
sS'com.typemytype.robofont.layerData'
p4
(dp5
S'b'
(dp6
S'name'
p7
S'registered'
p8
sS'lib'
p9
(dp10
sS'unicodes'
p11
(tsS'width'
p12
F1727.05
sS'contours'
p13
(tsS'components'
p14
(tsS'anchors'
p15
(tsss."
LayerCount: 2
Fore
SplineSet
488 278 m 257
 600 1187 l 257
 883 1187 l 258
 1149 1187 1260 1109 1260 967 c 0
 1260 954 1259 941 1257 928 c 256
 1243 812 1189 715 1019 681 c 257
 1180 278 l 257
 995 278 l 257
 858 660 l 257
 699 660 l 257
 653 278 l 257
 488 278 l 257
829 777 m 258
 1004 777 1089 806 1089 952 c 0
 1089 1041 1033 1055 862 1055 c 258
 746 1055 l 257
 712 777 l 257
 829 777 l 258
784 75 m 256
 1137 75 1458 371 1502 725 c 256
 1505 752 1507 779 1507 806 c 0
 1507 1125 1271 1381 945 1381 c 256
 590 1381 268 1080 225 725 c 256
 222 698 220 671 220 644 c 0
 220 327 456 75 784 75 c 256
771 -25 m 256
 387 -25 102 263 102 635 c 0
 102 666 104 696 108 728 c 256
 159 1144 540 1483 956 1483 c 256
 1342 1483 1627 1193 1627 820 c 0
 1627 790 1625 759 1621 728 c 256
 1570 312 1188 -25 771 -25 c 256
EndSplineSet
EndChar

StartChar: ring
Encoding: 730 730 403
Width: 628
VWidth: 0
Flags: HW
PickledData: "(dp1
S'org.robofab.postScriptHintData'
p2
(dp3
sS'com.typemytype.robofont.layerData'
p4
(dp5
S'b'
(dp6
S'name'
p7
S'ring'
p8
sS'lib'
p9
(dp10
sS'unicodes'
p11
(tsS'width'
p12
F633.35000000000002
sS'contours'
p13
(tsS'components'
p14
(tsS'anchors'
p15
(tsss."
AnchorPoint: "top" 334 1476 basechar 0
AnchorPoint: "top" 279 1026 mark 0
LayerCount: 2
Fore
SplineSet
327 1432 m 256
 265 1432 207 1379 207 1309 c 0
 207 1254 246 1212 300 1212 c 256
 363 1212 421 1265 421 1335 c 0
 421 1390 382 1432 327 1432 c 256
517 1346 m 0
 517 1217 406 1127 291 1127 c 256
 188 1127 112 1198 112 1297 c 0
 112 1427 221 1517 339 1517 c 256
 443 1517 517 1446 517 1346 c 0
EndSplineSet
EndChar

StartChar: s
Encoding: 115 115 405
Width: 978
VWidth: 0
Flags: HW
PickledData: "(dp1
S'org.robofab.postScriptHintData'
p2
(dp3
sS'com.typemytype.robofont.layerData'
p4
(dp5
S'b'
(dp6
S'name'
p7
S's'
sS'lib'
p8
(dp9
sS'unicodes'
p10
(tsS'width'
p11
F981.89999999999998
sS'contours'
p12
((dp13
S'points'
p14
((dp15
S'segmentType'
p16
S'curve'
p17
sS'x'
F498
sS'smooth'
p18
I01
sS'y'
F-23
s(dp19
S'y'
F-23
sS'x'
F282
sg18
I00
s(dp20
S'y'
F70
sS'x'
F145
sg18
I00
s(dp21
g16
S'curve'
p22
sS'x'
F116
sg18
I00
sS'y'
F94
s(dp23
g16
S'line'
p24
sS'x'
F160
sg18
I00
sS'y'
F222
s(dp25
S'y'
F189
sS'x'
F208
sg18
I00
s(dp26
S'y'
F109
sS'x'
F348
sg18
I00
s(dp27
g16
S'curve'
p28
sS'x'
F484
sg18
I01
sS'y'
F109
s(dp29
S'y'
F109
sS'x'
F589
sg18
I00
s(dp30
S'y'
F141
sS'x'
F711
sg18
I00
s(dp31
g16
S'curve'
p32
sS'x'
F711
sg18
I01
sS'y'
F272
s(dp33
S'y'
F395
sS'x'
F711
sg18
I00
s(dp34
S'y'
F426
sS'x'
F561
sg18
I00
s(dp35
g16
S'curve'
p36
sS'x'
F412
sg18
I00
sS'y'
F474
s(dp37
S'y'
F521
sS'x'
F262
sg18
I00
s(dp38
S'y'
F585
sS'x'
F112
sg18
I00
s(dp39
g16
S'curve'
p40
sS'x'
F112
sg18
I01
sS'y'
F771
s(dp41
S'y'
F970
sS'x'
F112
sg18
I00
s(dp42
S'y'
F1051
sS'x'
F318
sg18
I00
s(dp43
g16
S'curve'
p44
sS'x'
F488
sg18
I01
sS'y'
F1051
s(dp45
S'y'
F1051
sS'x'
F715
sg18
I00
s(dp46
S'y'
F991
sS'x'
F792
sg18
I00
s(dp47
g16
S'curve'
p48
sS'x'
F832
sg18
I00
sS'y'
F966
s(dp49
g16
S'line'
p50
sS'x'
F785
sg18
I00
sS'y'
F851
s(dp51
S'y'
F858
sS'x'
F772
sg18
I00
s(dp52
S'y'
F917
sS'x'
F667
sg18
I00
s(dp53
g16
S'curve'
p54
sS'x'
F504
sg18
I01
sS'y'
F917
s(dp55
S'y'
F917
sS'x'
F355
sg18
I00
s(dp56
S'y'
F882
sS'x'
F283
sg18
I00
s(dp57
g16
S'curve'
p58
sS'x'
F283
sg18
I01
sS'y'
F774
s(dp59
S'y'
F660
sS'x'
F283
sg18
I00
s(dp60
S'y'
F629
sS'x'
F433
sg18
I00
s(dp61
g16
S'curve'
p62
sS'x'
F582
sg18
I01
sS'y'
F581
s(dp63
S'y'
F533
sS'x'
F732
sg18
I00
s(dp64
S'y'
F468
sS'x'
F881
sg18
I00
s(dp65
g16
S'curve'
p66
sS'x'
F881
sg18
I01
sS'y'
F284
s(dp67
S'y'
F62
sS'x'
F881
sg18
I00
s(dp68
S'y'
F-23
sS'x'
F685
sg18
I00
stp69
stp70
sS'components'
p71
(tsS'anchors'
p72
(tsss."
AnchorPoint: "top" 550 1026 basechar 0
LayerCount: 2
Fore
SplineSet
856 332 m 0
 856 74 640 -22 452 -22 c 256
 249 -22 120 62 75 102 c 257
 143 239 l 257
 200 193 320 129 456 129 c 256
 561 129 680 164 680 297 c 0
 680 373 616 399 474 449 c 258
 389 479 l 257
 257 528 157 584 157 725 c 0
 157 960 365 1051 564 1051 c 256
 728 1051 836 1003 895 962 c 257
 828 830 l 257
 787 853 683 902 566 902 c 256
 427 902 342 853 342 752 c 0
 342 690 383 668 488 628 c 256
 506 622 564 602 586 593 c 256
 742 535 856 485 856 332 c 0
EndSplineSet
EndChar

StartChar: section
Encoding: 167 167 412
Width: 1069
VWidth: 0
Flags: HW
PickledData: "(dp1
S'org.robofab.postScriptHintData'
p2
(dp3
sS'com.typemytype.robofont.layerData'
p4
(dp5
S'b'
(dp6
S'name'
p7
S'section'
p8
sS'lib'
p9
(dp10
sS'unicodes'
p11
(tsS'width'
p12
F1071.6500000000001
sS'contours'
p13
(tsS'components'
p14
(tsS'anchors'
p15
(tsss."
LayerCount: 2
Fore
SplineSet
914 750 m 0
 914 620 808 527 702 464 c 257
 784 418 844 356 844 261 c 0
 844 251 843 241 842 231 c 256
 816 25 626 -75 411 -75 c 256
 314 -75 207 -56 116 -19 c 257
 135 131 l 257
 237 86 334 65 417 65 c 256
 552 65 661 124 661 236 c 0
 661 311 565 351 380 444 c 256
 258 503 187 573 187 682 c 0
 187 815 297 911 415 958 c 257
 330 1016 273 1073 273 1167 c 0
 273 1388 479 1486 688 1486 c 256
 775 1486 855 1474 934 1446 c 257
 918 1311 l 257
 851 1337 771 1352 698 1352 c 256
 575 1352 455 1309 455 1195 c 0
 455 1128 520 1079 664 1008 c 256
 805 935 914 873 914 750 c 0
531 888 m 257
 461 858 364 798 364 714 c 0
 364 634 455 592 590 530 c 257
 654 567 724 634 724 718 c 0
 724 802 637 833 531 888 c 257
EndSplineSet
EndChar

StartChar: semicolon
Encoding: 59 59 413
Width: 543
VWidth: 0
Flags: HW
PickledData: "(dp1
S'org.robofab.postScriptHintData'
p2
(dp3
sS'com.typemytype.robofont.layerData'
p4
(dp5
s."
LayerCount: 2
Fore
SplineSet
15 -265 m 257
 181 222 l 257
 392 222 l 257
 165 -265 l 257
 15 -265 l 257
222 827 m 257
 250 1053 l 257
 476 1053 l 257
 448 827 l 257
 222 827 l 257
EndSplineSet
EndChar

StartChar: seven
Encoding: 55 55 414
Width: 1231
VWidth: 0
Flags: HW
PickledData: "(dp1
S'org.robofab.postScriptHintData'
p2
(dp3
sS'com.typemytype.robofont.layerData'
p4
(dp5
s."
LayerCount: 2
Fore
SplineSet
265 0 m 257
 945 1295 l 257
 241 1295 l 257
 260 1456 l 257
 1181 1456 l 257
 1164 1312 l 257
 471 0 l 257
 265 0 l 257
EndSplineSet
EndChar

StartChar: six
Encoding: 54 54 415
Width: 1231
VWidth: 0
Flags: HW
PickledData: "(dp1
S'org.robofab.postScriptHintData'
p2
(dp3
sS'com.typemytype.robofont.layerData'
p4
(dp5
s."
LayerCount: 2
Fore
SplineSet
564 -22 m 256
 262 -22 124 191 124 519 c 0
 124 574 128 633 136 694 c 256
 189 1126 418 1482 799 1482 c 256
 944 1482 1058 1435 1128 1367 c 257
 1045 1227 l 257
 980 1284 889 1321 781 1321 c 256
 537 1321 403 1071 355 827 c 256
 350 804 347 782 343 761 c 257
 421 862 546 941 711 941 c 256
 949 941 1107 789 1107 543 c 0
 1107 518 1105 493 1102 466 c 256
 1069 189 860 -22 564 -22 c 256
584 139 m 256
 776 139 909 305 909 524 c 0
 909 675 833 784 668 784 c 256
 481 784 346 654 327 503 c 256
 324 479 323 456 323 434 c 0
 323 257 414 139 584 139 c 256
EndSplineSet
EndChar

StartChar: slash
Encoding: 47 47 416
Width: 910
VWidth: 0
Flags: HW
PickledData: "(dp1
S'org.robofab.postScriptHintData'
p2
(dp3
sS'com.typemytype.robofont.layerData'
p4
(dp5
s."
LayerCount: 2
Fore
SplineSet
36 0 m 257
 744 1456 l 257
 915 1456 l 257
 203 0 l 257
 36 0 l 257
EndSplineSet
EndChar

StartChar: softhyphen
Encoding: 173 173 418
Width: 679
VWidth: 0
Flags: HW
PickledData: "(dp1
S'org.robofab.postScriptHintData'
p2
(dp3
s."
LayerCount: 2
Fore
SplineSet
53 487 m 257
 70 629 l 257
 626 629 l 257
 608 487 l 257
 53 487 l 257
EndSplineSet
EndChar

StartChar: sterling
Encoding: 163 163 420
Width: 1203
VWidth: 0
Flags: HW
PickledData: "(dp1
S'org.robofab.postScriptHintData'
p2
(dp3
sS'com.typemytype.robofont.layerData'
p4
(dp5
S'b'
(dp6
S'name'
p7
S'sterling'
p8
sS'lib'
p9
(dp10
sS'unicodes'
p11
(tsS'width'
p12
F1207.3
sS'contours'
p13
(tsS'components'
p14
(tsS'anchors'
p15
(tsss."
LayerCount: 2
Fore
SplineSet
64 0 m 257
 82 150 l 257
 199 229 294 380 319 591 c 257
 332 696 l 257
 141 696 l 257
 157 820 l 257
 346 820 l 257
 361 939 l 257
 397 1242 518 1480 873 1480 c 256
 1010 1480 1088 1447 1140 1405 c 257
 1073 1265 l 257
 1032 1291 969 1323 873 1323 c 0
 672 1323 582 1204 555 982 c 258
 535 820 l 257
 898 820 l 257
 882 696 l 257
 521 696 l 257
 509 589 l 257
 481 363 374 214 314 157 c 257
 970 157 l 257
 951 0 l 257
 64 0 l 257
EndSplineSet
EndChar

StartChar: summation
Encoding: 8721 8721 421
Width: 1193
VWidth: 0
Flags: HW
PickledData: "(dp1
S'org.robofab.postScriptHintData'
p2
(dp3
sS'com.typemytype.robofont.layerData'
p4
(dp5
S'b'
(dp6
S'name'
p7
S'summation'
p8
sS'lib'
p9
(dp10
sS'unicodes'
p11
(tsS'width'
p12
F1198.3
sS'contours'
p13
(tsS'components'
p14
(tsS'anchors'
p15
(tsss."
LayerCount: 2
Fore
SplineSet
36 -110 m 257
 47 -14 l 257
 630 681 l 257
 236 1358 l 257
 248 1455 l 257
 1149 1455 l 257
 1131 1308 l 257
 459 1308 l 257
 827 688 l 257
 278 40 l 257
 1018 40 l 257
 1000 -110 l 257
 36 -110 l 257
EndSplineSet
EndChar

StartChar: t
Encoding: 116 116 422
Width: 803
VWidth: 0
Flags: HW
PickledData: "(dp1
S'org.robofab.postScriptHintData'
p2
(dp3
sS'com.typemytype.robofont.layerData'
p4
(dp5
S'b'
(dp6
S'name'
p7
S't'
sS'lib'
p8
(dp9
sS'unicodes'
p10
(tsS'width'
p11
F763.89999999999998
sS'contours'
p12
(tsS'components'
p13
(tsS'anchors'
p14
(tsss."
AnchorPoint: "caron.alt" 334 1280 basechar 0
AnchorPoint: "top" 411 1347 basechar 0
LayerCount: 2
Fore
SplineSet
622 0 m 257
 537 0 l 257
 287 3 194 65 194 253 c 0
 194 284 196 318 201 355 c 258
 268 903 l 257
 72 903 l 257
 87 1026 l 257
 287 1026 l 257
 319 1290 l 257
 506 1343 l 257
 468 1026 l 257
 746 1026 l 257
 730 903 l 257
 453 903 l 257
 384 345 l 258
 381 319 379 297 379 277 c 0
 379 162 441 144 639 144 c 257
 622 0 l 257
EndSplineSet
EndChar

StartChar: thorn
Encoding: 254 254 427
Width: 1236
VWidth: 0
Flags: HW
PickledData: "(dp1
S'org.robofab.postScriptHintData'
p2
(dp3
sS'com.typemytype.robofont.layerData'
p4
(dp5
s."
LayerCount: 2
Fore
SplineSet
39 -419 m 257
 270 1458 l 257
 452 1458 l 257
 382 879 l 257
 457 987 591 1051 731 1051 c 256
 1011 1051 1143 867 1143 617 c 0
 1143 586 1141 555 1137 523 c 256
 1101 228 912 -22 599 -22 c 256
 466 -22 343 31 290 138 c 257
 222 -419 l 257
 39 -419 l 257
590 126 m 256
 816 126 947 344 947 601 c 0
 947 771 874 900 691 900 c 256
 459 900 358 706 332 498 c 256
 329 473 328 450 328 427 c 0
 328 249 414 126 590 126 c 256
EndSplineSet
EndChar

StartChar: three
Encoding: 51 51 428
Width: 1231
VWidth: 0
Flags: HW
PickledData: "(dp1
S'org.robofab.postScriptHintData'
p2
(dp3
sS'com.typemytype.robofont.layerData'
p4
(dp5
S'b'
(dp6
S'name'
p7
S'three'
p8
sS'lib'
p9
(dp10
sS'unicodes'
p11
(tsS'width'
p12
F1234.0999999999999
sS'contours'
p13
((dp14
S'points'
p15
((dp16
S'segmentType'
p17
S'curve'
p18
sS'x'
F344
sS'smooth'
p19
I01
sS'y'
F1010
s(dp20
S'y'
F827
sS'x'
F344
sg19
I00
s(dp21
S'y'
F687
sS'x'
F423
sg19
I00
s(dp22
g17
S'curve'
p23
sS'x'
F634
sg19
I01
sS'y'
F687
s(dp24
S'y'
F687
sS'x'
F814
sg19
I00
s(dp25
S'y'
F803
sS'x'
F938
sg19
I00
s(dp26
g17
S'curve'
p27
sS'x'
F938
sg19
I01
sS'y'
F991
s(dp28
S'y'
F1166
sS'x'
F938
sg19
I00
s(dp29
S'y'
F1334
sS'x'
F845
sg19
I00
s(dp30
g17
S'curve'
p31
sS'x'
F635
sg19
I01
sS'y'
F1334
s(dp32
S'y'
F1334
sS'x'
F449
sg19
I00
s(dp33
S'y'
F1196
sS'x'
F344
sg19
I00
stp34
s(dp35
g15
((dp36
g17
S'curve'
p37
sS'x'
F594
sg19
I01
sS'y'
F-24
s(dp38
S'y'
F-24
sS'x'
F473
sg19
I00
s(dp39
S'y'
F-1
sS'x'
F367
sg19
I00
s(dp40
g17
S'curve'
p41
sS'x'
F238
sg19
I00
sS'y'
F65
s(dp42
g17
S'line'
p43
sS'x'
F287
sg19
I00
sS'y'
F197
s(dp44
S'y'
F138
sS'x'
F401
sg19
I00
s(dp45
S'y'
F124
sS'x'
F489
sg19
I00
s(dp46
g17
S'curve'
p47
sS'x'
F581
sg19
I01
sS'y'
F124
s(dp48
S'y'
F124
sS'x'
F812
sg19
I00
s(dp49
S'y'
F308
sS'x'
F950
sg19
I00
s(dp50
g17
S'curve'
p51
sS'x'
F950
sg19
I01
sS'y'
F657
s(dp52
g17
S'line'
p53
sS'x'
F950
sg19
I00
sS'y'
F722
s(dp54
S'y'
F600
sS'x'
F886
sg19
I00
s(dp55
S'y'
F544
sS'x'
F772
sg19
I00
s(dp56
g17
S'curve'
p57
sS'x'
F607
sg19
I01
sS'y'
F544
s(dp58
S'y'
F544
sS'x'
F328
sg19
I00
s(dp59
S'y'
F735
sS'x'
F168
sg19
I00
s(dp60
g17
S'curve'
p61
sS'x'
F168
sg19
I01
sS'y'
F1004
s(dp62
S'y'
F1275
sS'x'
F168
sg19
I00
s(dp63
S'y'
F1483
sS'x'
F341
sg19
I00
s(dp64
g17
S'curve'
p65
sS'x'
F643
sg19
I01
sS'y'
F1483
s(dp66
S'y'
F1483
sS'x'
F969
sg19
I00
s(dp67
S'y'
F1231
sS'x'
F1125
sg19
I00
s(dp68
g17
S'curve'
p69
sS'x'
F1125
sg19
I01
sS'y'
F774
s(dp70
S'y'
F203
sS'x'
F1125
sg19
I00
s(dp71
S'y'
F-24
sS'x'
F894
sg19
I00
stp72
stp73
sS'components'
p74
(tsS'anchors'
p75
(tsss."
LayerCount: 2
Fore
SplineSet
493 139 m 256
 697 139 848 252 848 449 c 0
 848 607 717 683 498 683 c 0
 495 683 493 683 490 683 c 258
 414 682 l 257
 431 845 l 257
 506 845 l 258
 744 845 873 915 896 1107 c 256
 897 1116 898 1124 898 1132 c 0
 898 1257 777 1321 634 1321 c 256
 473 1321 352 1252 278 1189 c 257
 206 1317 l 257
 330 1426 472 1482 675 1482 c 256
 898 1482 1088 1369 1088 1156 c 0
 1088 1141 1087 1125 1085 1109 c 256
 1065 949 957 806 773 767 c 257
 943 735 1037 615 1037 456 c 0
 1037 439 1036 421 1034 403 c 256
 1001 138 766 -22 490 -22 c 256
 265 -22 120 67 99 81 c 257
 170 227 l 257
 210 206 345 139 493 139 c 256
EndSplineSet
EndChar

StartChar: threequarters
Encoding: 190 190 429
Width: 2126
VWidth: 0
Flags: HW
PickledData: "(dp1
S'org.robofab.postScriptHintData'
p2
(dp3
sS'com.typemytype.robofont.layerData'
p4
(dp5
s."
LayerCount: 2
Fore
SplineSet
807 1265 m 0
 807 1169 753 1094 639 1057 c 257
 737 1027 784 960 784 882 c 0
 784 874 783 866 782 857 c 256
 762 692 617 603 458 603 c 256
 360 603 266 636 203 697 c 257
 272 792 l 257
 332 741 400 715 464 715 c 256
 560 715 641 780 641 875 c 0
 641 949 577 989 467 989 c 258
 389 989 l 257
 403 1100 l 257
 477 1100 l 258
 585 1100 664 1151 664 1242 c 0
 664 1308 614 1349 539 1349 c 256
 471 1349 398 1323 328 1274 c 257
 282 1362 l 257
 361 1422 467 1458 566 1458 c 256
 703 1458 807 1391 807 1265 c 0
1445 0 m 257
 1469 190 l 257
 1091 190 l 257
 1103 285 l 257
 1534 800 l 257
 1681 800 l 257
 1620 300 l 257
 1730 300 l 257
 1716 190 l 257
 1604 190 l 257
 1581 0 l 257
 1445 0 l 257
439 0 m 257
 1520 1456 l 257
 1679 1456 l 257
 602 0 l 257
 439 0 l 257
1237 300 m 257
 1480 300 l 257
 1522 643 l 257
 1237 300 l 257
EndSplineSet
EndChar

StartChar: threesuperior
Encoding: 179 179 430
Width: 1064
VWidth: 0
Flags: HW
PickledData: "(dp1
S'org.robofab.postScriptHintData'
p2
(dp3
sS'com.typemytype.robofont.layerData'
p4
(dp5
s."
LayerCount: 2
Fore
SplineSet
830 1262 m 0
 830 1163 782 1082 658 1051 c 257
 760 1026 806 958 806 878 c 0
 806 869 805 860 804 851 c 256
 784 691 646 601 487 601 c 256
 389 601 294 634 234 696 c 257
 302 793 l 257
 358 742 430 715 495 715 c 256
 593 715 672 773 672 872 c 0
 672 949 605 989 490 989 c 258
 417 989 l 257
 431 1102 l 257
 499 1102 l 258
 613 1102 695 1145 695 1243 c 0
 695 1309 648 1341 571 1341 c 256
 502 1341 426 1314 359 1265 c 257
 315 1357 l 257
 388 1418 496 1456 594 1456 c 256
 728 1456 830 1388 830 1262 c 0
EndSplineSet
EndChar

StartChar: tilde
Encoding: 732 732 431
Width: 667
VWidth: 0
Flags: HW
PickledData: "(dp1
S'org.robofab.postScriptHintData'
p2
(dp3
sS'com.typemytype.robofont.layerData'
p4
(dp5
S'b'
(dp6
S'name'
p7
S'tilde'
p8
sS'lib'
p9
(dp10
sS'unicodes'
p11
(tsS'width'
p12
F672.35000000000002
sS'contours'
p13
(tsS'components'
p14
(tsS'anchors'
p15
(tsss."
AnchorPoint: "top" 298 1026 mark 0
LayerCount: 2
Fore
SplineSet
473 1175 m 0
 380 1175 264 1276 193 1276 c 256
 153 1276 125 1246 111 1183 c 257
 -7 1183 l 257
 10 1323 90 1416 202 1416 c 256
 306 1416 412 1315 481 1315 c 0
 521 1315 541 1340 553 1414 c 257
 675 1414 l 257
 657 1267 585 1175 473 1175 c 0
EndSplineSet
EndChar

StartChar: trademark
Encoding: 8482 8482 432
Width: 1869
VWidth: 0
Flags: HW
PickledData: "(dp1
S'org.robofab.postScriptHintData'
p2
(dp3
sS'com.typemytype.robofont.layerData'
p4
(dp5
S'b'
(dp6
S'name'
p7
S'trademark'
p8
sS'lib'
p9
(dp10
sS'unicodes'
p11
(tsS'width'
p12
F1869
sS'contours'
p13
(tsS'components'
p14
(tsS'anchors'
p15
(tsss."
LayerCount: 2
Fore
SplineSet
781 690 m 257
 876 1460 l 257
 1037 1460 l 257
 1224 877 l 257
 1564 1460 l 257
 1719 1460 l 257
 1623 690 l 257
 1499 690 l 257
 1570 1264 l 257
 1243 690 l 257
 1155 690 l 257
 972 1259 l 257
 903 690 l 257
 781 690 l 257
273 690 m 257
 353 1341 l 257
 104 1341 l 257
 119 1460 l 257
 756 1460 l 257
 741 1341 l 257
 494 1341 l 257
 414 690 l 257
 273 690 l 257
EndSplineSet
EndChar

StartChar: two
Encoding: 50 50 433
Width: 1238
VWidth: 0
Flags: HW
PickledData: "(dp1
S'org.robofab.postScriptHintData'
p2
(dp3
sS'com.typemytype.robofont.layerData'
p4
(dp5
S'b'
(dp6
S'name'
p7
S'two'
p8
sS'lib'
p9
(dp10
sS'unicodes'
p11
(tsS'width'
p12
F1244.5
sS'contours'
p13
(tsS'components'
p14
(tsS'anchors'
p15
(tsss."
LayerCount: 2
Fore
SplineSet
118 0 m 257
 136 150 l 257
 637 620 l 258
 820 791 890 911 901 1054 c 256
 902 1065 902 1076 902 1087 c 0
 902 1227 817 1320 659 1320 c 256
 477 1320 306 1211 281 1198 c 257
 238 1347 l 257
 264 1361 448 1482 690 1482 c 256
 942 1482 1090 1329 1090 1109 c 0
 1090 1093 1090 1076 1088 1059 c 256
 1067 852 938 693 732 501 c 258
 366 158 l 257
 972 158 l 257
 952 0 l 257
 118 0 l 257
EndSplineSet
EndChar

StartChar: twosuperior
Encoding: 178 178 434
Width: 1114
VWidth: 0
Flags: HW
PickledData: "(dp1
S'org.robofab.postScriptHintData'
p2
(dp3
sS'com.typemytype.robofont.layerData'
p4
(dp5
s."
LayerCount: 2
Fore
SplineSet
257 619 m 257
 270 719 l 257
 577 985 l 258
 690 1083 740 1157 748 1224 c 256
 749 1229 749 1234 749 1239 c 0
 749 1297 706 1336 624 1336 c 256
 544 1336 465 1294 412 1212 c 257
 345 1295 l 257
 409 1397 522 1456 647 1456 c 256
 791 1456 887 1382 887 1257 c 0
 887 1247 886 1237 885 1226 c 256
 871 1112 780 1008 643 894 c 258
 445 728 l 257
 821 728 l 257
 807 619 l 257
 257 619 l 257
EndSplineSet
EndChar

StartChar: u
Encoding: 117 117 435
Width: 1234
VWidth: 0
Flags: HW
PickledData: "(dp1
S'org.robofab.postScriptHintData'
p2
(dp3
sS'com.typemytype.robofont.layerData'
p4
(dp5
S'b'
(dp6
S'name'
p7
S'u'
sS'lib'
p8
(dp9
sS'unicodes'
p10
(tsS'width'
p11
F1227.2
sS'contours'
p12
(tsS'components'
p13
(tsS'anchors'
p14
(tsss."
AnchorPoint: "top" 672 1026 basechar 0
LayerCount: 2
Fore
SplineSet
491 -23 m 256
 247 -23 141 115 141 315 c 0
 141 340 143 365 146 392 c 258
 224 1026 l 257
 407 1026 l 257
 330 392 l 258
 327 372 326 352 326 334 c 0
 326 195 373 127 539 127 c 259
 725 127 841 246 860 403 c 258
 937 1026 l 257
 1121 1026 l 257
 1026 254 l 258
 1017 175 1007 39 1004 0 c 257
 817 0 l 257
 833 165 l 257
 774 76 662 -23 491 -23 c 256
EndSplineSet
EndChar

StartChar: underscore
Encoding: 95 95 446
Width: 941
VWidth: 0
Flags: HW
PickledData: "(dp1
S'org.robofab.postScriptHintData'
p2
(dp3
sS'com.typemytype.robofont.layerData'
p4
(dp5
s."
LayerCount: 2
Fore
SplineSet
-14 -268 m 257
 4 -123 l 257
 955 -123 l 257
 937 -268 l 257
 -14 -268 l 257
EndSplineSet
EndChar

StartChar: uni0307
Encoding: 775 775 459
Width: 524
VWidth: 0
Flags: HW
PickledData: "(dp1
S'org.robofab.postScriptHintData'
p2
(dp3
s."
AnchorPoint: "top" 220 1026 mark 0
LayerCount: 2
Fore
SplineSet
160 1268 m 257
 182 1447 l 257
 363 1447 l 257
 342 1268 l 257
 160 1268 l 257
EndSplineSet
EndChar

StartChar: uni030F
Encoding: 783 783 460
Width: 969
VWidth: 0
Flags: HW
PickledData: "(dp1
S'org.robofab.postScriptHintData'
p2
(dp3
s."
AnchorPoint: "top" 548 1026 mark 0
LayerCount: 2
Fore
SplineSet
352 1174 m 257
 92 1567 l 257
 272 1567 l 257
 476 1174 l 257
 352 1174 l 257
694 1174 m 257
 459 1567 l 257
 639 1567 l 257
 816 1174 l 257
 694 1174 l 257
EndSplineSet
EndChar

StartChar: uni0311
Encoding: 785 785 461
Width: 629
VWidth: 0
Flags: HW
PickledData: "(dp1
S'org.robofab.postScriptHintData'
p2
(dp3
sS'com.typemytype.robofont.layerData'
p4
(dp5
s."
AnchorPoint: "top" 275 1026 mark 0
LayerCount: 2
Fore
SplineSet
30 1197 m 257
 61 1352 199 1432 329 1432 c 256
 454 1432 569 1358 569 1212 c 0
 569 1207 569 1202 569 1197 c 257
 470 1197 l 257
 468 1283 396 1326 318 1326 c 256
 240 1326 155 1282 131 1197 c 257
 30 1197 l 257
EndSplineSet
EndChar

StartChar: uni0312
Encoding: 786 786 462
Width: 600
VWidth: 0
Flags: HW
PickledData: "(dp1
S'org.robofab.postScriptHintData'
p2
(dp3
s."
AnchorPoint: "top" 241 1026 mark 0
LayerCount: 2
Fore
SplineSet
532 1681 m 257
 363 1192 l 257
 154 1192 l 257
 381 1681 l 257
 532 1681 l 257
EndSplineSet
EndChar

StartChar: uni0326
Encoding: 806 806 463
Width: 540
VWidth: 0
Flags: HW
PickledData: "(dp1
S'org.robofab.postScriptHintData'
p2
(dp3
s."
LayerCount: 2
Fore
SplineSet
82 -607 m 257
 249 -134 l 257
 458 -134 l 257
 232 -607 l 257
 82 -607 l 257
EndSplineSet
EndChar

StartChar: uni2015
Encoding: 8213 8213 464
Width: 4097
VWidth: 0
Flags: HW
PickledData: "(dp1
S'org.robofab.postScriptHintData'
p2
(dp3
s."
LayerCount: 2
Fore
SplineSet
53 480 m 257
 71 630 l 257
 4044 630 l 257
 4025 480 l 257
 53 480 l 257
EndSplineSet
EndChar

StartChar: v
Encoding: 118 118 469
Width: 1056
VWidth: 0
Flags: HW
PickledData: "(dp1
S'org.robofab.postScriptHintData'
p2
(dp3
sS'com.typemytype.robofont.layerData'
p4
(dp5
S'b'
(dp6
S'name'
p7
S'v'
sS'lib'
p8
(dp9
sS'unicodes'
p10
(tsS'width'
p11
F1056.8
sS'contours'
p12
(tsS'components'
p13
(tsS'anchors'
p14
(tsss."
LayerCount: 2
Fore
SplineSet
378 0 m 257
 74 1026 l 257
 275 1026 l 257
 349 747 426 472 496 190 c 257
 628 476 774 747 913 1026 c 257
 1110 1026 l 257
 554 0 l 257
 378 0 l 257
EndSplineSet
EndChar

StartChar: w
Encoding: 119 119 470
Width: 1636
VWidth: 0
Flags: HW
PickledData: "(dp1
S'org.robofab.postScriptHintData'
p2
(dp3
sS'com.typemytype.robofont.layerData'
p4
(dp5
S'b'
(dp6
S'name'
p7
S'w'
sS'lib'
p8
(dp9
sS'unicodes'
p10
(tsS'width'
p11
F1634.0999999999999
sS'contours'
p12
(tsS'components'
p13
(tsS'anchors'
p14
(tsss."
AnchorPoint: "top" 902 1026 basechar 0
LayerCount: 2
Fore
SplineSet
309 0 m 257
 94 1026 l 257
 290 1026 l 257
 339 756 386 485 436 216 c 257
 561 486 685 756 809 1026 c 257
 988 1026 l 257
 1043 756 1098 486 1152 215 c 257
 1265 485 1377 756 1489 1026 c 257
 1668 1026 l 257
 1201 0 l 257
 1028 0 l 257
 972 268 915 534 861 803 c 257
 736 534 608 268 481 0 c 257
 309 0 l 257
EndSplineSet
EndChar

StartChar: x
Encoding: 120 120 475
Width: 1066
VWidth: 0
Flags: HW
PickledData: "(dp1
S'org.robofab.postScriptHintData'
p2
(dp3
sS'com.typemytype.robofont.layerData'
p4
(dp5
S'b'
(dp6
S'name'
p7
S'x'
sS'lib'
p8
(dp9
sS'unicodes'
p10
(tsS'width'
p11
F1062.8499999999999
sS'contours'
p12
(tsS'components'
p13
(tsS'anchors'
p14
(tsssS'com.fontlab.hintData'
p15
(dp16
S'hhints'
p17
((dp18
S'position'
p19
I0
sg11
I21
s(dp20
g19
I1006
sg11
I20
stp21
ss."
HStem: 0 21<-18 177 177 177 756 956 956 956> 1006 20<332 332 880 1074 880 880>
LayerCount: 2
Fore
SplineSet
-18 0 m 257
 433 512 l 257
 131 1027 l 257
 332 1026 l 257
 549 645 l 257
 880 1026 l 257
 1074 1026 l 257
 637 524 l 257
 956 0 l 257
 756 0 l 257
 520 392 l 257
 177 0 l 257
 -18 0 l 257
EndSplineSet
EndChar

StartChar: y
Encoding: 121 121 476
Width: 1065
VWidth: 0
Flags: HW
PickledData: "(dp1
S'org.robofab.postScriptHintData'
p2
(dp3
sS'com.typemytype.robofont.layerData'
p4
(dp5
S'b'
(dp6
S'name'
p7
S'y'
sS'lib'
p8
(dp9
sS'unicodes'
p10
(tsS'width'
p11
F1065.05
sS'contours'
p12
(tsS'components'
p13
(tsS'anchors'
p14
(tsss."
AnchorPoint: "top" 639 1026 basechar 0
LayerCount: 2
Fore
SplineSet
119 -433 m 257
 60 -307 l 257
 264 -242 356 -143 402 -44 c 257
 425 8 l 257
 131 1026 l 257
 323 1026 l 257
 539 206 l 257
 938 1026 l 257
 1123 1026 l 257
 576 -54 l 258
 480 -245 319 -385 119 -433 c 257
EndSplineSet
EndChar

StartChar: yen
Encoding: 165 165 480
Width: 1221
VWidth: 0
Flags: HW
PickledData: "(dp1
S'org.robofab.postScriptHintData'
p2
(dp3
sS'com.typemytype.robofont.layerData'
p4
(dp5
S'b'
(dp6
S'name'
p7
S'yen'
p8
sS'lib'
p9
(dp10
sS'unicodes'
p11
(tsS'width'
p12
F1225.45
sS'contours'
p13
(tsS'components'
p14
(tsS'anchors'
p15
(tsss."
LayerCount: 2
Fore
SplineSet
144 281 m 1
 159 397 l 1
 482 397 l 1
 502 558 l 1
 178 558 l 1
 193 678 l 1
 458 678 l 1
 110 1456 l 1
 322 1456 l 1
 624 743 l 1
 1102 1456 l 1
 1315 1456 l 1
 766 678 l 1
 1047 678 l 1
 1033 558 l 1
 693 558 l 1
 673 397 l 1
 1013 397 l 1
 999 281 l 1
 659 281 l 1
 625 0 l 1
 433 0 l 1
 468 281 l 1
 144 281 l 1
EndSplineSet
EndChar

StartChar: z
Encoding: 122 122 484
Width: 969
VWidth: 0
Flags: HW
PickledData: "(dp1
S'org.robofab.postScriptHintData'
p2
(dp3
sS'com.typemytype.robofont.layerData'
p4
(dp5
S'b'
(dp6
S'name'
p7
S'z'
sS'lib'
p8
(dp9
sS'unicodes'
p10
(tsS'width'
p11
F971.85000000000002
sS'contours'
p12
(tsS'components'
p13
(tsS'anchors'
p14
(tsss."
AnchorPoint: "top" 569 1026 basechar 0
LayerCount: 2
Fore
SplineSet
41 0 m 257
 53 100 l 257
 685 877 l 257
 165 877 l 257
 183 1026 l 257
 940 1026 l 257
 929 928 l 257
 297 148 l 257
 848 148 l 257
 830 0 l 257
 41 0 l 257
EndSplineSet
EndChar

StartChar: zero
Encoding: 48 48 488
Width: 1231
VWidth: 0
Flags: HW
PickledData: "(dp1
S'org.robofab.postScriptHintData'
p2
(dp3
sS'com.typemytype.robofont.layerData'
p4
(dp5
s."
LayerCount: 2
Fore
SplineSet
550 139 m 259
 760 139 866 381 908 732 c 256
 917 806 922 876 922 940 c 0
 922 1168 859 1321 694 1321 c 256
 476 1321 362 1069 321 732 c 256
 312 659 307 591 307 529 c 0
 307 291 351 139 550 139 c 259
528 -22 m 256
 250 -22 113 195 113 541 c 0
 113 601 117 665 125 732 c 256
 182 1205 386 1482 713 1482 c 256
 988 1482 1121 1280 1121 937 c 0
 1121 873 1116 805 1107 732 c 256
 1052 277 855 -22 528 -22 c 256
EndSplineSet
EndChar

